<svg preserveAspectRatio="none" width="100%" height="100%" overflow="visible" style="display: block;" viewBox="0 0 109 34" fill="none" xmlns="http://www.w3.org/2000/svg">
<g id="Rectangle 42" filter="url(#filter0_d_539_203)">
<path d="M1.5 9C1.5 4.85786 4.85786 1.5 9 1.5H100C104.142 1.5 107.5 4.85786 107.5 9V23C107.5 27.1421 104.142 30.5 100 30.5H9C4.85786 30.5 1.5 27.1421 1.5 23V9Z" fill="var(--fill-0, #FFFCF8)"/>
<path d="M100 0.75C104.556 0.75 108.25 4.44365 108.25 9V23C108.25 27.5563 104.556 31.25 100 31.25H9C4.44365 31.25 0.75 27.5563 0.75 23V9C0.75 4.44365 4.44365 0.75 9 0.75H100Z" stroke="var(--stroke-0, #006029)" stroke-width="1.5"/>
</g>
<defs>
<filter id="filter0_d_539_203" x="0" y="0" width="109" height="34" filterUnits="userSpaceOnUse" color-interpolation-filters="sRGB">
<feFlood flood-opacity="0" result="BackgroundImageFix"/>
<feColorMatrix in="SourceAlpha" type="matrix" values="0 0 0 0 0 0 0 0 0 0 0 0 0 0 0 0 0 0 127 0" result="hardAlpha"/>
<feOffset dy="2"/>
<feComposite in2="hardAlpha" operator="out"/>
<feColorMatrix type="matrix" values="0 0 0 0 0 0 0 0 0 0.376471 0 0 0 0 0.160784 0 0 0 1 0"/>
<feBlend mode="normal" in2="BackgroundImageFix" result="effect1_dropShadow_539_203"/>
<feBlend mode="normal" in="SourceGraphic" in2="effect1_dropShadow_539_203" result="shape"/>
</filter>
</defs>
</svg>
