<svg preserveAspectRatio="none" width="100%" height="100%" overflow="visible" style="display: block;" viewBox="0 0 29 29" fill="none" xmlns="http://www.w3.org/2000/svg">
<g id="humbleicons:document" clip-path="url(#clip0_304_4639)">
<g id="Group">
<path id="Vector" d="M6.04167 24.1667V4.83333C6.04167 4.51286 6.16897 4.20552 6.39558 3.97891C6.62219 3.75231 6.92953 3.625 7.25 3.625H14.7078C15.3487 3.62514 15.9633 3.87984 16.4164 4.33308L22.2502 10.1669C22.7035 10.62 22.9582 11.2346 22.9583 11.8755V24.1667C22.9583 24.4871 22.831 24.7945 22.6044 25.0211C22.3778 25.2477 22.0705 25.375 21.75 25.375H7.25C6.92953 25.375 6.62219 25.2477 6.39558 25.0211C6.16897 24.7945 6.04167 24.4871 6.04167 24.1667Z" stroke="var(--stroke-0, white)" stroke-width="2" stroke-linejoin="round"/>
<path id="Vector_2" d="M14.5 3.625V10.875C14.5 11.1955 14.6273 11.5028 14.8539 11.7294C15.0805 11.956 15.3879 12.0833 15.7083 12.0833H22.9583" stroke="var(--stroke-0, white)" stroke-width="2" stroke-linejoin="round"/>
</g>
<circle id="Ellipse 51" cx="22.9194" cy="24.7903" r="8.8871" fill="var(--fill-0, #96B902)"/>
</g>
<defs>
<clipPath id="clip0_304_4639">
<rect width="29" height="29" fill="white"/>
</clipPath>
</defs>
</svg>
