<svg preserveAspectRatio="none" width="100%" height="100%" overflow="visible" style="display: block;" viewBox="0 0 13 15" fill="none" xmlns="http://www.w3.org/2000/svg">
<g id="Group">
<g id="Vector">
</g>
<path id="Vector_2" d="M9.64066 4.78004L11.6294 6.76879C11.9521 7.0872 12.2087 7.46631 12.3843 7.88428C12.5599 8.30225 12.651 8.75083 12.6526 9.20418C12.6541 9.65754 12.5659 10.1067 12.3931 10.5259C12.2203 10.945 11.9663 11.3258 11.6458 11.6464C11.3252 11.9669 10.9444 12.2209 10.5252 12.3937C10.1061 12.5665 9.65691 12.6547 9.20356 12.6532C8.7502 12.6517 8.30163 12.5605 7.88366 12.3849C7.46569 12.2093 7.08658 11.9527 6.76816 11.63L6.10566 10.9675C6.01608 10.8811 5.94461 10.7777 5.89543 10.6633C5.84624 10.549 5.82032 10.426 5.81918 10.3015C5.81804 10.177 5.8417 10.0535 5.88879 9.93831C5.93587 9.82307 6.00543 9.71837 6.09342 9.6303C6.1814 9.54224 6.28604 9.47257 6.40123 9.42538C6.51642 9.37819 6.63986 9.35441 6.76434 9.35543C6.88882 9.35645 7.01185 9.38226 7.12625 9.43134C7.24066 9.48042 7.34414 9.55179 7.43066 9.64129L8.09441 10.3044C8.38792 10.5953 8.78469 10.758 9.1979 10.7571C9.61112 10.7561 10.0071 10.5915 10.2993 10.2993C10.5914 10.007 10.7559 9.61099 10.7568 9.19777C10.7576 8.78456 10.5947 8.38783 10.3038 8.09441L8.31504 6.10566C8.10008 5.89061 7.82705 5.74295 7.52942 5.68078C7.23178 5.61862 6.92248 5.64464 6.63941 5.75566C6.53858 5.79566 6.444 5.83649 6.35566 5.87816L6.06566 6.01379C5.67816 6.18879 5.38004 6.26379 5.00066 5.88504C4.45566 5.34004 4.59691 4.83691 5.26129 4.37879C5.9231 3.92339 6.72352 3.71417 7.52353 3.78747C8.32355 3.86077 9.07262 4.21195 9.64066 4.78004ZM5.88441 1.02379L6.54691 1.68629C6.71777 1.86302 6.81238 2.09979 6.81036 2.3456C6.80834 2.59141 6.70985 2.8266 6.53612 3.0005C6.36238 3.1744 6.12729 3.27311 5.88148 3.27536C5.63567 3.27761 5.39881 3.18323 5.22191 3.01254L4.55879 2.35004C4.41469 2.20076 4.24231 2.08168 4.05171 1.99974C3.8611 1.91779 3.65608 1.87463 3.44861 1.87277C3.24114 1.87091 3.03538 1.91039 2.84334 1.98889C2.65129 2.0674 2.4768 2.18338 2.33005 2.33004C2.1833 2.47671 2.06723 2.65113 1.98862 2.84313C1.91 3.03514 1.87041 3.24087 1.87215 3.44834C1.87389 3.65581 1.91694 3.86085 1.99877 4.05151C2.08061 4.24216 2.19959 4.41461 2.34879 4.55879L4.33754 6.54754C4.55249 6.76258 4.82552 6.91024 5.12316 6.97241C5.42079 7.03458 5.7301 7.00856 6.01316 6.89754C6.11399 6.85754 6.20858 6.8167 6.29691 6.77504L6.58691 6.63941C6.97441 6.46441 7.27316 6.38941 7.65191 6.76816C8.19691 7.31316 8.05566 7.81629 7.39129 8.27441C6.72947 8.72981 5.92905 8.93903 5.12904 8.86573C4.32903 8.79243 3.57995 8.44124 3.01191 7.87316L1.02316 5.88441C0.700449 5.56599 0.443909 5.18689 0.268315 4.76892C0.0927199 4.35095 0.00153809 3.90237 1.92918e-05 3.44902C-0.00149951 2.99566 0.0866748 2.54648 0.259465 2.12735C0.432256 1.70821 0.686249 1.32739 1.00682 1.00682C1.32739 0.686249 1.70821 0.432255 2.12735 0.259465C2.54648 0.0866747 2.99566 -0.00149951 3.44902 1.92918e-05C3.90237 0.00153809 4.35095 0.0927199 4.76892 0.268315C5.18689 0.443909 5.566 0.701074 5.88441 1.02379Z" fill="var(--fill-0, white)"/>
</g>
</svg>
