<svg preserveAspectRatio="none" width="100%" height="100%" overflow="visible" style="display: block;" viewBox="0 0 83 83" fill="none" xmlns="http://www.w3.org/2000/svg">
<g id="Icon" opacity="0.8">
<path id="Vector" d="M17.2498 17.25C17.2494 16.0359 17.5694 14.8432 18.1774 13.7924C18.7854 12.7415 19.66 11.8697 20.7127 11.2649C21.7654 10.6601 22.9591 10.3439 24.1732 10.348C25.3873 10.3521 26.5788 10.6765 27.6274 11.2884L69.017 35.4315C70.0615 36.0376 70.9287 36.9072 71.5318 37.9534C72.135 38.9997 72.453 40.1859 72.454 41.3936C72.4551 42.6012 72.1391 43.788 71.5378 44.8353C70.9365 45.8825 70.0708 46.7537 69.0274 47.3616L27.6274 71.5116C26.5788 72.1235 25.3873 72.4479 24.1732 72.452C22.9591 72.4561 21.7654 72.1398 20.7127 71.5351C19.66 70.9303 18.7854 70.0585 18.1774 69.0076C17.5694 67.9567 17.2494 66.7641 17.2498 65.55V17.25Z" fill="var(--fill-0, white)" stroke="var(--stroke-0, #399A66)" stroke-width="5" stroke-linecap="round" stroke-linejoin="round"/>
</g>
</svg>
