<svg width="65" height="13" viewBox="0 0 65 13" fill="none" xmlns="http://www.w3.org/2000/svg">
<path d="M9.24934 6.98129C9.24934 6.78238 9.17032 6.59161 9.02967 6.45096C8.88902 6.31031 8.69825 6.23129 8.49934 6.23129L2.55934 6.23129L4.52934 4.26129C4.66182 4.11912 4.73394 3.93107 4.73051 3.73677C4.72709 3.54247 4.64837 3.35708 4.51096 3.21967C4.37355 3.08226 4.18816 3.00354 3.99386 3.00012C3.79956 2.99669 3.61151 3.06881 3.46934 3.20129L0.21934 6.45129C0.0788894 6.59192 -1.84351e-07 6.78254 -1.75663e-07 6.98129C-1.66976e-07 7.18004 0.0788895 7.37067 0.21934 7.51129L3.46934 10.7613C3.538 10.835 3.6208 10.8941 3.7128 10.9351C3.8048 10.9761 3.90411 10.9981 4.00482 10.9999C4.10552 11.0017 4.20555 10.9831 4.29894 10.9454C4.39233 10.9077 4.47716 10.8515 4.54838 10.7803C4.6196 10.7091 4.67574 10.6243 4.71346 10.5309C4.75118 10.4375 4.76971 10.3375 4.76793 10.2368C4.76615 10.1361 4.74411 10.0368 4.70312 9.94475C4.66213 9.85275 4.60303 9.76995 4.52934 9.70129L2.55934 7.73129L8.49934 7.73129C8.91334 7.73129 9.24934 7.39529 9.24934 6.98129Z" fill="#473025"/>
<path d="M17.6852 3H21.0352C21.2085 3 21.3519 3.05667 21.4652 3.17C21.5852 3.27667 21.6452 3.41667 21.6452 3.59C21.6452 3.75667 21.5852 3.89333 21.4652 4C21.3519 4.1 21.2085 4.15 21.0352 4.15H18.2352L18.3252 3.98V5.93L18.2452 5.85H20.5852C20.7585 5.85 20.9019 5.90667 21.0152 6.02C21.1352 6.12667 21.1952 6.26667 21.1952 6.44C21.1952 6.60667 21.1352 6.74333 21.0152 6.85C20.9019 6.95 20.7585 7 20.5852 7H18.2752L18.3252 6.92V8.94L18.2452 8.85H21.0352C21.2085 8.85 21.3519 8.91 21.4652 9.03C21.5852 9.14333 21.6452 9.27667 21.6452 9.43C21.6452 9.59667 21.5852 9.73333 21.4652 9.84C21.3519 9.94667 21.2085 10 21.0352 10H17.6852C17.5119 10 17.3652 9.94333 17.2452 9.83C17.1319 9.71 17.0752 9.56333 17.0752 9.39V3.61C17.0752 3.43667 17.1319 3.29333 17.2452 3.18C17.3652 3.06 17.5119 3 17.6852 3ZM22.8079 4.65C23.0012 4.65 23.1645 4.73333 23.2979 4.9L26.6379 9.05C26.7245 9.15667 26.7679 9.27667 26.7679 9.41C26.7679 9.57667 26.7045 9.72 26.5779 9.84C26.4512 9.96 26.3112 10.02 26.1579 10.02C25.9645 10.02 25.8012 9.93333 25.6679 9.76L22.3279 5.61C22.2412 5.50333 22.1979 5.38333 22.1979 5.25C22.1979 5.07667 22.2579 4.93333 22.3779 4.82C22.5045 4.70667 22.6479 4.65 22.8079 4.65ZM22.8179 10.01C22.6845 10.01 22.5512 9.96 22.4179 9.86C22.2912 9.75333 22.2279 9.62667 22.2279 9.48C22.2279 9.34667 22.2779 9.22 22.3779 9.1L23.9079 7.23L24.5079 8.23L23.2979 9.76C23.1712 9.92667 23.0112 10.01 22.8179 10.01ZM26.1479 4.65C26.3079 4.65 26.4412 4.70667 26.5479 4.82C26.6612 4.92667 26.7179 5.05 26.7179 5.19C26.7179 5.25667 26.7079 5.32333 26.6879 5.39C26.6679 5.45667 26.6312 5.52 26.5779 5.58L25.0679 7.42L24.4379 6.55L25.6679 4.92C25.8012 4.74 25.9612 4.65 26.1479 4.65ZM28.7009 9.39C28.7009 9.56333 28.6442 9.71 28.5309 9.83C28.4176 9.94333 28.2742 10 28.1009 10C27.9276 10 27.7842 9.94333 27.6709 9.83C27.5576 9.71 27.5009 9.56333 27.5009 9.39V5.26C27.5009 5.08667 27.5576 4.94333 27.6709 4.83C27.7842 4.71 27.9276 4.65 28.1009 4.65C28.2742 4.65 28.4176 4.71 28.5309 4.83C28.6442 4.94333 28.7009 5.08667 28.7009 5.26V9.39ZM28.0909 4C27.8642 4 27.7042 3.96333 27.6109 3.89C27.5176 3.81667 27.4709 3.68667 27.4709 3.5V3.31C27.4709 3.11667 27.5209 2.98667 27.6209 2.92C27.7276 2.84667 27.8876 2.81 28.1009 2.81C28.3342 2.81 28.4976 2.84667 28.5909 2.92C28.6842 2.99333 28.7309 3.12333 28.7309 3.31V3.5C28.7309 3.69333 28.6809 3.82667 28.5809 3.9C28.4809 3.96667 28.3176 4 28.0909 4ZM29.9942 4.75H32.3642C32.5242 4.75 32.6575 4.80333 32.7642 4.91C32.8708 5.01667 32.9242 5.15 32.9242 5.31C32.9242 5.46333 32.8708 5.59333 32.7642 5.7C32.6575 5.8 32.5242 5.85 32.3642 5.85H29.9942C29.8342 5.85 29.7008 5.79667 29.5942 5.69C29.4875 5.58333 29.4342 5.45 29.4342 5.29C29.4342 5.13667 29.4875 5.01 29.5942 4.91C29.7008 4.80333 29.8342 4.75 29.9942 4.75ZM31.0642 3.5C31.2375 3.5 31.3775 3.56 31.4842 3.68C31.5975 3.79333 31.6542 3.93667 31.6542 4.11V8.56C31.6542 8.65333 31.6708 8.73 31.7042 8.79C31.7442 8.85 31.7942 8.89333 31.8542 8.92C31.9208 8.94667 31.9908 8.96 32.0642 8.96C32.1442 8.96 32.2175 8.94667 32.2842 8.92C32.3508 8.88667 32.4275 8.87 32.5142 8.87C32.6075 8.87 32.6908 8.91333 32.7642 9C32.8442 9.08667 32.8842 9.20667 32.8842 9.36C32.8842 9.54667 32.7808 9.7 32.5742 9.82C32.3742 9.94 32.1575 10 31.9242 10C31.7842 10 31.6275 9.99 31.4542 9.97C31.2875 9.94333 31.1275 9.88667 30.9742 9.8C30.8275 9.70667 30.7042 9.56667 30.6042 9.38C30.5042 9.19333 30.4542 8.93667 30.4542 8.61V4.11C30.4542 3.93667 30.5108 3.79333 30.6242 3.68C30.7442 3.56 30.8908 3.5 31.0642 3.5ZM40.2287 10.1C39.722 10.1 39.2487 10.0067 38.8087 9.82C38.3687 9.63333 37.982 9.37667 37.6487 9.05C37.3154 8.71667 37.052 8.33333 36.8587 7.9C36.672 7.46667 36.5787 7 36.5787 6.5C36.5787 6 36.672 5.53333 36.8587 5.1C37.052 4.66667 37.3154 4.28667 37.6487 3.96C37.982 3.62667 38.3687 3.36667 38.8087 3.18C39.2487 2.99333 39.722 2.9 40.2287 2.9C40.542 2.9 40.8454 2.93333 41.1387 3C41.432 3.06667 41.702 3.16667 41.9487 3.3C42.0487 3.35333 42.122 3.42667 42.1687 3.52C42.222 3.60667 42.2487 3.69667 42.2487 3.79C42.2487 3.95 42.1954 4.09333 42.0887 4.22C41.982 4.34667 41.8454 4.41 41.6787 4.41C41.6254 4.41 41.5687 4.40333 41.5087 4.39C41.4554 4.37667 41.402 4.35667 41.3487 4.33C41.182 4.25667 41.0054 4.2 40.8187 4.16C40.632 4.12 40.4354 4.1 40.2287 4.1C39.7954 4.1 39.3987 4.21 39.0387 4.43C38.6854 4.64333 38.402 4.93333 38.1887 5.3C37.982 5.66 37.8787 6.06 37.8787 6.5C37.8787 6.93333 37.982 7.33333 38.1887 7.7C38.402 8.06667 38.6854 8.36 39.0387 8.58C39.3987 8.79333 39.7954 8.9 40.2287 8.9C40.4287 8.9 40.6487 8.88 40.8887 8.84C41.1287 8.8 41.3254 8.74667 41.4787 8.68L41.3887 8.98V7.27L41.5587 7.42H40.4487C40.2754 7.42 40.1287 7.36333 40.0087 7.25C39.8954 7.13667 39.8387 6.99333 39.8387 6.82C39.8387 6.64667 39.8954 6.50333 40.0087 6.39C40.1287 6.27667 40.2754 6.22 40.4487 6.22H42.0887C42.262 6.22 42.4054 6.28 42.5187 6.4C42.632 6.51333 42.6887 6.65667 42.6887 6.83V8.95C42.6887 9.08333 42.6554 9.19333 42.5887 9.28C42.5287 9.36667 42.4587 9.43667 42.3787 9.49C42.072 9.67667 41.7354 9.82667 41.3687 9.94C41.0087 10.0467 40.6287 10.1 40.2287 10.1ZM48.3083 4.55C48.4817 4.55 48.625 4.60667 48.7383 4.72C48.8517 4.83333 48.9083 4.98 48.9083 5.16V9.39C48.9083 9.56333 48.8517 9.71 48.7383 9.83C48.625 9.94333 48.4817 10 48.3083 10C48.135 10 47.9917 9.94333 47.8783 9.83C47.765 9.71 47.7083 9.56333 47.7083 9.39V8.9L47.9283 8.99C47.9283 9.07667 47.8817 9.18333 47.7883 9.31C47.695 9.43 47.5683 9.55 47.4083 9.67C47.2483 9.79 47.0583 9.89333 46.8383 9.98C46.625 10.06 46.3917 10.1 46.1383 10.1C45.6783 10.1 45.2617 9.98333 44.8883 9.75C44.515 9.51 44.2183 9.18333 43.9983 8.77C43.785 8.35 43.6783 7.87 43.6783 7.33C43.6783 6.78333 43.785 6.30333 43.9983 5.89C44.2183 5.47 44.5117 5.14333 44.8783 4.91C45.245 4.67 45.6517 4.55 46.0983 4.55C46.385 4.55 46.6483 4.59333 46.8883 4.68C47.1283 4.76667 47.335 4.87667 47.5083 5.01C47.6883 5.14333 47.825 5.28 47.9183 5.42C48.0183 5.55333 48.0683 5.66667 48.0683 5.76L47.7083 5.89V5.16C47.7083 4.98667 47.765 4.84333 47.8783 4.73C47.9917 4.61 48.135 4.55 48.3083 4.55ZM46.2883 9C46.5817 9 46.8383 8.92667 47.0583 8.78C47.2783 8.63333 47.4483 8.43333 47.5683 8.18C47.695 7.92667 47.7583 7.64333 47.7583 7.33C47.7583 7.01 47.695 6.72333 47.5683 6.47C47.4483 6.21667 47.2783 6.01667 47.0583 5.87C46.8383 5.72333 46.5817 5.65 46.2883 5.65C46.0017 5.65 45.7483 5.72333 45.5283 5.87C45.3083 6.01667 45.135 6.21667 45.0083 6.47C44.8883 6.72333 44.8283 7.01 44.8283 7.33C44.8283 7.64333 44.8883 7.92667 45.0083 8.18C45.135 8.43333 45.3083 8.63333 45.5283 8.78C45.7483 8.92667 46.0017 9 46.2883 9ZM53.0176 4.55C53.551 4.55 53.9443 4.68 54.1976 4.94C54.451 5.19333 54.6176 5.52333 54.6976 5.93L54.5276 5.84L54.6076 5.68C54.6876 5.52667 54.811 5.36333 54.9776 5.19C55.1443 5.01 55.3443 4.86 55.5776 4.74C55.8176 4.61333 56.0843 4.55 56.3776 4.55C56.8576 4.55 57.221 4.65333 57.4676 4.86C57.721 5.06667 57.8943 5.34333 57.9876 5.69C58.081 6.03 58.1276 6.41 58.1276 6.83V9.39C58.1276 9.56333 58.071 9.71 57.9576 9.83C57.8443 9.94333 57.701 10 57.5276 10C57.3543 10 57.211 9.94333 57.0976 9.83C56.9843 9.71 56.9276 9.56333 56.9276 9.39V6.83C56.9276 6.61 56.901 6.41333 56.8476 6.24C56.7943 6.06 56.6976 5.91667 56.5576 5.81C56.4176 5.70333 56.2176 5.65 55.9576 5.65C55.7043 5.65 55.4876 5.70333 55.3076 5.81C55.1276 5.91667 54.991 6.06 54.8976 6.24C54.811 6.41333 54.7676 6.61 54.7676 6.83V9.39C54.7676 9.56333 54.711 9.71 54.5976 9.83C54.4843 9.94333 54.341 10 54.1676 10C53.9943 10 53.851 9.94333 53.7376 9.83C53.6243 9.71 53.5676 9.56333 53.5676 9.39V6.83C53.5676 6.61 53.541 6.41333 53.4876 6.24C53.4343 6.06 53.3376 5.91667 53.1976 5.81C53.0576 5.70333 52.8576 5.65 52.5976 5.65C52.3443 5.65 52.1276 5.70333 51.9476 5.81C51.7676 5.91667 51.631 6.06 51.5376 6.24C51.451 6.41333 51.4076 6.61 51.4076 6.83V9.39C51.4076 9.56333 51.351 9.71 51.2376 9.83C51.1243 9.94333 50.981 10 50.8076 10C50.6343 10 50.491 9.94333 50.3776 9.83C50.2643 9.71 50.2076 9.56333 50.2076 9.39V5.26C50.2076 5.08667 50.2643 4.94333 50.3776 4.83C50.491 4.71 50.6343 4.65 50.8076 4.65C50.981 4.65 51.1243 4.71 51.2376 4.83C51.351 4.94333 51.4076 5.08667 51.4076 5.26V5.69L51.2576 5.66C51.3176 5.54667 51.401 5.42667 51.5076 5.3C51.6143 5.16667 51.7443 5.04333 51.8976 4.93C52.051 4.81667 52.221 4.72667 52.4076 4.66C52.5943 4.58667 52.7976 4.55 53.0176 4.55ZM61.9464 10.1C61.3797 10.1 60.8864 9.98333 60.4664 9.75C60.053 9.51 59.733 9.18667 59.5064 8.78C59.2864 8.37333 59.1764 7.91333 59.1764 7.4C59.1764 6.8 59.2964 6.29 59.5364 5.87C59.783 5.44333 60.103 5.11667 60.4964 4.89C60.8897 4.66333 61.3064 4.55 61.7464 4.55C62.0864 4.55 62.4064 4.62 62.7064 4.76C63.013 4.9 63.283 5.09333 63.5164 5.34C63.7497 5.58 63.933 5.86 64.0664 6.18C64.2064 6.5 64.2764 6.84 64.2764 7.2C64.2697 7.36 64.2064 7.49 64.0864 7.59C63.9664 7.69 63.8264 7.74 63.6664 7.74H59.8464L59.5464 6.74H63.2164L62.9964 6.94V6.67C62.983 6.47667 62.913 6.30333 62.7864 6.15C62.6664 5.99667 62.513 5.87667 62.3264 5.79C62.1464 5.69667 61.953 5.65 61.7464 5.65C61.5464 5.65 61.3597 5.67667 61.1864 5.73C61.013 5.78333 60.863 5.87333 60.7364 6C60.6097 6.12667 60.5097 6.29667 60.4364 6.51C60.363 6.72333 60.3264 6.99333 60.3264 7.32C60.3264 7.68 60.3997 7.98667 60.5464 8.24C60.6997 8.48667 60.893 8.67667 61.1264 8.81C61.3664 8.93667 61.6197 9 61.8864 9C62.133 9 62.3297 8.98 62.4764 8.94C62.623 8.9 62.7397 8.85333 62.8264 8.8C62.9197 8.74 63.003 8.69 63.0764 8.65C63.1964 8.59 63.3097 8.56 63.4164 8.56C63.563 8.56 63.683 8.61 63.7764 8.71C63.8764 8.81 63.9264 8.92667 63.9264 9.06C63.9264 9.24 63.833 9.40333 63.6464 9.55C63.473 9.69667 63.2297 9.82667 62.9164 9.94C62.603 10.0467 62.2797 10.1 61.9464 10.1Z" fill="#473025"/>
</svg>
