<svg width="157" height="241" viewBox="0 0 157 241" fill="none" xmlns="http://www.w3.org/2000/svg">
<rect x="20" y="13" width="137" height="9" fill="#473025"/>
<rect x="140.364" y="13" width="64.2677" height="9" transform="rotate(45 140.364 13)" fill="#473025"/>
<mask id="path-3-inside-1_1078_7015" fill="white">
<path d="M118 0C121.314 0 124 2.68629 124 6V236C124 237.517 123.435 238.901 122.507 239.958L77.6006 180.5L32.6016 240.079C31.6082 239.009 31 237.576 31 236V6C31 2.68629 33.6863 0 37 0H118Z"/>
</mask>
<path d="M118 0C121.314 0 124 2.68629 124 6V236C124 237.517 123.435 238.901 122.507 239.958L77.6006 180.5L32.6016 240.079C31.6082 239.009 31 237.576 31 236V6C31 2.68629 33.6863 0 37 0H118Z" fill="#EA1644"/>
<path d="M122.507 239.958L120.113 241.766L122.331 244.703L124.76 241.939L122.507 239.958ZM77.6006 180.5L79.9945 178.692L77.6006 175.522L75.2067 178.692L77.6006 180.5ZM32.6016 240.079L30.4024 242.12L32.8376 244.744L34.9955 241.887L32.6016 240.079ZM118 0V3C119.657 3 121 4.34315 121 6H124H127C127 1.02944 122.971 -3 118 -3V0ZM124 6H121V236H124H127V6H124ZM124 236H121C121 236.758 120.721 237.445 120.253 237.977L122.507 239.958L124.76 241.939C126.15 240.358 127 238.276 127 236H124ZM122.507 239.958L124.901 238.15L79.9945 178.692L77.6006 180.5L75.2066 182.308L120.113 241.766L122.507 239.958ZM77.6006 180.5L75.2067 178.692L30.2076 238.271L32.6016 240.079L34.9955 241.887L79.9945 182.308L77.6006 180.5ZM32.6016 240.079L34.8008 238.039C34.3007 237.5 34 236.788 34 236H31H28C28 238.363 28.9158 240.517 30.4024 242.12L32.6016 240.079ZM31 236H34V6H31H28V236H31ZM31 6H34C34 4.34315 35.3431 3 37 3V0V-3C32.0294 -3 28 1.02944 28 6H31ZM37 0V3H118V0V-3H37V0Z" fill="#473025" mask="url(#path-3-inside-1_1078_7015)"/>
<rect x="34" y="8" width="87" height="6" fill="#FF9E36" fill-opacity="0.59"/>
<path d="M53.2738 40C52.9938 40 52.7438 39.915 52.5238 39.745C52.3038 39.565 52.1938 39.345 52.1938 39.085V30.415C52.1938 30.155 52.2788 29.94 52.4488 29.77C52.6288 29.59 52.8488 29.5 53.1088 29.5H57.4288C57.9488 29.5 58.4338 29.64 58.8838 29.92C59.3438 30.19 59.7138 30.57 59.9938 31.06C60.2738 31.54 60.4138 32.095 60.4138 32.725C60.4138 33.105 60.3338 33.475 60.1738 33.835C60.0238 34.195 59.8138 34.52 59.5438 34.81C59.2838 35.1 58.9888 35.325 58.6588 35.485L58.6738 35.14C58.9538 35.29 59.1838 35.47 59.3638 35.68C59.5538 35.88 59.6988 36.1 59.7988 36.34C59.9088 36.57 59.9738 36.82 59.9938 37.09C60.0338 37.34 60.0588 37.56 60.0688 37.75C60.0888 37.94 60.1188 38.1 60.1588 38.23C60.2088 38.36 60.2988 38.46 60.4288 38.53C60.6488 38.66 60.7838 38.85 60.8338 39.1C60.8938 39.34 60.8388 39.555 60.6688 39.745C60.5588 39.875 60.4188 39.96 60.2488 40C60.0788 40.03 59.9088 40.03 59.7388 40C59.5688 39.96 59.4288 39.91 59.3188 39.85C59.1488 39.75 58.9788 39.605 58.8088 39.415C58.6388 39.215 58.4988 38.95 58.3888 38.62C58.2888 38.29 58.2388 37.865 58.2388 37.345C58.2388 37.175 58.2088 37.02 58.1488 36.88C58.0888 36.73 58.0038 36.605 57.8938 36.505C57.7838 36.395 57.6438 36.315 57.4738 36.265C57.3038 36.205 57.1038 36.175 56.8738 36.175H53.8438L54.0688 35.83V39.085C54.0688 39.345 53.9988 39.565 53.8588 39.745C53.7188 39.915 53.5238 40 53.2738 40ZM53.8588 34.63H57.3538C57.5338 34.63 57.7088 34.55 57.8788 34.39C58.0488 34.22 58.1888 33.995 58.2988 33.715C58.4088 33.425 58.4638 33.11 58.4638 32.77C58.4638 32.33 58.3438 31.965 58.1038 31.675C57.8738 31.375 57.6238 31.225 57.3538 31.225H53.8888L54.0688 30.745V34.99L53.8588 34.63ZM72.0052 34.75C72.0052 35.5 71.8802 36.2 71.6302 36.85C71.3802 37.5 71.0252 38.075 70.5652 38.575C70.1152 39.065 69.5752 39.45 68.9452 39.73C68.3252 40.01 67.6452 40.15 66.9052 40.15C66.1652 40.15 65.4852 40.01 64.8652 39.73C64.2452 39.45 63.7052 39.065 63.2452 38.575C62.7952 38.075 62.4452 37.5 62.1952 36.85C61.9452 36.2 61.8202 35.5 61.8202 34.75C61.8202 34 61.9452 33.3 62.1952 32.65C62.4452 32 62.7952 31.43 63.2452 30.94C63.7052 30.44 64.2452 30.05 64.8652 29.77C65.4852 29.49 66.1652 29.35 66.9052 29.35C67.6452 29.35 68.3252 29.49 68.9452 29.77C69.5752 30.05 70.1152 30.44 70.5652 30.94C71.0252 31.43 71.3802 32 71.6302 32.65C71.8802 33.3 72.0052 34 72.0052 34.75ZM70.0552 34.75C70.0552 34.08 69.9202 33.475 69.6502 32.935C69.3802 32.385 69.0102 31.95 68.5402 31.63C68.0702 31.31 67.5252 31.15 66.9052 31.15C66.2852 31.15 65.7402 31.31 65.2702 31.63C64.8002 31.95 64.4302 32.38 64.1602 32.92C63.9002 33.46 63.7702 34.07 63.7702 34.75C63.7702 35.42 63.9002 36.03 64.1602 36.58C64.4302 37.12 64.8002 37.55 65.2702 37.87C65.7402 38.19 66.2852 38.35 66.9052 38.35C67.5252 38.35 68.0702 38.19 68.5402 37.87C69.0102 37.55 69.3802 37.12 69.6502 36.58C69.9202 36.03 70.0552 35.42 70.0552 34.75ZM81.1821 29.485C81.4421 29.485 81.6521 29.575 81.8121 29.755C81.9721 29.925 82.0521 30.14 82.0521 30.4V35.83C82.0521 36.66 81.8721 37.395 81.5121 38.035C81.1621 38.675 80.6771 39.175 80.0571 39.535C79.4371 39.895 78.7171 40.075 77.8971 40.075C77.0771 40.075 76.3521 39.895 75.7221 39.535C75.1021 39.175 74.6121 38.675 74.2521 38.035C73.9021 37.395 73.7271 36.66 73.7271 35.83V30.4C73.7271 30.14 73.8171 29.925 73.9971 29.755C74.1771 29.575 74.4071 29.485 74.6871 29.485C74.9171 29.485 75.1221 29.575 75.3021 29.755C75.4921 29.925 75.5871 30.14 75.5871 30.4V35.83C75.5871 36.33 75.6921 36.765 75.9021 37.135C76.1221 37.495 76.4071 37.775 76.7571 37.975C77.1171 38.175 77.4971 38.275 77.8971 38.275C78.3271 38.275 78.7271 38.175 79.0971 37.975C79.4671 37.775 79.7671 37.495 79.9971 37.135C80.2271 36.765 80.3421 36.33 80.3421 35.83V30.4C80.3421 30.14 80.4171 29.925 80.5671 29.755C80.7171 29.575 80.9221 29.485 81.1821 29.485ZM92.2682 29.5C92.5082 29.5 92.7032 29.58 92.8532 29.74C93.0032 29.9 93.0782 30.1 93.0782 30.34V39.085C93.0782 39.345 92.9882 39.565 92.8082 39.745C92.6382 39.915 92.4232 40 92.1632 40C92.0332 40 91.8982 39.98 91.7582 39.94C91.6282 39.89 91.5282 39.825 91.4582 39.745L85.5632 32.26L85.9532 32.02V39.16C85.9532 39.4 85.8732 39.6 85.7132 39.76C85.5632 39.92 85.3632 40 85.1132 40C84.8732 40 84.6782 39.92 84.5282 39.76C84.3782 39.6 84.3032 39.4 84.3032 39.16V30.415C84.3032 30.155 84.3882 29.94 84.5582 29.77C84.7382 29.59 84.9582 29.5 85.2182 29.5C85.3582 29.5 85.5032 29.53 85.6532 29.59C85.8032 29.64 85.9132 29.72 85.9832 29.83L91.6982 37.12L91.4432 37.3V30.34C91.4432 30.1 91.5182 29.9 91.6682 29.74C91.8182 29.58 92.0182 29.5 92.2682 29.5ZM99.8335 29.5C100.553 29.5 101.193 29.635 101.753 29.905C102.313 30.175 102.783 30.555 103.163 31.045C103.553 31.525 103.843 32.085 104.033 32.725C104.233 33.355 104.333 34.03 104.333 34.75C104.333 35.72 104.158 36.605 103.808 37.405C103.458 38.195 102.948 38.825 102.278 39.295C101.618 39.765 100.803 40 99.8335 40H96.2485C95.9885 40 95.7685 39.915 95.5885 39.745C95.4185 39.565 95.3335 39.345 95.3335 39.085V30.415C95.3335 30.155 95.4185 29.94 95.5885 29.77C95.7685 29.59 95.9885 29.5 96.2485 29.5H99.8335ZM99.6835 38.275C100.313 38.275 100.828 38.115 101.228 37.795C101.628 37.465 101.918 37.035 102.098 36.505C102.288 35.965 102.383 35.38 102.383 34.75C102.383 34.28 102.328 33.835 102.218 33.415C102.118 32.985 101.958 32.61 101.738 32.29C101.518 31.96 101.238 31.7 100.898 31.51C100.558 31.32 100.153 31.225 99.6835 31.225H97.0585L97.2085 31.09V38.44L97.1185 38.275H99.6835Z" fill="#FFFAF2"/>
<circle cx="78.5" cy="64.5" r="16.5" fill="#FFFAF2"/>
<path d="M79.0479 73C78.5999 73 78.2319 72.864 77.9439 72.592C77.6559 72.304 77.5119 71.952 77.5119 71.536V59.44L77.8479 59.968L76.0959 61.264C75.8719 61.44 75.5919 61.528 75.2559 61.528C74.8719 61.528 74.5359 61.384 74.2479 61.096C73.9599 60.808 73.8159 60.464 73.8159 60.064C73.8159 59.552 74.0639 59.136 74.5599 58.816L78.0159 56.512C78.1759 56.4 78.3519 56.32 78.5439 56.272C78.7519 56.224 78.9439 56.2 79.1199 56.2C79.5839 56.2 79.9519 56.344 80.2239 56.632C80.4959 56.904 80.6319 57.248 80.6319 57.664V71.536C80.6319 71.952 80.4799 72.304 80.1759 72.592C79.8879 72.864 79.5119 73 79.0479 73Z" fill="#EA1644"/>
<circle cx="10.5" cy="17.5" r="10.5" fill="#473025"/>
</svg>
