<svg width="385" height="245" viewBox="0 0 385 245" fill="none" xmlns="http://www.w3.org/2000/svg">
<rect x="1.5" y="1.5" width="382" height="242" rx="15" fill="#FDF0DC" stroke="#473025" stroke-width="3"/>
<path d="M109.632 68.82C108.011 68.82 106.496 68.5213 105.088 67.924C103.68 67.3267 102.443 66.5053 101.376 65.46C100.309 64.3933 99.4665 63.1667 98.8479 61.78C98.2505 60.3933 97.9519 58.9 97.9519 57.3C97.9519 55.7 98.2505 54.2067 98.8479 52.82C99.4665 51.4333 100.309 50.2173 101.376 49.172C102.443 48.1053 103.68 47.2733 105.088 46.676C106.496 46.0787 108.011 45.78 109.632 45.78C110.635 45.78 111.605 45.8867 112.544 46.1C113.483 46.3133 114.347 46.6333 115.136 47.06C115.456 47.2307 115.691 47.4653 115.84 47.764C116.011 48.0413 116.096 48.3293 116.096 48.628C116.096 49.14 115.925 49.5987 115.584 50.004C115.243 50.4093 114.805 50.612 114.272 50.612C114.101 50.612 113.92 50.5907 113.728 50.548C113.557 50.5053 113.387 50.4413 113.216 50.356C112.683 50.1213 112.117 49.94 111.52 49.812C110.923 49.684 110.293 49.62 109.632 49.62C108.245 49.62 106.976 49.972 105.824 50.676C104.693 51.3587 103.787 52.2867 103.104 53.46C102.443 54.612 102.112 55.892 102.112 57.3C102.112 58.6867 102.443 59.9667 103.104 61.14C103.787 62.3133 104.693 63.252 105.824 63.956C106.976 64.6387 108.245 64.98 109.632 64.98C110.272 64.98 110.976 64.916 111.744 64.788C112.512 64.66 113.141 64.4893 113.632 64.276L113.344 65.236V59.764L113.888 60.244H110.336C109.781 60.244 109.312 60.0627 108.928 59.7C108.565 59.3373 108.384 58.8787 108.384 58.324C108.384 57.7693 108.565 57.3107 108.928 56.948C109.312 56.5853 109.781 56.404 110.336 56.404H115.584C116.139 56.404 116.597 56.596 116.96 56.98C117.323 57.3427 117.504 57.8013 117.504 58.356V65.14C117.504 65.5667 117.397 65.9187 117.184 66.196C116.992 66.4733 116.768 66.6973 116.512 66.868C115.531 67.4653 114.453 67.9453 113.28 68.308C112.128 68.6493 110.912 68.82 109.632 68.82ZM129.577 51.124L122.665 67.38C122.516 67.7853 122.281 68.1053 121.961 68.34C121.662 68.5533 121.332 68.66 120.969 68.66C120.393 68.66 119.966 68.5 119.689 68.18C119.412 67.86 119.273 67.4653 119.273 66.996C119.273 66.804 119.305 66.6013 119.369 66.388L127.337 47.252C127.508 46.8253 127.764 46.4947 128.105 46.26C128.468 46.0253 128.852 45.9293 129.257 45.972C129.641 45.972 129.993 46.0893 130.313 46.324C130.654 46.5373 130.9 46.8467 131.049 47.252L138.921 66.004C139.028 66.2813 139.081 66.5373 139.081 66.772C139.081 67.348 138.889 67.8067 138.505 68.148C138.142 68.4893 137.737 68.66 137.289 68.66C136.905 68.66 136.553 68.5427 136.233 68.308C135.934 68.0733 135.7 67.7533 135.529 67.348L128.649 51.316L129.577 51.124ZM123.657 63.476L125.417 59.796H134.057L134.665 63.476H123.657ZM143.807 46.068C144.105 46.068 144.415 46.1533 144.735 46.324C145.076 46.4733 145.332 46.676 145.503 46.932L153.279 58.9L151.679 58.836L159.647 46.932C160.052 46.356 160.575 46.068 161.215 46.068C161.727 46.068 162.185 46.2493 162.591 46.612C162.996 46.9747 163.199 47.444 163.199 48.02V66.548C163.199 67.1027 163.017 67.572 162.655 67.956C162.292 68.3187 161.812 68.5 161.215 68.5C160.617 68.5 160.127 68.3187 159.743 67.956C159.38 67.572 159.199 67.1027 159.199 66.548V51.476L160.447 51.764L153.919 61.716C153.727 61.9507 153.481 62.1533 153.183 62.324C152.905 62.4947 152.617 62.5693 152.319 62.548C152.041 62.5693 151.753 62.4947 151.455 62.324C151.177 62.1533 150.943 61.9507 150.751 61.716L144.639 52.052L145.471 50.356V66.548C145.471 67.1027 145.3 67.572 144.959 67.956C144.617 68.3187 144.169 68.5 143.615 68.5C143.081 68.5 142.644 68.3187 142.303 67.956C141.961 67.572 141.791 67.1027 141.791 66.548V48.02C141.791 47.4867 141.983 47.028 142.367 46.644C142.772 46.26 143.252 46.068 143.807 46.068ZM169.961 46.1H180.681C181.236 46.1 181.695 46.2813 182.057 46.644C182.441 46.9853 182.633 47.4333 182.633 47.988C182.633 48.5213 182.441 48.9587 182.057 49.3C181.695 49.62 181.236 49.78 180.681 49.78H171.721L172.009 49.236V55.476L171.753 55.22H179.241C179.796 55.22 180.255 55.4013 180.617 55.764C181.001 56.1053 181.193 56.5533 181.193 57.108C181.193 57.6413 181.001 58.0787 180.617 58.42C180.255 58.74 179.796 58.9 179.241 58.9H171.849L172.009 58.644V65.108L171.753 64.82H180.681C181.236 64.82 181.695 65.012 182.057 65.396C182.441 65.7587 182.633 66.1853 182.633 66.676C182.633 67.2093 182.441 67.6467 182.057 67.988C181.695 68.3293 181.236 68.5 180.681 68.5H169.961C169.407 68.5 168.937 68.3187 168.553 67.956C168.191 67.572 168.009 67.1027 168.009 66.548V48.052C168.009 47.4973 168.191 47.0387 168.553 46.676C168.937 46.292 169.407 46.1 169.961 46.1ZM215.899 57.3C215.899 58.9 215.632 60.3933 215.099 61.78C214.565 63.1667 213.808 64.3933 212.827 65.46C211.867 66.5053 210.715 67.3267 209.371 67.924C208.048 68.5213 206.597 68.82 205.019 68.82C203.44 68.82 201.989 68.5213 200.667 67.924C199.344 67.3267 198.192 66.5053 197.211 65.46C196.251 64.3933 195.504 63.1667 194.971 61.78C194.437 60.3933 194.171 58.9 194.171 57.3C194.171 55.7 194.437 54.2067 194.971 52.82C195.504 51.4333 196.251 50.2173 197.211 49.172C198.192 48.1053 199.344 47.2733 200.667 46.676C201.989 46.0787 203.44 45.78 205.019 45.78C206.597 45.78 208.048 46.0787 209.371 46.676C210.715 47.2733 211.867 48.1053 212.827 49.172C213.808 50.2173 214.565 51.4333 215.099 52.82C215.632 54.2067 215.899 55.7 215.899 57.3ZM211.739 57.3C211.739 55.8707 211.451 54.58 210.875 53.428C210.299 52.2547 209.509 51.3267 208.507 50.644C207.504 49.9613 206.341 49.62 205.019 49.62C203.696 49.62 202.533 49.9613 201.531 50.644C200.528 51.3267 199.739 52.244 199.163 53.396C198.608 54.548 198.331 55.8493 198.331 57.3C198.331 58.7293 198.608 60.0307 199.163 61.204C199.739 62.356 200.528 63.2733 201.531 63.956C202.533 64.6387 203.696 64.98 205.019 64.98C206.341 64.98 207.504 64.6387 208.507 63.956C209.509 63.2733 210.299 62.356 210.875 61.204C211.451 60.0307 211.739 58.7293 211.739 57.3ZM235.58 46.036C236.113 46.036 236.572 46.2173 236.956 46.58C237.361 46.9213 237.564 47.3587 237.564 47.892C237.564 48.1693 237.5 48.4573 237.372 48.756L229.468 67.252C229.276 67.6787 228.999 67.9987 228.636 68.212C228.295 68.404 227.943 68.5 227.58 68.5C227.239 68.4787 226.908 68.372 226.588 68.18C226.268 67.9667 226.023 67.668 225.852 67.284L217.948 48.724C217.884 48.596 217.841 48.468 217.82 48.34C217.799 48.1907 217.788 48.052 217.788 47.924C217.788 47.3053 218.012 46.836 218.46 46.516C218.908 46.1747 219.335 46.004 219.74 46.004C220.551 46.004 221.137 46.42 221.5 47.252L228.508 63.732L227.388 63.764L233.82 47.252C234.183 46.4413 234.769 46.036 235.58 46.036ZM242.868 46.1H253.588C254.142 46.1 254.601 46.2813 254.964 46.644C255.348 46.9853 255.54 47.4333 255.54 47.988C255.54 48.5213 255.348 48.9587 254.964 49.3C254.601 49.62 254.142 49.78 253.588 49.78H244.628L244.916 49.236V55.476L244.66 55.22H252.148C252.702 55.22 253.161 55.4013 253.524 55.764C253.908 56.1053 254.1 56.5533 254.1 57.108C254.1 57.6413 253.908 58.0787 253.524 58.42C253.161 58.74 252.702 58.9 252.148 58.9H244.756L244.916 58.644V65.108L244.66 64.82H253.588C254.142 64.82 254.601 65.012 254.964 65.396C255.348 65.7587 255.54 66.1853 255.54 66.676C255.54 67.2093 255.348 67.6467 254.964 67.988C254.601 68.3293 254.142 68.5 253.588 68.5H242.868C242.313 68.5 241.844 68.3187 241.46 67.956C241.097 67.572 240.916 67.1027 240.916 66.548V48.052C240.916 47.4973 241.097 47.0387 241.46 46.676C241.844 46.292 242.313 46.1 242.868 46.1ZM261.532 68.5C260.935 68.5 260.401 68.3187 259.932 67.956C259.463 67.572 259.228 67.1027 259.228 66.548V48.052C259.228 47.4973 259.409 47.0387 259.772 46.676C260.156 46.292 260.625 46.1 261.18 46.1H270.396C271.505 46.1 272.54 46.3987 273.5 46.996C274.481 47.572 275.271 48.3827 275.868 49.428C276.465 50.452 276.764 51.636 276.764 52.98C276.764 53.7907 276.593 54.58 276.252 55.348C275.932 56.116 275.484 56.8093 274.908 57.428C274.353 58.0467 273.724 58.5267 273.02 58.868L273.052 58.132C273.649 58.452 274.14 58.836 274.524 59.284C274.929 59.7107 275.239 60.18 275.452 60.692C275.687 61.1827 275.825 61.716 275.868 62.292C275.953 62.8253 276.007 63.2947 276.028 63.7C276.071 64.1053 276.135 64.4467 276.22 64.724C276.327 65.0013 276.519 65.2147 276.796 65.364C277.265 65.6413 277.553 66.0467 277.66 66.58C277.788 67.092 277.671 67.5507 277.308 67.956C277.073 68.2333 276.775 68.4147 276.412 68.5C276.049 68.564 275.687 68.564 275.324 68.5C274.961 68.4147 274.663 68.308 274.428 68.18C274.065 67.9667 273.703 67.6573 273.34 67.252C272.977 66.8253 272.679 66.26 272.444 65.556C272.231 64.852 272.124 63.9453 272.124 62.836C272.124 62.4733 272.06 62.1427 271.932 61.844C271.804 61.524 271.623 61.2573 271.388 61.044C271.153 60.8093 270.855 60.6387 270.492 60.532C270.129 60.404 269.703 60.34 269.212 60.34H262.748L263.228 59.604V66.548C263.228 67.1027 263.079 67.572 262.78 67.956C262.481 68.3187 262.065 68.5 261.532 68.5ZM262.78 57.044H270.236C270.62 57.044 270.993 56.8733 271.356 56.532C271.719 56.1693 272.017 55.6893 272.252 55.092C272.487 54.4733 272.604 53.8013 272.604 53.076C272.604 52.1373 272.348 51.3587 271.836 50.74C271.345 50.1 270.812 49.78 270.236 49.78H262.844L263.228 48.756V57.812L262.78 57.044ZM283.085 61.428C282.36 61.428 281.965 61.0227 281.901 60.212L280.973 48.436C280.93 47.7747 281.101 47.22 281.485 46.772C281.89 46.324 282.413 46.1 283.053 46.1C283.693 46.1 284.216 46.324 284.621 46.772C285.026 47.22 285.197 47.7747 285.133 48.436L284.237 60.212C284.173 61.0227 283.789 61.428 283.085 61.428ZM282.861 68.5C282.242 68.5 281.762 68.34 281.421 68.02C281.101 67.6787 280.941 67.1987 280.941 66.58V66.036C280.941 65.4173 281.101 64.948 281.421 64.628C281.762 64.2867 282.242 64.116 282.861 64.116H283.277C283.896 64.116 284.365 64.2867 284.685 64.628C285.026 64.948 285.197 65.4173 285.197 66.036V66.58C285.197 67.1987 285.026 67.6787 284.685 68.02C284.365 68.34 283.896 68.5 283.277 68.5H282.861Z" fill="#EA1644"/>
<path d="M125.29 105.658C125.505 105.658 125.696 105.742 125.864 105.91C126.041 106.069 126.13 106.274 126.13 106.526C126.13 106.61 126.116 106.699 126.088 106.792C126.069 106.876 126.032 106.96 125.976 107.044L122.798 111.594L123.05 110.628V114.646C123.05 114.889 122.966 115.094 122.798 115.262C122.639 115.421 122.453 115.5 122.238 115.5C122.005 115.5 121.804 115.421 121.636 115.262C121.477 115.094 121.398 114.889 121.398 114.646V110.74L121.51 111.188L118.486 107.17C118.393 107.049 118.327 106.932 118.29 106.82C118.253 106.708 118.234 106.605 118.234 106.512C118.234 106.26 118.332 106.055 118.528 105.896C118.724 105.737 118.925 105.658 119.13 105.658C119.391 105.658 119.62 105.789 119.816 106.05L122.504 109.76L122.112 109.704L124.59 106.078C124.786 105.798 125.019 105.658 125.29 105.658ZM133.938 111.762C133.938 112.527 133.765 113.204 133.42 113.792C133.084 114.371 132.626 114.823 132.048 115.15C131.478 115.477 130.839 115.64 130.13 115.64C129.42 115.64 128.776 115.477 128.198 115.15C127.628 114.823 127.171 114.371 126.826 113.792C126.49 113.204 126.322 112.527 126.322 111.762C126.322 110.997 126.49 110.325 126.826 109.746C127.171 109.158 127.628 108.701 128.198 108.374C128.776 108.038 129.42 107.87 130.13 107.87C130.839 107.87 131.478 108.038 132.048 108.374C132.626 108.701 133.084 109.158 133.42 109.746C133.765 110.325 133.938 110.997 133.938 111.762ZM132.258 111.762C132.258 111.286 132.16 110.875 131.964 110.53C131.777 110.175 131.52 109.9 131.194 109.704C130.876 109.508 130.522 109.41 130.13 109.41C129.738 109.41 129.378 109.508 129.052 109.704C128.734 109.9 128.478 110.175 128.282 110.53C128.095 110.875 128.002 111.286 128.002 111.762C128.002 112.229 128.095 112.639 128.282 112.994C128.478 113.339 128.734 113.61 129.052 113.806C129.378 114.002 129.738 114.1 130.13 114.1C130.522 114.1 130.876 114.002 131.194 113.806C131.52 113.61 131.777 113.339 131.964 112.994C132.16 112.639 132.258 112.229 132.258 111.762ZM140.966 108.01C141.209 108.01 141.409 108.094 141.568 108.262C141.727 108.421 141.806 108.621 141.806 108.864V112.42C141.806 113.409 141.531 114.193 140.98 114.772C140.429 115.351 139.636 115.64 138.6 115.64C137.564 115.64 136.771 115.351 136.22 114.772C135.679 114.193 135.408 113.409 135.408 112.42V108.864C135.408 108.621 135.487 108.421 135.646 108.262C135.805 108.094 136.005 108.01 136.248 108.01C136.491 108.01 136.691 108.094 136.85 108.262C137.009 108.421 137.088 108.621 137.088 108.864V112.42C137.088 112.989 137.214 113.414 137.466 113.694C137.718 113.965 138.096 114.1 138.6 114.1C139.113 114.1 139.496 113.965 139.748 113.694C140 113.414 140.126 112.989 140.126 112.42V108.864C140.126 108.621 140.205 108.421 140.364 108.262C140.523 108.094 140.723 108.01 140.966 108.01ZM147.115 114.338C147.021 114.207 146.979 114.039 146.989 113.834C146.998 113.629 147.119 113.451 147.353 113.302C147.502 113.209 147.661 113.171 147.829 113.19C147.997 113.199 148.16 113.283 148.319 113.442C148.589 113.713 148.874 113.923 149.173 114.072C149.471 114.221 149.845 114.296 150.293 114.296C150.433 114.287 150.587 114.268 150.755 114.24C150.923 114.203 151.067 114.128 151.189 114.016C151.319 113.895 151.385 113.713 151.385 113.47C151.385 113.265 151.315 113.101 151.175 112.98C151.035 112.859 150.848 112.756 150.615 112.672C150.391 112.588 150.139 112.509 149.859 112.434C149.569 112.35 149.271 112.257 148.963 112.154C148.664 112.051 148.389 111.921 148.137 111.762C147.885 111.594 147.679 111.375 147.521 111.104C147.362 110.833 147.283 110.493 147.283 110.082C147.283 109.615 147.413 109.219 147.675 108.892C147.936 108.565 148.272 108.313 148.683 108.136C149.103 107.959 149.541 107.87 149.999 107.87C150.288 107.87 150.591 107.907 150.909 107.982C151.226 108.047 151.529 108.159 151.819 108.318C152.108 108.467 152.351 108.668 152.547 108.92C152.649 109.06 152.71 109.228 152.729 109.424C152.747 109.62 152.659 109.797 152.463 109.956C152.323 110.068 152.159 110.119 151.973 110.11C151.786 110.091 151.632 110.026 151.511 109.914C151.352 109.709 151.137 109.545 150.867 109.424C150.605 109.303 150.302 109.242 149.957 109.242C149.817 109.242 149.663 109.261 149.495 109.298C149.336 109.326 149.196 109.396 149.075 109.508C148.953 109.611 148.893 109.779 148.893 110.012C148.893 110.227 148.963 110.399 149.103 110.53C149.243 110.651 149.429 110.754 149.663 110.838C149.905 110.913 150.162 110.987 150.433 111.062C150.713 111.137 150.997 111.225 151.287 111.328C151.576 111.431 151.842 111.566 152.085 111.734C152.327 111.902 152.523 112.121 152.673 112.392C152.822 112.653 152.897 112.989 152.897 113.4C152.897 113.876 152.757 114.282 152.477 114.618C152.197 114.954 151.847 115.211 151.427 115.388C151.007 115.556 150.577 115.64 150.139 115.64C149.588 115.64 149.037 115.547 148.487 115.36C147.936 115.164 147.479 114.823 147.115 114.338ZM159.861 108.01C160.103 108.01 160.304 108.094 160.463 108.262C160.621 108.421 160.701 108.621 160.701 108.864V112.42C160.701 113.409 160.425 114.193 159.875 114.772C159.324 115.351 158.531 115.64 157.495 115.64C156.459 115.64 155.665 115.351 155.115 114.772C154.573 114.193 154.303 113.409 154.303 112.42V108.864C154.303 108.621 154.382 108.421 154.541 108.262C154.699 108.094 154.9 108.01 155.143 108.01C155.385 108.01 155.586 108.094 155.745 108.262C155.903 108.421 155.983 108.621 155.983 108.864V112.42C155.983 112.989 156.109 113.414 156.361 113.694C156.613 113.965 156.991 114.1 157.495 114.1C158.008 114.1 158.391 113.965 158.643 113.694C158.895 113.414 159.021 112.989 159.021 112.42V108.864C159.021 108.621 159.1 108.421 159.259 108.262C159.417 108.094 159.618 108.01 159.861 108.01ZM163.359 115.5C163.117 115.5 162.916 115.421 162.757 115.262C162.599 115.094 162.519 114.889 162.519 114.646V108.864C162.519 108.621 162.599 108.421 162.757 108.262C162.916 108.094 163.117 108.01 163.359 108.01C163.602 108.01 163.803 108.094 163.961 108.262C164.12 108.421 164.199 108.621 164.199 108.864V110.18L164.101 109.242C164.204 109.018 164.335 108.822 164.493 108.654C164.661 108.477 164.848 108.332 165.053 108.22C165.259 108.099 165.478 108.01 165.711 107.954C165.945 107.898 166.178 107.87 166.411 107.87C166.691 107.87 166.925 107.949 167.111 108.108C167.307 108.267 167.405 108.453 167.405 108.668C167.405 108.976 167.326 109.2 167.167 109.34C167.009 109.471 166.836 109.536 166.649 109.536C166.472 109.536 166.309 109.503 166.159 109.438C166.019 109.373 165.856 109.34 165.669 109.34C165.501 109.34 165.329 109.382 165.151 109.466C164.983 109.541 164.825 109.662 164.675 109.83C164.535 109.998 164.419 110.208 164.325 110.46C164.241 110.703 164.199 110.992 164.199 111.328V114.646C164.199 114.889 164.12 115.094 163.961 115.262C163.803 115.421 163.602 115.5 163.359 115.5ZM169.623 108.01C169.8 108.01 169.964 108.057 170.113 108.15C170.262 108.234 170.374 108.365 170.449 108.542L172.507 113.246L172.199 113.386L174.299 108.556C174.458 108.183 174.705 108.005 175.041 108.024C175.274 108.024 175.461 108.099 175.601 108.248C175.75 108.388 175.825 108.565 175.825 108.78C175.825 108.845 175.811 108.915 175.783 108.99C175.764 109.065 175.741 109.135 175.713 109.2L173.095 114.968C172.946 115.304 172.708 115.481 172.381 115.5C172.204 115.528 172.031 115.495 171.863 115.402C171.704 115.309 171.583 115.164 171.499 114.968L168.895 109.2C168.876 109.153 168.853 109.093 168.825 109.018C168.806 108.943 168.797 108.855 168.797 108.752C168.797 108.584 168.872 108.421 169.021 108.262C169.17 108.094 169.371 108.01 169.623 108.01ZM178.73 114.646C178.73 114.889 178.651 115.094 178.492 115.262C178.334 115.421 178.133 115.5 177.89 115.5C177.648 115.5 177.447 115.421 177.288 115.262C177.13 115.094 177.05 114.889 177.05 114.646V108.864C177.05 108.621 177.13 108.421 177.288 108.262C177.447 108.094 177.648 108.01 177.89 108.01C178.133 108.01 178.334 108.094 178.492 108.262C178.651 108.421 178.73 108.621 178.73 108.864V114.646ZM177.876 107.1C177.559 107.1 177.335 107.049 177.204 106.946C177.074 106.843 177.008 106.661 177.008 106.4V106.134C177.008 105.863 177.078 105.681 177.218 105.588C177.368 105.485 177.592 105.434 177.89 105.434C178.217 105.434 178.446 105.485 178.576 105.588C178.707 105.691 178.772 105.873 178.772 106.134V106.4C178.772 106.671 178.702 106.857 178.562 106.96C178.422 107.053 178.194 107.1 177.876 107.1ZM180.793 108.01C180.97 108.01 181.134 108.057 181.283 108.15C181.432 108.234 181.544 108.365 181.619 108.542L183.677 113.246L183.369 113.386L185.469 108.556C185.628 108.183 185.875 108.005 186.211 108.024C186.444 108.024 186.631 108.099 186.771 108.248C186.92 108.388 186.995 108.565 186.995 108.78C186.995 108.845 186.981 108.915 186.953 108.99C186.934 109.065 186.911 109.135 186.883 109.2L184.265 114.968C184.116 115.304 183.878 115.481 183.551 115.5C183.374 115.528 183.201 115.495 183.033 115.402C182.874 115.309 182.753 115.164 182.669 114.968L180.065 109.2C180.046 109.153 180.023 109.093 179.995 109.018C179.976 108.943 179.967 108.855 179.967 108.752C179.967 108.584 180.042 108.421 180.191 108.262C180.34 108.094 180.541 108.01 180.793 108.01ZM191.778 115.64C190.985 115.64 190.294 115.477 189.706 115.15C189.127 114.814 188.679 114.361 188.362 113.792C188.054 113.223 187.9 112.579 187.9 111.86C187.9 111.02 188.068 110.306 188.404 109.718C188.749 109.121 189.197 108.663 189.748 108.346C190.299 108.029 190.882 107.87 191.498 107.87C191.974 107.87 192.422 107.968 192.842 108.164C193.271 108.36 193.649 108.631 193.976 108.976C194.303 109.312 194.559 109.704 194.746 110.152C194.942 110.6 195.04 111.076 195.04 111.58C195.031 111.804 194.942 111.986 194.774 112.126C194.606 112.266 194.41 112.336 194.186 112.336H188.838L188.418 110.936H193.556L193.248 111.216V110.838C193.229 110.567 193.131 110.325 192.954 110.11C192.786 109.895 192.571 109.727 192.31 109.606C192.058 109.475 191.787 109.41 191.498 109.41C191.218 109.41 190.957 109.447 190.714 109.522C190.471 109.597 190.261 109.723 190.084 109.9C189.907 110.077 189.767 110.315 189.664 110.614C189.561 110.913 189.51 111.291 189.51 111.748C189.51 112.252 189.613 112.681 189.818 113.036C190.033 113.381 190.303 113.647 190.63 113.834C190.966 114.011 191.321 114.1 191.694 114.1C192.039 114.1 192.315 114.072 192.52 114.016C192.725 113.96 192.889 113.895 193.01 113.82C193.141 113.736 193.257 113.666 193.36 113.61C193.528 113.526 193.687 113.484 193.836 113.484C194.041 113.484 194.209 113.554 194.34 113.694C194.48 113.834 194.55 113.997 194.55 114.184C194.55 114.436 194.419 114.665 194.158 114.87C193.915 115.075 193.575 115.257 193.136 115.416C192.697 115.565 192.245 115.64 191.778 115.64ZM202.64 105.14C202.882 105.14 203.083 105.219 203.242 105.378C203.4 105.537 203.48 105.742 203.48 105.994V114.646C203.48 114.889 203.4 115.094 203.242 115.262C203.083 115.421 202.882 115.5 202.64 115.5C202.397 115.5 202.196 115.421 202.038 115.262C201.879 115.094 201.8 114.889 201.8 114.646V113.96L202.108 114.086C202.108 114.207 202.042 114.357 201.912 114.534C201.781 114.702 201.604 114.87 201.38 115.038C201.156 115.206 200.89 115.351 200.582 115.472C200.283 115.584 199.956 115.64 199.602 115.64C198.958 115.64 198.374 115.477 197.852 115.15C197.329 114.814 196.914 114.357 196.606 113.778C196.307 113.19 196.158 112.518 196.158 111.762C196.158 110.997 196.307 110.325 196.606 109.746C196.914 109.158 197.324 108.701 197.838 108.374C198.351 108.038 198.92 107.87 199.546 107.87C199.947 107.87 200.316 107.931 200.652 108.052C200.988 108.173 201.277 108.327 201.52 108.514C201.772 108.701 201.963 108.892 202.094 109.088C202.234 109.275 202.304 109.433 202.304 109.564L201.8 109.746V105.994C201.8 105.751 201.879 105.551 202.038 105.392C202.196 105.224 202.397 105.14 202.64 105.14ZM199.812 114.1C200.222 114.1 200.582 113.997 200.89 113.792C201.198 113.587 201.436 113.307 201.604 112.952C201.781 112.597 201.87 112.201 201.87 111.762C201.87 111.314 201.781 110.913 201.604 110.558C201.436 110.203 201.198 109.923 200.89 109.718C200.582 109.513 200.222 109.41 199.812 109.41C199.41 109.41 199.056 109.513 198.748 109.718C198.44 109.923 198.197 110.203 198.02 110.558C197.852 110.913 197.768 111.314 197.768 111.762C197.768 112.201 197.852 112.597 198.02 112.952C198.197 113.307 198.44 113.587 198.748 113.792C199.056 113.997 199.41 114.1 199.812 114.1ZM159.055 133.64C158.402 133.64 157.814 133.561 157.291 133.402C156.769 133.234 156.269 132.945 155.793 132.534C155.672 132.431 155.579 132.315 155.513 132.184C155.448 132.053 155.415 131.923 155.415 131.792C155.415 131.577 155.49 131.391 155.639 131.232C155.798 131.064 155.994 130.98 156.227 130.98C156.405 130.98 156.563 131.036 156.703 131.148C157.058 131.437 157.408 131.657 157.753 131.806C158.108 131.955 158.542 132.03 159.055 132.03C159.401 132.03 159.718 131.979 160.007 131.876C160.297 131.764 160.53 131.619 160.707 131.442C160.885 131.255 160.973 131.045 160.973 130.812C160.973 130.532 160.889 130.294 160.721 130.098C160.553 129.902 160.297 129.739 159.951 129.608C159.606 129.468 159.167 129.361 158.635 129.286C158.131 129.211 157.688 129.099 157.305 128.95C156.923 128.791 156.601 128.595 156.339 128.362C156.087 128.119 155.896 127.839 155.765 127.522C155.635 127.195 155.569 126.831 155.569 126.43C155.569 125.823 155.723 125.305 156.031 124.876C156.349 124.447 156.773 124.12 157.305 123.896C157.837 123.672 158.425 123.56 159.069 123.56C159.676 123.56 160.236 123.653 160.749 123.84C161.272 124.017 161.697 124.246 162.023 124.526C162.294 124.741 162.429 124.988 162.429 125.268C162.429 125.473 162.35 125.66 162.191 125.828C162.033 125.996 161.846 126.08 161.631 126.08C161.491 126.08 161.365 126.038 161.253 125.954C161.104 125.823 160.903 125.702 160.651 125.59C160.399 125.469 160.133 125.371 159.853 125.296C159.573 125.212 159.312 125.17 159.069 125.17C158.668 125.17 158.327 125.221 158.047 125.324C157.777 125.427 157.571 125.567 157.431 125.744C157.291 125.921 157.221 126.127 157.221 126.36C157.221 126.64 157.301 126.873 157.459 127.06C157.627 127.237 157.865 127.382 158.173 127.494C158.481 127.597 158.85 127.69 159.279 127.774C159.839 127.877 160.329 127.998 160.749 128.138C161.179 128.278 161.533 128.46 161.813 128.684C162.093 128.899 162.303 129.174 162.443 129.51C162.583 129.837 162.653 130.238 162.653 130.714C162.653 131.321 162.485 131.843 162.149 132.282C161.813 132.721 161.37 133.057 160.819 133.29C160.278 133.523 159.69 133.64 159.055 133.64ZM167.451 125.87C167.983 125.87 168.445 125.926 168.837 126.038C169.238 126.15 169.546 126.309 169.761 126.514C169.985 126.71 170.097 126.948 170.097 127.228C170.097 127.415 170.041 127.592 169.929 127.76C169.817 127.919 169.654 127.998 169.439 127.998C169.29 127.998 169.164 127.979 169.061 127.942C168.968 127.895 168.884 127.839 168.809 127.774C168.734 127.709 168.646 127.648 168.543 127.592C168.45 127.536 168.305 127.494 168.109 127.466C167.922 127.429 167.782 127.41 167.689 127.41C167.213 127.41 166.807 127.513 166.471 127.718C166.144 127.923 165.892 128.203 165.715 128.558C165.538 128.903 165.449 129.305 165.449 129.762C165.449 130.21 165.538 130.611 165.715 130.966C165.902 131.311 166.154 131.587 166.471 131.792C166.798 131.997 167.171 132.1 167.591 132.1C167.824 132.1 168.025 132.086 168.193 132.058C168.361 132.03 168.501 131.988 168.613 131.932C168.744 131.857 168.86 131.778 168.963 131.694C169.066 131.61 169.22 131.568 169.425 131.568C169.668 131.568 169.854 131.647 169.985 131.806C170.116 131.955 170.181 132.142 170.181 132.366C170.181 132.599 170.05 132.814 169.789 133.01C169.528 133.197 169.182 133.351 168.753 133.472C168.333 133.584 167.876 133.64 167.381 133.64C166.644 133.64 166.004 133.472 165.463 133.136C164.922 132.791 164.502 132.324 164.203 131.736C163.914 131.148 163.769 130.49 163.769 129.762C163.769 128.997 163.923 128.325 164.231 127.746C164.548 127.158 164.982 126.701 165.533 126.374C166.093 126.038 166.732 125.87 167.451 125.87ZM178.658 129.762C178.658 130.527 178.486 131.204 178.14 131.792C177.804 132.371 177.347 132.823 176.768 133.15C176.199 133.477 175.56 133.64 174.85 133.64C174.141 133.64 173.497 133.477 172.918 133.15C172.349 132.823 171.892 132.371 171.546 131.792C171.21 131.204 171.042 130.527 171.042 129.762C171.042 128.997 171.21 128.325 171.546 127.746C171.892 127.158 172.349 126.701 172.918 126.374C173.497 126.038 174.141 125.87 174.85 125.87C175.56 125.87 176.199 126.038 176.768 126.374C177.347 126.701 177.804 127.158 178.14 127.746C178.486 128.325 178.658 128.997 178.658 129.762ZM176.978 129.762C176.978 129.286 176.88 128.875 176.684 128.53C176.498 128.175 176.241 127.9 175.914 127.704C175.597 127.508 175.242 127.41 174.85 127.41C174.458 127.41 174.099 127.508 173.772 127.704C173.455 127.9 173.198 128.175 173.002 128.53C172.816 128.875 172.722 129.286 172.722 129.762C172.722 130.229 172.816 130.639 173.002 130.994C173.198 131.339 173.455 131.61 173.772 131.806C174.099 132.002 174.458 132.1 174.85 132.1C175.242 132.1 175.597 132.002 175.914 131.806C176.241 131.61 176.498 131.339 176.684 130.994C176.88 130.639 176.978 130.229 176.978 129.762ZM180.969 133.5C180.726 133.5 180.525 133.421 180.367 133.262C180.208 133.094 180.129 132.889 180.129 132.646V126.864C180.129 126.621 180.208 126.421 180.367 126.262C180.525 126.094 180.726 126.01 180.969 126.01C181.211 126.01 181.412 126.094 181.571 126.262C181.729 126.421 181.809 126.621 181.809 126.864V128.18L181.711 127.242C181.813 127.018 181.944 126.822 182.103 126.654C182.271 126.477 182.457 126.332 182.663 126.22C182.868 126.099 183.087 126.01 183.321 125.954C183.554 125.898 183.787 125.87 184.021 125.87C184.301 125.87 184.534 125.949 184.721 126.108C184.917 126.267 185.015 126.453 185.015 126.668C185.015 126.976 184.935 127.2 184.777 127.34C184.618 127.471 184.445 127.536 184.259 127.536C184.081 127.536 183.918 127.503 183.769 127.438C183.629 127.373 183.465 127.34 183.279 127.34C183.111 127.34 182.938 127.382 182.761 127.466C182.593 127.541 182.434 127.662 182.285 127.83C182.145 127.998 182.028 128.208 181.935 128.46C181.851 128.703 181.809 128.992 181.809 129.328V132.646C181.809 132.889 181.729 133.094 181.571 133.262C181.412 133.421 181.211 133.5 180.969 133.5ZM189.413 133.64C188.619 133.64 187.929 133.477 187.341 133.15C186.762 132.814 186.314 132.361 185.997 131.792C185.689 131.223 185.535 130.579 185.535 129.86C185.535 129.02 185.703 128.306 186.039 127.718C186.384 127.121 186.832 126.663 187.383 126.346C187.933 126.029 188.517 125.87 189.133 125.87C189.609 125.87 190.057 125.968 190.477 126.164C190.906 126.36 191.284 126.631 191.611 126.976C191.937 127.312 192.194 127.704 192.381 128.152C192.577 128.6 192.675 129.076 192.675 129.58C192.665 129.804 192.577 129.986 192.409 130.126C192.241 130.266 192.045 130.336 191.821 130.336H186.473L186.053 128.936H191.191L190.883 129.216V128.838C190.864 128.567 190.766 128.325 190.589 128.11C190.421 127.895 190.206 127.727 189.945 127.606C189.693 127.475 189.422 127.41 189.133 127.41C188.853 127.41 188.591 127.447 188.349 127.522C188.106 127.597 187.896 127.723 187.719 127.9C187.541 128.077 187.401 128.315 187.299 128.614C187.196 128.913 187.145 129.291 187.145 129.748C187.145 130.252 187.247 130.681 187.453 131.036C187.667 131.381 187.938 131.647 188.265 131.834C188.601 132.011 188.955 132.1 189.329 132.1C189.674 132.1 189.949 132.072 190.155 132.016C190.36 131.96 190.523 131.895 190.645 131.82C190.775 131.736 190.892 131.666 190.995 131.61C191.163 131.526 191.321 131.484 191.471 131.484C191.676 131.484 191.844 131.554 191.975 131.694C192.115 131.834 192.185 131.997 192.185 132.184C192.185 132.436 192.054 132.665 191.793 132.87C191.55 133.075 191.209 133.257 190.771 133.416C190.332 133.565 189.879 133.64 189.413 133.64ZM195.052 128.026C194.782 128.026 194.572 127.956 194.422 127.816C194.282 127.667 194.212 127.457 194.212 127.186V126.948C194.212 126.677 194.282 126.472 194.422 126.332C194.572 126.183 194.782 126.108 195.052 126.108H195.234C195.505 126.108 195.71 126.183 195.85 126.332C196 126.472 196.074 126.677 196.074 126.948V127.186C196.074 127.457 196 127.667 195.85 127.816C195.71 127.956 195.505 128.026 195.234 128.026H195.052ZM195.052 133.5C194.782 133.5 194.572 133.43 194.422 133.29C194.282 133.141 194.212 132.931 194.212 132.66V132.422C194.212 132.151 194.282 131.946 194.422 131.806C194.572 131.657 194.782 131.582 195.052 131.582H195.234C195.505 131.582 195.71 131.657 195.85 131.806C196 131.946 196.074 132.151 196.074 132.422V132.66C196.074 132.931 196 133.141 195.85 133.29C195.71 133.43 195.505 133.5 195.234 133.5H195.052Z" fill="#473025"/>
<path d="M209.881 113.526C209.965 113.526 210.053 113.54 210.147 113.568C210.249 113.596 210.361 113.652 210.483 113.736C210.641 113.857 210.828 113.965 211.043 114.058C211.267 114.151 211.523 114.198 211.812 114.198C212.102 114.198 212.373 114.128 212.625 113.988C212.886 113.839 213.101 113.633 213.269 113.372C213.437 113.101 213.521 112.779 213.521 112.406C213.521 112.051 213.446 111.757 213.297 111.524C213.157 111.291 212.965 111.113 212.723 110.992C212.489 110.871 212.237 110.81 211.967 110.81C211.761 110.81 211.589 110.829 211.449 110.866C211.318 110.903 211.187 110.945 211.057 110.992C210.935 111.029 210.791 111.048 210.623 111.048C210.408 111.048 210.24 110.973 210.119 110.824C210.007 110.675 209.951 110.497 209.951 110.292C209.951 110.161 209.974 110.045 210.021 109.942C210.077 109.839 210.156 109.727 210.259 109.606L212.723 106.988L213.101 107.31H209.657C209.433 107.31 209.246 107.235 209.097 107.086C208.947 106.937 208.873 106.75 208.873 106.526C208.873 106.311 208.947 106.134 209.097 105.994C209.246 105.845 209.433 105.77 209.657 105.77H213.941C214.23 105.77 214.445 105.849 214.585 106.008C214.734 106.167 214.809 106.367 214.809 106.61C214.809 106.731 214.776 106.853 214.711 106.974C214.645 107.086 214.566 107.189 214.473 107.282L211.995 109.942L211.617 109.466C211.719 109.419 211.859 109.377 212.037 109.34C212.223 109.303 212.377 109.284 212.499 109.284C213.049 109.284 213.525 109.429 213.927 109.718C214.337 109.998 214.65 110.367 214.865 110.824C215.089 111.272 215.201 111.757 215.201 112.28C215.201 112.971 215.047 113.568 214.739 114.072C214.431 114.576 213.997 114.963 213.437 115.234C212.877 115.505 212.223 115.64 211.477 115.64C211.131 115.64 210.791 115.598 210.455 115.514C210.119 115.43 209.829 115.318 209.587 115.178C209.381 115.066 209.241 114.945 209.167 114.814C209.101 114.674 209.069 114.543 209.069 114.422C209.069 114.207 209.143 114.007 209.293 113.82C209.451 113.624 209.647 113.526 209.881 113.526ZM231.824 105.658C232.039 105.658 232.244 105.742 232.44 105.91C232.636 106.069 232.734 106.288 232.734 106.568C232.734 106.652 232.72 106.745 232.692 106.848L229.934 114.968C229.878 115.136 229.775 115.267 229.626 115.36C229.486 115.444 229.337 115.491 229.178 115.5C229.019 115.5 228.861 115.453 228.702 115.36C228.553 115.267 228.436 115.131 228.352 114.954L226.28 110.25L226.406 110.334L224.362 114.954C224.278 115.131 224.157 115.267 223.998 115.36C223.849 115.453 223.695 115.5 223.536 115.5C223.387 115.491 223.237 115.444 223.088 115.36C222.939 115.267 222.836 115.136 222.78 114.968L220.022 106.848C219.994 106.745 219.98 106.652 219.98 106.568C219.98 106.288 220.078 106.069 220.274 105.91C220.479 105.742 220.689 105.658 220.904 105.658C221.081 105.658 221.245 105.705 221.394 105.798C221.553 105.891 221.66 106.027 221.716 106.204L223.942 112.952L223.634 112.938L225.622 108.164C225.697 107.996 225.804 107.865 225.944 107.772C226.084 107.669 226.243 107.623 226.42 107.632C226.597 107.623 226.756 107.669 226.896 107.772C227.036 107.865 227.139 107.996 227.204 108.164L229.024 112.728L228.8 112.868L230.998 106.204C231.054 106.027 231.161 105.891 231.32 105.798C231.479 105.705 231.647 105.658 231.824 105.658ZM239.882 107.87C240.125 107.87 240.325 107.949 240.484 108.108C240.643 108.267 240.722 108.472 240.722 108.724V114.646C240.722 114.889 240.643 115.094 240.484 115.262C240.325 115.421 240.125 115.5 239.882 115.5C239.639 115.5 239.439 115.421 239.28 115.262C239.121 115.094 239.042 114.889 239.042 114.646V113.96L239.35 114.086C239.35 114.207 239.285 114.357 239.154 114.534C239.023 114.702 238.846 114.87 238.622 115.038C238.398 115.206 238.132 115.351 237.824 115.472C237.525 115.584 237.199 115.64 236.844 115.64C236.2 115.64 235.617 115.477 235.094 115.15C234.571 114.814 234.156 114.357 233.848 113.778C233.549 113.19 233.4 112.518 233.4 111.762C233.4 110.997 233.549 110.325 233.848 109.746C234.156 109.158 234.567 108.701 235.08 108.374C235.593 108.038 236.163 107.87 236.788 107.87C237.189 107.87 237.558 107.931 237.894 108.052C238.23 108.173 238.519 108.327 238.762 108.514C239.014 108.701 239.205 108.892 239.336 109.088C239.476 109.275 239.546 109.433 239.546 109.564L239.042 109.746V108.724C239.042 108.481 239.121 108.281 239.28 108.122C239.439 107.954 239.639 107.87 239.882 107.87ZM237.054 114.1C237.465 114.1 237.824 113.997 238.132 113.792C238.44 113.587 238.678 113.307 238.846 112.952C239.023 112.597 239.112 112.201 239.112 111.762C239.112 111.314 239.023 110.913 238.846 110.558C238.678 110.203 238.44 109.923 238.132 109.718C237.824 109.513 237.465 109.41 237.054 109.41C236.653 109.41 236.298 109.513 235.99 109.718C235.682 109.923 235.439 110.203 235.262 110.558C235.094 110.913 235.01 111.314 235.01 111.762C235.01 112.201 235.094 112.597 235.262 112.952C235.439 113.307 235.682 113.587 235.99 113.792C236.298 113.997 236.653 114.1 237.054 114.1ZM242.713 108.01C242.89 108.01 243.053 108.057 243.203 108.15C243.352 108.234 243.464 108.365 243.539 108.542L245.597 113.246L245.289 113.386L247.389 108.556C247.547 108.183 247.795 108.005 248.131 108.024C248.364 108.024 248.551 108.099 248.691 108.248C248.84 108.388 248.915 108.565 248.915 108.78C248.915 108.845 248.901 108.915 248.873 108.99C248.854 109.065 248.831 109.135 248.803 109.2L246.185 114.968C246.035 115.304 245.797 115.481 245.471 115.5C245.293 115.528 245.121 115.495 244.953 115.402C244.794 115.309 244.673 115.164 244.589 114.968L241.985 109.2C241.966 109.153 241.943 109.093 241.915 109.018C241.896 108.943 241.887 108.855 241.887 108.752C241.887 108.584 241.961 108.421 242.111 108.262C242.26 108.094 242.461 108.01 242.713 108.01ZM253.698 115.64C252.904 115.64 252.214 115.477 251.626 115.15C251.047 114.814 250.599 114.361 250.282 113.792C249.974 113.223 249.82 112.579 249.82 111.86C249.82 111.02 249.988 110.306 250.324 109.718C250.669 109.121 251.117 108.663 251.668 108.346C252.218 108.029 252.802 107.87 253.418 107.87C253.894 107.87 254.342 107.968 254.762 108.164C255.191 108.36 255.569 108.631 255.896 108.976C256.222 109.312 256.479 109.704 256.666 110.152C256.862 110.6 256.96 111.076 256.96 111.58C256.95 111.804 256.862 111.986 256.694 112.126C256.526 112.266 256.33 112.336 256.106 112.336H250.758L250.338 110.936H255.476L255.168 111.216V110.838C255.149 110.567 255.051 110.325 254.874 110.11C254.706 109.895 254.491 109.727 254.23 109.606C253.978 109.475 253.707 109.41 253.418 109.41C253.138 109.41 252.876 109.447 252.634 109.522C252.391 109.597 252.181 109.723 252.004 109.9C251.826 110.077 251.686 110.315 251.584 110.614C251.481 110.913 251.43 111.291 251.43 111.748C251.43 112.252 251.532 112.681 251.738 113.036C251.952 113.381 252.223 113.647 252.55 113.834C252.886 114.011 253.24 114.1 253.614 114.1C253.959 114.1 254.234 114.072 254.44 114.016C254.645 113.96 254.808 113.895 254.93 113.82C255.06 113.736 255.177 113.666 255.28 113.61C255.448 113.526 255.606 113.484 255.756 113.484C255.961 113.484 256.129 113.554 256.26 113.694C256.4 113.834 256.47 113.997 256.47 114.184C256.47 114.436 256.339 114.665 256.078 114.87C255.835 115.075 255.494 115.257 255.056 115.416C254.617 115.565 254.164 115.64 253.698 115.64ZM257.994 114.338C257.9 114.207 257.858 114.039 257.868 113.834C257.877 113.629 257.998 113.451 258.232 113.302C258.381 113.209 258.54 113.171 258.708 113.19C258.876 113.199 259.039 113.283 259.198 113.442C259.468 113.713 259.753 113.923 260.052 114.072C260.35 114.221 260.724 114.296 261.172 114.296C261.312 114.287 261.466 114.268 261.634 114.24C261.802 114.203 261.946 114.128 262.068 114.016C262.198 113.895 262.264 113.713 262.264 113.47C262.264 113.265 262.194 113.101 262.054 112.98C261.914 112.859 261.727 112.756 261.494 112.672C261.27 112.588 261.018 112.509 260.738 112.434C260.448 112.35 260.15 112.257 259.842 112.154C259.543 112.051 259.268 111.921 259.016 111.762C258.764 111.594 258.558 111.375 258.4 111.104C258.241 110.833 258.162 110.493 258.162 110.082C258.162 109.615 258.292 109.219 258.554 108.892C258.815 108.565 259.151 108.313 259.562 108.136C259.982 107.959 260.42 107.87 260.878 107.87C261.167 107.87 261.47 107.907 261.788 107.982C262.105 108.047 262.408 108.159 262.698 108.318C262.987 108.467 263.23 108.668 263.426 108.92C263.528 109.06 263.589 109.228 263.608 109.424C263.626 109.62 263.538 109.797 263.342 109.956C263.202 110.068 263.038 110.119 262.852 110.11C262.665 110.091 262.511 110.026 262.39 109.914C262.231 109.709 262.016 109.545 261.746 109.424C261.484 109.303 261.181 109.242 260.836 109.242C260.696 109.242 260.542 109.261 260.374 109.298C260.215 109.326 260.075 109.396 259.954 109.508C259.832 109.611 259.772 109.779 259.772 110.012C259.772 110.227 259.842 110.399 259.982 110.53C260.122 110.651 260.308 110.754 260.542 110.838C260.784 110.913 261.041 110.987 261.312 111.062C261.592 111.137 261.876 111.225 262.166 111.328C262.455 111.431 262.721 111.566 262.964 111.734C263.206 111.902 263.402 112.121 263.552 112.392C263.701 112.653 263.776 112.989 263.776 113.4C263.776 113.876 263.636 114.282 263.356 114.618C263.076 114.954 262.726 115.211 262.306 115.388C261.886 115.556 261.456 115.64 261.018 115.64C260.467 115.64 259.916 115.547 259.366 115.36C258.815 115.164 258.358 114.823 257.994 114.338ZM266.147 112.406C265.83 112.406 265.657 112.229 265.629 111.874L265.223 106.722C265.205 106.433 265.279 106.19 265.447 105.994C265.625 105.798 265.853 105.7 266.133 105.7C266.413 105.7 266.642 105.798 266.819 105.994C266.997 106.19 267.071 106.433 267.043 106.722L266.651 111.874C266.623 112.229 266.455 112.406 266.147 112.406ZM266.049 115.5C265.779 115.5 265.569 115.43 265.419 115.29C265.279 115.141 265.209 114.931 265.209 114.66V114.422C265.209 114.151 265.279 113.946 265.419 113.806C265.569 113.657 265.779 113.582 266.049 113.582H266.231C266.502 113.582 266.707 113.657 266.847 113.806C266.997 113.946 267.071 114.151 267.071 114.422V114.66C267.071 114.931 266.997 115.141 266.847 115.29C266.707 115.43 266.502 115.5 266.231 115.5H266.049Z" fill="#E96C12"/>
<path d="M204.316 133.5C204.055 133.5 203.84 133.421 203.672 133.262C203.504 133.094 203.42 132.889 203.42 132.646V125.59L203.616 125.898L202.594 126.654C202.464 126.757 202.3 126.808 202.104 126.808C201.88 126.808 201.684 126.724 201.516 126.556C201.348 126.388 201.264 126.187 201.264 125.954C201.264 125.655 201.409 125.413 201.698 125.226L203.714 123.882C203.808 123.817 203.91 123.77 204.022 123.742C204.144 123.714 204.256 123.7 204.358 123.7C204.629 123.7 204.844 123.784 205.002 123.952C205.161 124.111 205.24 124.311 205.24 124.554V132.646C205.24 132.889 205.152 133.094 204.974 133.262C204.806 133.421 204.587 133.5 204.316 133.5ZM207.994 131.526C208.078 131.526 208.166 131.54 208.26 131.568C208.362 131.596 208.474 131.652 208.596 131.736C208.754 131.857 208.941 131.965 209.156 132.058C209.38 132.151 209.636 132.198 209.926 132.198C210.215 132.198 210.486 132.128 210.738 131.988C210.999 131.839 211.214 131.633 211.382 131.372C211.55 131.101 211.634 130.779 211.634 130.406C211.634 130.051 211.559 129.757 211.41 129.524C211.27 129.291 211.078 129.113 210.836 128.992C210.602 128.871 210.35 128.81 210.08 128.81C209.874 128.81 209.702 128.829 209.562 128.866C209.431 128.903 209.3 128.945 209.17 128.992C209.048 129.029 208.904 129.048 208.736 129.048C208.521 129.048 208.353 128.973 208.232 128.824C208.12 128.675 208.064 128.497 208.064 128.292C208.064 128.161 208.087 128.045 208.134 127.942C208.19 127.839 208.269 127.727 208.372 127.606L210.836 124.988L211.214 125.31H207.77C207.546 125.31 207.359 125.235 207.21 125.086C207.06 124.937 206.986 124.75 206.986 124.526C206.986 124.311 207.06 124.134 207.21 123.994C207.359 123.845 207.546 123.77 207.77 123.77H212.054C212.343 123.77 212.558 123.849 212.698 124.008C212.847 124.167 212.922 124.367 212.922 124.61C212.922 124.731 212.889 124.853 212.824 124.974C212.758 125.086 212.679 125.189 212.586 125.282L210.108 127.942L209.73 127.466C209.832 127.419 209.972 127.377 210.15 127.34C210.336 127.303 210.49 127.284 210.612 127.284C211.162 127.284 211.638 127.429 212.04 127.718C212.45 127.998 212.763 128.367 212.978 128.824C213.202 129.272 213.314 129.757 213.314 130.28C213.314 130.971 213.16 131.568 212.852 132.072C212.544 132.576 212.11 132.963 211.55 133.234C210.99 133.505 210.336 133.64 209.59 133.64C209.244 133.64 208.904 133.598 208.568 133.514C208.232 133.43 207.942 133.318 207.7 133.178C207.494 133.066 207.354 132.945 207.28 132.814C207.214 132.674 207.182 132.543 207.182 132.422C207.182 132.207 207.256 132.007 207.406 131.82C207.564 131.624 207.76 131.526 207.994 131.526ZM218.243 133.64C217.441 133.64 216.759 133.43 216.199 133.01C215.649 132.581 215.229 131.988 214.939 131.232C214.65 130.467 214.505 129.589 214.505 128.6C214.505 127.601 214.65 126.724 214.939 125.968C215.229 125.212 215.649 124.624 216.199 124.204C216.759 123.775 217.441 123.56 218.243 123.56C219.046 123.56 219.723 123.775 220.273 124.204C220.833 124.624 221.258 125.212 221.547 125.968C221.837 126.724 221.981 127.601 221.981 128.6C221.981 129.589 221.837 130.467 221.547 131.232C221.258 131.988 220.833 132.581 220.273 133.01C219.723 133.43 219.046 133.64 218.243 133.64ZM218.243 131.96C218.635 131.96 218.971 131.839 219.251 131.596C219.541 131.344 219.765 130.971 219.923 130.476C220.082 129.972 220.161 129.347 220.161 128.6C220.161 127.844 220.082 127.219 219.923 126.724C219.765 126.229 219.541 125.861 219.251 125.618C218.971 125.366 218.635 125.24 218.243 125.24C217.861 125.24 217.525 125.366 217.235 125.618C216.946 125.861 216.722 126.229 216.563 126.724C216.405 127.219 216.325 127.844 216.325 128.6C216.325 129.347 216.405 129.972 216.563 130.476C216.722 130.971 216.946 131.344 217.235 131.596C217.525 131.839 217.861 131.96 218.243 131.96ZM226.843 133.64C226.04 133.64 225.359 133.43 224.799 133.01C224.248 132.581 223.828 131.988 223.539 131.232C223.25 130.467 223.105 129.589 223.105 128.6C223.105 127.601 223.25 126.724 223.539 125.968C223.828 125.212 224.248 124.624 224.799 124.204C225.359 123.775 226.04 123.56 226.843 123.56C227.646 123.56 228.322 123.775 228.873 124.204C229.433 124.624 229.858 125.212 230.147 125.968C230.436 126.724 230.581 127.601 230.581 128.6C230.581 129.589 230.436 130.467 230.147 131.232C229.858 131.988 229.433 132.581 228.873 133.01C228.322 133.43 227.646 133.64 226.843 133.64ZM226.843 131.96C227.235 131.96 227.571 131.839 227.851 131.596C228.14 131.344 228.364 130.971 228.523 130.476C228.682 129.972 228.761 129.347 228.761 128.6C228.761 127.844 228.682 127.219 228.523 126.724C228.364 126.229 228.14 125.861 227.851 125.618C227.571 125.366 227.235 125.24 226.843 125.24C226.46 125.24 226.124 125.366 225.835 125.618C225.546 125.861 225.322 126.229 225.163 126.724C225.004 127.219 224.925 127.844 224.925 128.6C224.925 129.347 225.004 129.972 225.163 130.476C225.322 130.971 225.546 131.344 225.835 131.596C226.124 131.839 226.46 131.96 226.843 131.96Z" fill="#89A60C"/>
<g filter="url(#filter0_d_959_1373)">
<rect x="93.5" y="162.5" width="199" height="40" rx="11.8421" fill="#95B607"/>
<rect x="92.3158" y="161.316" width="201.368" height="42.3684" rx="13.0263" stroke="#006029" stroke-width="2.36842"/>
</g>
<path d="M154.402 177.3C154.957 177.3 155.474 177.46 155.954 177.78C156.445 178.1 156.839 178.532 157.138 179.076C157.437 179.62 157.586 180.228 157.586 180.9C157.586 181.561 157.437 182.164 157.138 182.708C156.839 183.252 156.445 183.689 155.954 184.02C155.474 184.34 154.957 184.5 154.402 184.5H151.458L151.618 184.212V187.524C151.618 187.801 151.533 188.036 151.362 188.228C151.191 188.409 150.967 188.5 150.69 188.5C150.423 188.5 150.205 188.409 150.034 188.228C149.863 188.036 149.778 187.801 149.778 187.524V178.276C149.778 177.999 149.869 177.769 150.05 177.588C150.242 177.396 150.477 177.3 150.754 177.3H154.402ZM154.402 182.676C154.605 182.676 154.802 182.591 154.994 182.42C155.186 182.249 155.346 182.031 155.474 181.764C155.602 181.487 155.666 181.199 155.666 180.9C155.666 180.591 155.602 180.303 155.474 180.036C155.346 179.769 155.186 179.556 154.994 179.396C154.802 179.225 154.605 179.14 154.402 179.14H151.426L151.618 178.852V182.932L151.442 182.676H154.402ZM165.595 186.628C165.872 186.628 166.101 186.719 166.283 186.9C166.475 187.071 166.571 187.295 166.571 187.572C166.571 187.839 166.475 188.063 166.283 188.244C166.101 188.415 165.872 188.5 165.595 188.5H160.395C160.117 188.5 159.883 188.409 159.691 188.228C159.509 188.036 159.419 187.801 159.419 187.524V178.276C159.419 177.999 159.515 177.769 159.707 177.588C159.899 177.396 160.144 177.3 160.443 177.3C160.699 177.3 160.923 177.396 161.115 177.588C161.317 177.769 161.419 177.999 161.419 178.276V186.9L161.067 186.628H165.595ZM172.515 179.812L169.059 187.94C168.984 188.143 168.867 188.303 168.707 188.42C168.558 188.527 168.392 188.58 168.211 188.58C167.923 188.58 167.71 188.5 167.571 188.34C167.432 188.18 167.363 187.983 167.363 187.748C167.363 187.652 167.379 187.551 167.411 187.444L171.395 177.876C171.48 177.663 171.608 177.497 171.779 177.38C171.96 177.263 172.152 177.215 172.355 177.236C172.547 177.236 172.723 177.295 172.883 177.412C173.054 177.519 173.176 177.673 173.251 177.876L177.187 187.252C177.24 187.391 177.267 187.519 177.267 187.636C177.267 187.924 177.171 188.153 176.979 188.324C176.798 188.495 176.595 188.58 176.371 188.58C176.179 188.58 176.003 188.521 175.843 188.404C175.694 188.287 175.576 188.127 175.491 187.924L172.051 179.908L172.515 179.812ZM169.555 185.988L170.435 184.148H174.755L175.059 185.988H169.555ZM185.07 177.252C185.316 177.252 185.534 177.348 185.726 177.54C185.929 177.721 186.03 177.956 186.03 178.244C186.03 178.34 186.014 178.441 185.982 178.548C185.961 178.644 185.918 178.74 185.854 178.836L182.222 184.036L182.51 182.932V187.524C182.51 187.801 182.414 188.036 182.222 188.228C182.041 188.409 181.828 188.5 181.582 188.5C181.316 188.5 181.086 188.409 180.894 188.228C180.713 188.036 180.622 187.801 180.622 187.524V183.06L180.75 183.572L177.294 178.98C177.188 178.841 177.113 178.708 177.07 178.58C177.028 178.452 177.006 178.335 177.006 178.228C177.006 177.94 177.118 177.705 177.342 177.524C177.566 177.343 177.796 177.252 178.03 177.252C178.329 177.252 178.59 177.401 178.814 177.7L181.886 181.94L181.438 181.876L184.27 177.732C184.494 177.412 184.761 177.252 185.07 177.252ZM196.062 179.812L192.606 187.94C192.531 188.143 192.414 188.303 192.254 188.42C192.105 188.527 191.939 188.58 191.758 188.58C191.47 188.58 191.257 188.5 191.118 188.34C190.979 188.18 190.91 187.983 190.91 187.748C190.91 187.652 190.926 187.551 190.958 187.444L194.942 177.876C195.027 177.663 195.155 177.497 195.326 177.38C195.507 177.263 195.699 177.215 195.902 177.236C196.094 177.236 196.27 177.295 196.43 177.412C196.601 177.519 196.723 177.673 196.798 177.876L200.734 187.252C200.787 187.391 200.814 187.519 200.814 187.636C200.814 187.924 200.718 188.153 200.526 188.324C200.345 188.495 200.142 188.58 199.918 188.58C199.726 188.58 199.55 188.521 199.39 188.404C199.241 188.287 199.123 188.127 199.038 187.924L195.598 179.908L196.062 179.812ZM193.102 185.988L193.982 184.148H198.302L198.606 185.988H193.102ZM207.371 188.66C206.56 188.66 205.803 188.511 205.099 188.212C204.395 187.913 203.776 187.503 203.243 186.98C202.709 186.447 202.288 185.833 201.979 185.14C201.68 184.447 201.531 183.7 201.531 182.9C201.531 182.1 201.68 181.353 201.979 180.66C202.288 179.967 202.709 179.359 203.243 178.836C203.776 178.303 204.395 177.887 205.099 177.588C205.803 177.289 206.56 177.14 207.371 177.14C207.872 177.14 208.357 177.193 208.827 177.3C209.296 177.407 209.728 177.567 210.123 177.78C210.283 177.865 210.4 177.983 210.475 178.132C210.56 178.271 210.603 178.415 210.603 178.564C210.603 178.82 210.517 179.049 210.347 179.252C210.176 179.455 209.957 179.556 209.691 179.556C209.605 179.556 209.515 179.545 209.419 179.524C209.333 179.503 209.248 179.471 209.163 179.428C208.896 179.311 208.613 179.22 208.315 179.156C208.016 179.092 207.701 179.06 207.371 179.06C206.677 179.06 206.043 179.236 205.467 179.588C204.901 179.929 204.448 180.393 204.107 180.98C203.776 181.556 203.611 182.196 203.611 182.9C203.611 183.593 203.776 184.233 204.107 184.82C204.448 185.407 204.901 185.876 205.467 186.228C206.043 186.569 206.677 186.74 207.371 186.74C207.691 186.74 208.043 186.708 208.427 186.644C208.811 186.58 209.125 186.495 209.371 186.388L209.227 186.868V184.132L209.499 184.372H207.723C207.445 184.372 207.211 184.281 207.019 184.1C206.837 183.919 206.747 183.689 206.747 183.412C206.747 183.135 206.837 182.905 207.019 182.724C207.211 182.543 207.445 182.452 207.723 182.452H210.347C210.624 182.452 210.853 182.548 211.035 182.74C211.216 182.921 211.307 183.151 211.307 183.428V186.82C211.307 187.033 211.253 187.209 211.147 187.348C211.051 187.487 210.939 187.599 210.811 187.684C210.32 187.983 209.781 188.223 209.195 188.404C208.619 188.575 208.011 188.66 207.371 188.66ZM217.343 179.812L213.887 187.94C213.813 188.143 213.695 188.303 213.535 188.42C213.386 188.527 213.221 188.58 213.039 188.58C212.751 188.58 212.538 188.5 212.399 188.34C212.261 188.18 212.191 187.983 212.191 187.748C212.191 187.652 212.207 187.551 212.239 187.444L216.223 177.876C216.309 177.663 216.437 177.497 216.607 177.38C216.789 177.263 216.981 177.215 217.183 177.236C217.375 177.236 217.551 177.295 217.711 177.412C217.882 177.519 218.005 177.673 218.079 177.876L222.015 187.252C222.069 187.391 222.095 187.519 222.095 187.636C222.095 187.924 221.999 188.153 221.807 188.324C221.626 188.495 221.423 188.58 221.199 188.58C221.007 188.58 220.831 188.521 220.671 188.404C220.522 188.287 220.405 188.127 220.319 187.924L216.879 179.908L217.343 179.812ZM214.383 185.988L215.263 184.148H219.583L219.887 185.988H214.383ZM225.45 187.524C225.45 187.801 225.349 188.036 225.146 188.228C224.943 188.409 224.709 188.5 224.442 188.5C224.143 188.5 223.903 188.409 223.722 188.228C223.541 188.036 223.45 187.801 223.45 187.524V178.276C223.45 177.999 223.546 177.769 223.738 177.588C223.93 177.396 224.175 177.3 224.474 177.3C224.73 177.3 224.954 177.396 225.146 177.588C225.349 177.769 225.45 177.999 225.45 178.276V187.524ZM236.352 177.3C236.608 177.3 236.816 177.385 236.976 177.556C237.136 177.727 237.216 177.94 237.216 178.196V187.524C237.216 187.801 237.12 188.036 236.928 188.228C236.747 188.409 236.518 188.5 236.24 188.5C236.102 188.5 235.958 188.479 235.808 188.436C235.67 188.383 235.563 188.313 235.488 188.228L229.2 180.244L229.616 179.988V187.604C229.616 187.86 229.531 188.073 229.36 188.244C229.2 188.415 228.987 188.5 228.72 188.5C228.464 188.5 228.256 188.415 228.096 188.244C227.936 188.073 227.856 187.86 227.856 187.604V178.276C227.856 177.999 227.947 177.769 228.128 177.588C228.32 177.396 228.555 177.3 228.832 177.3C228.982 177.3 229.136 177.332 229.296 177.396C229.456 177.449 229.574 177.535 229.648 177.652L235.744 185.428L235.472 185.62V178.196C235.472 177.94 235.552 177.727 235.712 177.556C235.872 177.385 236.086 177.3 236.352 177.3Z" fill="white"/>
<defs>
<filter id="filter0_d_959_1373" x="91.1313" y="160.131" width="203.737" height="47.8952" filterUnits="userSpaceOnUse" color-interpolation-filters="sRGB">
<feFlood flood-opacity="0" result="BackgroundImageFix"/>
<feColorMatrix in="SourceAlpha" type="matrix" values="0 0 0 0 0 0 0 0 0 0 0 0 0 0 0 0 0 0 127 0" result="hardAlpha"/>
<feOffset dy="3.15789"/>
<feComposite in2="hardAlpha" operator="out"/>
<feColorMatrix type="matrix" values="0 0 0 0 0 0 0 0 0 0.376471 0 0 0 0 0.160784 0 0 0 1 0"/>
<feBlend mode="normal" in2="BackgroundImageFix" result="effect1_dropShadow_959_1373"/>
<feBlend mode="normal" in="SourceGraphic" in2="effect1_dropShadow_959_1373" result="shape"/>
</filter>
</defs>
</svg>
