<svg width="75" height="30" viewBox="0 0 75 30" fill="none" xmlns="http://www.w3.org/2000/svg">
<g filter="url(#filter0_d_959_1308)">
<rect x="1" y="1" width="73" height="25" rx="5" fill="#FFF1DA"/>
<rect x="1" y="1" width="73" height="25" rx="5" stroke="#671737" stroke-width="2"/>
</g>
<path d="M19.9258 17.1C19.4591 17.1 19.0391 17.0433 18.6658 16.93C18.2924 16.81 17.9358 16.6033 17.5958 16.31C17.5091 16.2367 17.4424 16.1533 17.3958 16.06C17.3491 15.9667 17.3258 15.8733 17.3258 15.78C17.3258 15.6267 17.3791 15.4933 17.4858 15.38C17.5991 15.26 17.7391 15.2 17.9058 15.2C18.0324 15.2 18.1458 15.24 18.2458 15.32C18.4991 15.5267 18.7491 15.6833 18.9958 15.79C19.2491 15.8967 19.5591 15.95 19.9258 15.95C20.1724 15.95 20.3991 15.9133 20.6058 15.84C20.8124 15.76 20.9791 15.6567 21.1058 15.53C21.2324 15.3967 21.2958 15.2467 21.2958 15.08C21.2958 14.88 21.2358 14.71 21.1158 14.57C20.9958 14.43 20.8124 14.3133 20.5658 14.22C20.3191 14.12 20.0058 14.0433 19.6258 13.99C19.2658 13.9367 18.9491 13.8567 18.6758 13.75C18.4024 13.6367 18.1724 13.4967 17.9858 13.33C17.8058 13.1567 17.6691 12.9567 17.5758 12.73C17.4824 12.4967 17.4358 12.2367 17.4358 11.95C17.4358 11.5167 17.5458 11.1467 17.7658 10.84C17.9924 10.5333 18.2958 10.3 18.6758 10.14C19.0558 9.98 19.4758 9.9 19.9358 9.9C20.3691 9.9 20.7691 9.96667 21.1358 10.1C21.5091 10.2267 21.8124 10.39 22.0458 10.59C22.2391 10.7433 22.3358 10.92 22.3358 11.12C22.3358 11.2667 22.2791 11.4 22.1658 11.52C22.0524 11.64 21.9191 11.7 21.7658 11.7C21.6658 11.7 21.5758 11.67 21.4958 11.61C21.3891 11.5167 21.2458 11.43 21.0658 11.35C20.8858 11.2633 20.6958 11.1933 20.4958 11.14C20.2958 11.08 20.1091 11.05 19.9358 11.05C19.6491 11.05 19.4058 11.0867 19.2058 11.16C19.0124 11.2333 18.8658 11.3333 18.7658 11.46C18.6658 11.5867 18.6158 11.7333 18.6158 11.9C18.6158 12.1 18.6724 12.2667 18.7858 12.4C18.9058 12.5267 19.0758 12.63 19.2958 12.71C19.5158 12.7833 19.7791 12.85 20.0858 12.91C20.4858 12.9833 20.8358 13.07 21.1358 13.17C21.4424 13.27 21.6958 13.4 21.8958 13.56C22.0958 13.7133 22.2458 13.91 22.3458 14.15C22.4458 14.3833 22.4958 14.67 22.4958 15.01C22.4958 15.4433 22.3758 15.8167 22.1358 16.13C21.8958 16.4433 21.5791 16.6833 21.1858 16.85C20.7991 17.0167 20.3791 17.1 19.9258 17.1ZM26.5326 10C26.8792 10 27.2026 10.1 27.5026 10.3C27.8092 10.5 28.0559 10.77 28.2426 11.11C28.4292 11.45 28.5226 11.83 28.5226 12.25C28.5226 12.6633 28.4292 13.04 28.2426 13.38C28.0559 13.72 27.8092 13.9933 27.5026 14.2C27.2026 14.4 26.8792 14.5 26.5326 14.5H24.6926L24.7926 14.32V16.39C24.7926 16.5633 24.7392 16.71 24.6326 16.83C24.5259 16.9433 24.3859 17 24.2126 17C24.0459 17 23.9092 16.9433 23.8026 16.83C23.6959 16.71 23.6426 16.5633 23.6426 16.39V10.61C23.6426 10.4367 23.6992 10.2933 23.8126 10.18C23.9326 10.06 24.0792 10 24.2526 10H26.5326ZM26.5326 13.36C26.6592 13.36 26.7826 13.3067 26.9026 13.2C27.0226 13.0933 27.1226 12.9567 27.2026 12.79C27.2826 12.6167 27.3226 12.4367 27.3226 12.25C27.3226 12.0567 27.2826 11.8767 27.2026 11.71C27.1226 11.5433 27.0226 11.41 26.9026 11.31C26.7826 11.2033 26.6592 11.15 26.5326 11.15H24.6726L24.7926 10.97V13.52L24.6826 13.36H26.5326ZM30.278 10H33.628C33.8013 10 33.9446 10.0567 34.058 10.17C34.178 10.2767 34.238 10.4167 34.238 10.59C34.238 10.7567 34.178 10.8933 34.058 11C33.9446 11.1 33.8013 11.15 33.628 11.15H30.828L30.918 10.98V12.93L30.838 12.85H33.178C33.3513 12.85 33.4946 12.9067 33.608 13.02C33.728 13.1267 33.788 13.2667 33.788 13.44C33.788 13.6067 33.728 13.7433 33.608 13.85C33.4946 13.95 33.3513 14 33.178 14H30.868L30.918 13.92V15.94L30.838 15.85H33.628C33.8013 15.85 33.9446 15.91 34.058 16.03C34.178 16.1433 34.238 16.2767 34.238 16.43C34.238 16.5967 34.178 16.7333 34.058 16.84C33.9446 16.9467 33.8013 17 33.628 17H30.278C30.1046 17 29.958 16.9433 29.838 16.83C29.7246 16.71 29.668 16.5633 29.668 16.39V10.61C29.668 10.4367 29.7246 10.2933 29.838 10.18C29.958 10.06 30.1046 10 30.278 10ZM36.0006 10H39.3506C39.524 10 39.6673 10.0567 39.7806 10.17C39.9006 10.2767 39.9606 10.4167 39.9606 10.59C39.9606 10.7567 39.9006 10.8933 39.7806 11C39.6673 11.1 39.524 11.15 39.3506 11.15H36.5506L36.6406 10.98V12.93L36.5606 12.85H38.9006C39.074 12.85 39.2173 12.9067 39.3306 13.02C39.4506 13.1267 39.5106 13.2667 39.5106 13.44C39.5106 13.6067 39.4506 13.7433 39.3306 13.85C39.2173 13.95 39.074 14 38.9006 14H36.5906L36.6406 13.92V15.94L36.5606 15.85H39.3506C39.524 15.85 39.6673 15.91 39.7806 16.03C39.9006 16.1433 39.9606 16.2767 39.9606 16.43C39.9606 16.5967 39.9006 16.7333 39.7806 16.84C39.6673 16.9467 39.524 17 39.3506 17H36.0006C35.8273 17 35.6806 16.9433 35.5606 16.83C35.4473 16.71 35.3906 16.5633 35.3906 16.39V10.61C35.3906 10.4367 35.4473 10.2933 35.5606 10.18C35.6806 10.06 35.8273 10 36.0006 10ZM44.1133 10C44.5933 10 45.0199 10.09 45.3933 10.27C45.7666 10.45 46.0799 10.7033 46.3333 11.03C46.5933 11.35 46.7866 11.7233 46.9133 12.15C47.0466 12.57 47.1133 13.02 47.1133 13.5C47.1133 14.1467 46.9966 14.7367 46.7633 15.27C46.5299 15.7967 46.1899 16.2167 45.7433 16.53C45.3033 16.8433 44.7599 17 44.1133 17H41.7233C41.5499 17 41.4033 16.9433 41.2833 16.83C41.1699 16.71 41.1133 16.5633 41.1133 16.39V10.61C41.1133 10.4367 41.1699 10.2933 41.2833 10.18C41.4033 10.06 41.5499 10 41.7233 10H44.1133ZM44.0133 15.85C44.4333 15.85 44.7766 15.7433 45.0433 15.53C45.3099 15.31 45.5033 15.0233 45.6233 14.67C45.7499 14.31 45.8133 13.92 45.8133 13.5C45.8133 13.1867 45.7766 12.89 45.7033 12.61C45.6366 12.3233 45.5299 12.0733 45.3833 11.86C45.2366 11.64 45.0499 11.4667 44.8233 11.34C44.5966 11.2133 44.3266 11.15 44.0133 11.15H42.2633L42.3633 11.06V15.96L42.3033 15.85H44.0133ZM51.0745 11.65C51.2678 11.65 51.4311 11.7333 51.5645 11.9L54.9045 16.05C54.9911 16.1567 55.0345 16.2767 55.0345 16.41C55.0345 16.5767 54.9711 16.72 54.8445 16.84C54.7178 16.96 54.5778 17.02 54.4245 17.02C54.2311 17.02 54.0678 16.9333 53.9345 16.76L50.5945 12.61C50.5078 12.5033 50.4645 12.3833 50.4645 12.25C50.4645 12.0767 50.5245 11.9333 50.6445 11.82C50.7711 11.7067 50.9145 11.65 51.0745 11.65ZM51.0845 17.01C50.9511 17.01 50.8178 16.96 50.6845 16.86C50.5578 16.7533 50.4945 16.6267 50.4945 16.48C50.4945 16.3467 50.5445 16.22 50.6445 16.1L52.1745 14.23L52.7745 15.23L51.5645 16.76C51.4378 16.9267 51.2778 17.01 51.0845 17.01ZM54.4145 11.65C54.5745 11.65 54.7078 11.7067 54.8145 11.82C54.9278 11.9267 54.9845 12.05 54.9845 12.19C54.9845 12.2567 54.9745 12.3233 54.9545 12.39C54.9345 12.4567 54.8978 12.52 54.8445 12.58L53.3345 14.42L52.7045 13.55L53.9345 11.92C54.0678 11.74 54.2278 11.65 54.4145 11.65ZM57.5675 17C57.3808 17 57.2275 16.9433 57.1075 16.83C56.9875 16.71 56.9275 16.5633 56.9275 16.39V11.35L57.0675 11.57L56.3375 12.11C56.2442 12.1833 56.1275 12.22 55.9875 12.22C55.8275 12.22 55.6875 12.16 55.5675 12.04C55.4475 11.92 55.3875 11.7767 55.3875 11.61C55.3875 11.3967 55.4908 11.2233 55.6975 11.09L57.1375 10.13C57.2042 10.0833 57.2775 10.05 57.3575 10.03C57.4442 10.01 57.5242 10 57.5975 10C57.7908 10 57.9442 10.06 58.0575 10.18C58.1708 10.2933 58.2275 10.4367 58.2275 10.61V16.39C58.2275 16.5633 58.1642 16.71 58.0375 16.83C57.9175 16.9433 57.7608 17 57.5675 17Z" fill="#EA1644"/>
<defs>
<filter id="filter0_d_959_1308" x="0" y="0" width="75" height="30" filterUnits="userSpaceOnUse" color-interpolation-filters="sRGB">
<feFlood flood-opacity="0" result="BackgroundImageFix"/>
<feColorMatrix in="SourceAlpha" type="matrix" values="0 0 0 0 0 0 0 0 0 0 0 0 0 0 0 0 0 0 127 0" result="hardAlpha"/>
<feOffset dy="3"/>
<feComposite in2="hardAlpha" operator="out"/>
<feColorMatrix type="matrix" values="0 0 0 0 0.404316 0 0 0 0 0.0899019 0 0 0 0 0.215667 0 0 0 1 0"/>
<feBlend mode="normal" in2="BackgroundImageFix" result="effect1_dropShadow_959_1308"/>
<feBlend mode="normal" in="SourceGraphic" in2="effect1_dropShadow_959_1308" result="shape"/>
</filter>
</defs>
</svg>
