<svg width="75" height="39" viewBox="0 0 75 39" fill="none" xmlns="http://www.w3.org/2000/svg">
<g filter="url(#filter0_d_959_1198)">
<rect x="1" y="1" width="73" height="34" rx="5" fill="#FFF1DA"/>
<rect x="1" y="1" width="73" height="34" rx="5" stroke="#671737" stroke-width="2"/>
</g>
<path d="M11 16.1C10.5333 16.1 10.1133 16.0433 9.74 15.93C9.36667 15.81 9.01 15.6033 8.67 15.31C8.58333 15.2367 8.51667 15.1533 8.47 15.06C8.42333 14.9667 8.4 14.8733 8.4 14.78C8.4 14.6267 8.45333 14.4933 8.56 14.38C8.67333 14.26 8.81333 14.2 8.98 14.2C9.10667 14.2 9.22 14.24 9.32 14.32C9.57333 14.5267 9.82333 14.6833 10.07 14.79C10.3233 14.8967 10.6333 14.95 11 14.95C11.2467 14.95 11.4733 14.9133 11.68 14.84C11.8867 14.76 12.0533 14.6567 12.18 14.53C12.3067 14.3967 12.37 14.2467 12.37 14.08C12.37 13.88 12.31 13.71 12.19 13.57C12.07 13.43 11.8867 13.3133 11.64 13.22C11.3933 13.12 11.08 13.0433 10.7 12.99C10.34 12.9367 10.0233 12.8567 9.75 12.75C9.47667 12.6367 9.24667 12.4967 9.06 12.33C8.88 12.1567 8.74333 11.9567 8.65 11.73C8.55667 11.4967 8.51 11.2367 8.51 10.95C8.51 10.5167 8.62 10.1467 8.84 9.84C9.06667 9.53333 9.37 9.3 9.75 9.14C10.13 8.98 10.55 8.9 11.01 8.9C11.4433 8.9 11.8433 8.96667 12.21 9.1C12.5833 9.22667 12.8867 9.39 13.12 9.59C13.3133 9.74333 13.41 9.92 13.41 10.12C13.41 10.2667 13.3533 10.4 13.24 10.52C13.1267 10.64 12.9933 10.7 12.84 10.7C12.74 10.7 12.65 10.67 12.57 10.61C12.4633 10.5167 12.32 10.43 12.14 10.35C11.96 10.2633 11.77 10.1933 11.57 10.14C11.37 10.08 11.1833 10.05 11.01 10.05C10.7233 10.05 10.48 10.0867 10.28 10.16C10.0867 10.2333 9.94 10.3333 9.84 10.46C9.74 10.5867 9.69 10.7333 9.69 10.9C9.69 11.1 9.74667 11.2667 9.86 11.4C9.98 11.5267 10.15 11.63 10.37 11.71C10.59 11.7833 10.8533 11.85 11.16 11.91C11.56 11.9833 11.91 12.07 12.21 12.17C12.5167 12.27 12.77 12.4 12.97 12.56C13.17 12.7133 13.32 12.91 13.42 13.15C13.52 13.3833 13.57 13.67 13.57 14.01C13.57 14.4433 13.45 14.8167 13.21 15.13C12.97 15.4433 12.6533 15.6833 12.26 15.85C11.8733 16.0167 11.4533 16.1 11 16.1ZM17.0868 16C16.9001 16 16.7468 15.9433 16.6268 15.83C16.5068 15.71 16.4468 15.5633 16.4468 15.39V9.59H17.7468V15.39C17.7468 15.5633 17.6835 15.71 17.5568 15.83C17.4368 15.9433 17.2801 16 17.0868 16ZM14.8768 10.15C14.7035 10.15 14.5568 10.0967 14.4368 9.99C14.3235 9.88333 14.2668 9.74333 14.2668 9.57C14.2668 9.39667 14.3235 9.26 14.4368 9.16C14.5568 9.05333 14.7035 9 14.8768 9H19.3168C19.4901 9 19.6335 9.05333 19.7468 9.16C19.8668 9.26667 19.9268 9.40667 19.9268 9.58C19.9268 9.75333 19.8668 9.89333 19.7468 10C19.6335 10.1 19.4901 10.15 19.3168 10.15H14.8768ZM23.0485 10.57L20.8885 15.65C20.8418 15.7767 20.7685 15.8767 20.6685 15.95C20.5752 16.0167 20.4718 16.05 20.3585 16.05C20.1785 16.05 20.0452 16 19.9585 15.9C19.8718 15.8 19.8285 15.6767 19.8285 15.53C19.8285 15.47 19.8385 15.4067 19.8585 15.34L22.3485 9.36C22.4018 9.22667 22.4818 9.12333 22.5885 9.05C22.7018 8.97667 22.8218 8.94667 22.9485 8.96C23.0685 8.96 23.1785 8.99667 23.2785 9.07C23.3852 9.13667 23.4618 9.23333 23.5085 9.36L25.9685 15.22C26.0018 15.3067 26.0185 15.3867 26.0185 15.46C26.0185 15.64 25.9585 15.7833 25.8385 15.89C25.7252 15.9967 25.5985 16.05 25.4585 16.05C25.3385 16.05 25.2285 16.0133 25.1285 15.94C25.0352 15.8667 24.9618 15.7667 24.9085 15.64L22.7585 10.63L23.0485 10.57ZM21.1985 14.43L21.7485 13.28H24.4485L24.6385 14.43H21.1985ZM27.5852 16C27.3986 16 27.2319 15.9433 27.0852 15.83C26.9386 15.71 26.8652 15.5633 26.8652 15.39V9.61C26.8652 9.43667 26.9219 9.29333 27.0352 9.18C27.1552 9.06 27.3019 9 27.4752 9H30.3552C30.7019 9 31.0252 9.09333 31.3252 9.28C31.6319 9.46 31.8786 9.71333 32.0652 10.04C32.2519 10.36 32.3452 10.73 32.3452 11.15C32.3452 11.4033 32.2919 11.65 32.1852 11.89C32.0852 12.13 31.9452 12.3467 31.7652 12.54C31.5919 12.7333 31.3952 12.8833 31.1752 12.99L31.1852 12.76C31.3719 12.86 31.5252 12.98 31.6452 13.12C31.7719 13.2533 31.8686 13.4 31.9352 13.56C32.0086 13.7133 32.0519 13.88 32.0652 14.06C32.0919 14.2267 32.1086 14.3733 32.1152 14.5C32.1286 14.6267 32.1486 14.7333 32.1752 14.82C32.2086 14.9067 32.2686 14.9733 32.3552 15.02C32.5019 15.1067 32.5919 15.2333 32.6252 15.4C32.6652 15.56 32.6286 15.7033 32.5152 15.83C32.4419 15.9167 32.3486 15.9733 32.2352 16C32.1219 16.02 32.0086 16.02 31.8952 16C31.7819 15.9733 31.6886 15.94 31.6152 15.9C31.5019 15.8333 31.3886 15.7367 31.2752 15.61C31.1619 15.4767 31.0686 15.3 30.9952 15.08C30.9286 14.86 30.8952 14.5767 30.8952 14.23C30.8952 14.1167 30.8752 14.0133 30.8352 13.92C30.7952 13.82 30.7386 13.7367 30.6652 13.67C30.5919 13.5967 30.4986 13.5433 30.3852 13.51C30.2719 13.47 30.1386 13.45 29.9852 13.45H27.9652L28.1152 13.22V15.39C28.1152 15.5633 28.0686 15.71 27.9752 15.83C27.8819 15.9433 27.7519 16 27.5852 16ZM27.9752 12.42H30.3052C30.4252 12.42 30.5419 12.3667 30.6552 12.26C30.7686 12.1467 30.8619 11.9967 30.9352 11.81C31.0086 11.6167 31.0452 11.4067 31.0452 11.18C31.0452 10.8867 30.9652 10.6433 30.8052 10.45C30.6519 10.25 30.4852 10.15 30.3052 10.15H27.9952L28.1152 9.83V12.66L27.9752 12.42ZM35.954 16C35.7673 16 35.614 15.9433 35.494 15.83C35.374 15.71 35.314 15.5633 35.314 15.39V9.59H36.614V15.39C36.614 15.5633 36.5507 15.71 36.424 15.83C36.304 15.9433 36.1473 16 35.954 16ZM33.744 10.15C33.5707 10.15 33.424 10.0967 33.304 9.99C33.1907 9.88333 33.134 9.74333 33.134 9.57C33.134 9.39667 33.1907 9.26 33.304 9.16C33.424 9.05333 33.5707 9 33.744 9H38.184C38.3573 9 38.5007 9.05333 38.614 9.16C38.734 9.26667 38.794 9.40667 38.794 9.58C38.794 9.75333 38.734 9.89333 38.614 10C38.5007 10.1 38.3573 10.15 38.184 10.15H33.744ZM47.9565 9C48.1165 9 48.2465 9.05333 48.3465 9.16C48.4465 9.26667 48.4965 9.4 48.4965 9.56V15.39C48.4965 15.5633 48.4365 15.71 48.3165 15.83C48.2032 15.9433 48.0598 16 47.8865 16C47.7998 16 47.7098 15.9867 47.6165 15.96C47.5298 15.9267 47.4632 15.8833 47.4165 15.83L43.4865 10.84L43.7465 10.68V15.44C43.7465 15.6 43.6932 15.7333 43.5865 15.84C43.4865 15.9467 43.3532 16 43.1865 16C43.0265 16 42.8965 15.9467 42.7965 15.84C42.6965 15.7333 42.6465 15.6 42.6465 15.44V9.61C42.6465 9.43667 42.7032 9.29333 42.8165 9.18C42.9365 9.06 43.0832 9 43.2565 9C43.3498 9 43.4465 9.02 43.5465 9.06C43.6465 9.09333 43.7198 9.14667 43.7665 9.22L47.5765 14.08L47.4065 14.2V9.56C47.4065 9.4 47.4565 9.26667 47.5565 9.16C47.6565 9.05333 47.7898 9 47.9565 9ZM50.61 9H53.96C54.1333 9 54.2767 9.05667 54.39 9.17C54.51 9.27667 54.57 9.41667 54.57 9.59C54.57 9.75667 54.51 9.89333 54.39 10C54.2767 10.1 54.1333 10.15 53.96 10.15H51.16L51.25 9.98V11.93L51.17 11.85H53.51C53.6833 11.85 53.8267 11.9067 53.94 12.02C54.06 12.1267 54.12 12.2667 54.12 12.44C54.12 12.6067 54.06 12.7433 53.94 12.85C53.8267 12.95 53.6833 13 53.51 13H51.2L51.25 12.92V14.94L51.17 14.85H53.96C54.1333 14.85 54.2767 14.91 54.39 15.03C54.51 15.1433 54.57 15.2767 54.57 15.43C54.57 15.5967 54.51 15.7333 54.39 15.84C54.2767 15.9467 54.1333 16 53.96 16H50.61C50.4367 16 50.29 15.9433 50.17 15.83C50.0567 15.71 50 15.5633 50 15.39V9.61C50 9.43667 50.0567 9.29333 50.17 9.18C50.29 9.06 50.4367 9 50.61 9ZM60.5127 8.99C60.666 8.99 60.796 9.05 60.9027 9.17C61.016 9.29 61.0727 9.41667 61.0727 9.55C61.0727 9.67667 61.0293 9.79667 60.9427 9.91L58.9327 12.56L58.2527 11.63L60.0227 9.28C60.1627 9.08667 60.326 8.99 60.5127 8.99ZM56.0527 8.97C56.246 8.97 56.4093 9.05667 56.5427 9.23L60.9427 15.08C61.0227 15.1867 61.0627 15.31 61.0627 15.45C61.0627 15.6367 60.996 15.7833 60.8627 15.89C60.7293 15.9967 60.596 16.05 60.4627 16.05C60.2693 16.05 60.106 15.9633 59.9727 15.79L55.5727 9.94C55.486 9.83333 55.4427 9.71333 55.4427 9.58C55.4427 9.40667 55.506 9.26333 55.6327 9.15C55.766 9.03 55.906 8.97 56.0527 8.97ZM55.9627 16.05C55.816 16.05 55.6893 15.9967 55.5827 15.89C55.476 15.7767 55.4227 15.6533 55.4227 15.52C55.4227 15.3733 55.4727 15.2367 55.5727 15.11L57.6027 12.36L58.2627 13.33L56.4627 15.77C56.3293 15.9567 56.1627 16.05 55.9627 16.05ZM64.6454 16C64.4587 16 64.3054 15.9433 64.1854 15.83C64.0654 15.71 64.0054 15.5633 64.0054 15.39V9.59H65.3054V15.39C65.3054 15.5633 65.2421 15.71 65.1154 15.83C64.9954 15.9433 64.8387 16 64.6454 16ZM62.4354 10.15C62.2621 10.15 62.1154 10.0967 61.9954 9.99C61.8821 9.88333 61.8254 9.74333 61.8254 9.57C61.8254 9.39667 61.8821 9.26 61.9954 9.16C62.1154 9.05333 62.2621 9 62.4354 9H66.8754C67.0487 9 67.1921 9.05333 67.3054 9.16C67.4254 9.26667 67.4854 9.40667 67.4854 9.58C67.4854 9.75333 67.4254 9.89333 67.3054 10C67.1921 10.1 67.0487 10.15 66.8754 10.15H62.4354ZM9.47 26C9.28333 26 9.11667 25.9433 8.97 25.83C8.82333 25.71 8.75 25.5633 8.75 25.39V19.61C8.75 19.4367 8.80667 19.2933 8.92 19.18C9.04 19.06 9.18667 19 9.36 19H12.24C12.5867 19 12.91 19.0933 13.21 19.28C13.5167 19.46 13.7633 19.7133 13.95 20.04C14.1367 20.36 14.23 20.73 14.23 21.15C14.23 21.4033 14.1767 21.65 14.07 21.89C13.97 22.13 13.83 22.3467 13.65 22.54C13.4767 22.7333 13.28 22.8833 13.06 22.99L13.07 22.76C13.2567 22.86 13.41 22.98 13.53 23.12C13.6567 23.2533 13.7533 23.4 13.82 23.56C13.8933 23.7133 13.9367 23.88 13.95 24.06C13.9767 24.2267 13.9933 24.3733 14 24.5C14.0133 24.6267 14.0333 24.7333 14.06 24.82C14.0933 24.9067 14.1533 24.9733 14.24 25.02C14.3867 25.1067 14.4767 25.2333 14.51 25.4C14.55 25.56 14.5133 25.7033 14.4 25.83C14.3267 25.9167 14.2333 25.9733 14.12 26C14.0067 26.02 13.8933 26.02 13.78 26C13.6667 25.9733 13.5733 25.94 13.5 25.9C13.3867 25.8333 13.2733 25.7367 13.16 25.61C13.0467 25.4767 12.9533 25.3 12.88 25.08C12.8133 24.86 12.78 24.5767 12.78 24.23C12.78 24.1167 12.76 24.0133 12.72 23.92C12.68 23.82 12.6233 23.7367 12.55 23.67C12.4767 23.5967 12.3833 23.5433 12.27 23.51C12.1567 23.47 12.0233 23.45 11.87 23.45H9.85L10 23.22V25.39C10 25.5633 9.95333 25.71 9.86 25.83C9.76667 25.9433 9.63667 26 9.47 26ZM9.86 22.42H12.19C12.31 22.42 12.4267 22.3667 12.54 22.26C12.6533 22.1467 12.7467 21.9967 12.82 21.81C12.8933 21.6167 12.93 21.4067 12.93 21.18C12.93 20.8867 12.85 20.6433 12.69 20.45C12.5367 20.25 12.37 20.15 12.19 20.15H9.88L10 19.83V22.66L9.86 22.42ZM21.9576 22.5C21.9576 23 21.8742 23.4667 21.7076 23.9C21.5409 24.3333 21.3042 24.7167 20.9976 25.05C20.6976 25.3767 20.3376 25.6333 19.9176 25.82C19.5042 26.0067 19.0509 26.1 18.5576 26.1C18.0642 26.1 17.6109 26.0067 17.1976 25.82C16.7842 25.6333 16.4242 25.3767 16.1176 25.05C15.8176 24.7167 15.5842 24.3333 15.4176 23.9C15.2509 23.4667 15.1676 23 15.1676 22.5C15.1676 22 15.2509 21.5333 15.4176 21.1C15.5842 20.6667 15.8176 20.2867 16.1176 19.96C16.4242 19.6267 16.7842 19.3667 17.1976 19.18C17.6109 18.9933 18.0642 18.9 18.5576 18.9C19.0509 18.9 19.5042 18.9933 19.9176 19.18C20.3376 19.3667 20.6976 19.6267 20.9976 19.96C21.3042 20.2867 21.5409 20.6667 21.7076 21.1C21.8742 21.5333 21.9576 22 21.9576 22.5ZM20.6576 22.5C20.6576 22.0533 20.5676 21.65 20.3876 21.29C20.2076 20.9233 19.9609 20.6333 19.6476 20.42C19.3342 20.2067 18.9709 20.1 18.5576 20.1C18.1442 20.1 17.7809 20.2067 17.4676 20.42C17.1542 20.6333 16.9076 20.92 16.7276 21.28C16.5542 21.64 16.4676 22.0467 16.4676 22.5C16.4676 22.9467 16.5542 23.3533 16.7276 23.72C16.9076 24.08 17.1542 24.3667 17.4676 24.58C17.7809 24.7933 18.1442 24.9 18.5576 24.9C18.9709 24.9 19.3342 24.7933 19.6476 24.58C19.9609 24.3667 20.2076 24.08 20.3876 23.72C20.5676 23.3533 20.6576 22.9467 20.6576 22.5ZM28.0755 18.99C28.2488 18.99 28.3888 19.05 28.4955 19.17C28.6021 19.2833 28.6555 19.4267 28.6555 19.6V23.22C28.6555 23.7733 28.5355 24.2633 28.2955 24.69C28.0621 25.1167 27.7388 25.45 27.3255 25.69C26.9121 25.93 26.4321 26.05 25.8855 26.05C25.3388 26.05 24.8555 25.93 24.4355 25.69C24.0221 25.45 23.6955 25.1167 23.4555 24.69C23.2221 24.2633 23.1055 23.7733 23.1055 23.22V19.6C23.1055 19.4267 23.1655 19.2833 23.2855 19.17C23.4055 19.05 23.5588 18.99 23.7455 18.99C23.8988 18.99 24.0355 19.05 24.1555 19.17C24.2821 19.2833 24.3455 19.4267 24.3455 19.6V23.22C24.3455 23.5533 24.4155 23.8433 24.5555 24.09C24.7021 24.33 24.8921 24.5167 25.1255 24.65C25.3655 24.7833 25.6188 24.85 25.8855 24.85C26.1721 24.85 26.4388 24.7833 26.6855 24.65C26.9321 24.5167 27.1321 24.33 27.2855 24.09C27.4388 23.8433 27.5155 23.5533 27.5155 23.22V19.6C27.5155 19.4267 27.5655 19.2833 27.6655 19.17C27.7655 19.05 27.9021 18.99 28.0755 18.99ZM35.4663 19C35.6263 19 35.7563 19.0533 35.8563 19.16C35.9563 19.2667 36.0063 19.4 36.0063 19.56V25.39C36.0063 25.5633 35.9463 25.71 35.8263 25.83C35.7129 25.9433 35.5696 26 35.3963 26C35.3096 26 35.2196 25.9867 35.1263 25.96C35.0396 25.9267 34.9729 25.8833 34.9263 25.83L30.9963 20.84L31.2563 20.68V25.44C31.2563 25.6 31.2029 25.7333 31.0963 25.84C30.9963 25.9467 30.8629 26 30.6963 26C30.5363 26 30.4063 25.9467 30.3063 25.84C30.2063 25.7333 30.1563 25.6 30.1563 25.44V19.61C30.1563 19.4367 30.2129 19.2933 30.3263 19.18C30.4463 19.06 30.5929 19 30.7663 19C30.8596 19 30.9563 19.02 31.0563 19.06C31.1563 19.0933 31.2296 19.1467 31.2763 19.22L35.0863 24.08L34.9162 24.2V19.56C34.9162 19.4 34.9663 19.2667 35.0663 19.16C35.1663 19.0533 35.2996 19 35.4663 19ZM40.5098 19C40.9898 19 41.4164 19.09 41.7898 19.27C42.1631 19.45 42.4764 19.7033 42.7298 20.03C42.9898 20.35 43.1831 20.7233 43.3098 21.15C43.4431 21.57 43.5098 22.02 43.5098 22.5C43.5098 23.1467 43.3931 23.7367 43.1598 24.27C42.9264 24.7967 42.5864 25.2167 42.1398 25.53C41.6998 25.8433 41.1564 26 40.5098 26H38.1198C37.9464 26 37.7998 25.9433 37.6798 25.83C37.5664 25.71 37.5098 25.5633 37.5098 25.39V19.61C37.5098 19.4367 37.5664 19.2933 37.6798 19.18C37.7998 19.06 37.9464 19 38.1198 19H40.5098ZM40.4098 24.85C40.8298 24.85 41.1731 24.7433 41.4398 24.53C41.7064 24.31 41.8998 24.0233 42.0198 23.67C42.1464 23.31 42.2098 22.92 42.2098 22.5C42.2098 22.1867 42.1731 21.89 42.0998 21.61C42.0331 21.3233 41.9264 21.0733 41.7798 20.86C41.6331 20.64 41.4464 20.4667 41.2198 20.34C40.9931 20.2133 40.7231 20.15 40.4098 20.15H38.6598L38.7598 20.06V24.96L38.6998 24.85H40.4098Z" fill="#EA1644"/>
<path d="M67.1816 23.5C67.1816 23.6687 67.1144 23.8309 66.9951 23.9502L64.1309 26.8135C64.0116 26.9327 63.8503 26.9998 63.6816 27C63.513 27.0001 63.3508 26.9335 63.2314 26.8145C63.1121 26.6952 63.0451 26.533 63.0449 26.3643C63.0449 26.1956 63.1113 26.0334 63.2305 25.9141L65.0088 24.1367L57.6357 24.1367C57.4671 24.1367 57.3048 24.0695 57.1855 23.9502C57.0663 23.8309 57 23.6687 57 23.5C57 23.3313 57.0663 23.1691 57.1855 23.0498C57.3048 22.9305 57.4671 22.8633 57.6357 22.8633L65.0088 22.8633L63.2314 21.0859C63.1124 20.9667 63.045 20.8053 63.0449 20.6367C63.045 20.468 63.1122 20.3058 63.2314 20.1865C63.3508 20.0673 63.5129 20 63.6816 20C63.8504 20.0001 64.0125 20.0671 64.1318 20.1865L66.9951 23.0498C67.1142 23.1692 67.1817 23.3314 67.1816 23.5Z" fill="#EA1644"/>
<defs>
<filter id="filter0_d_959_1198" x="0" y="0" width="75" height="39" filterUnits="userSpaceOnUse" color-interpolation-filters="sRGB">
<feFlood flood-opacity="0" result="BackgroundImageFix"/>
<feColorMatrix in="SourceAlpha" type="matrix" values="0 0 0 0 0 0 0 0 0 0 0 0 0 0 0 0 0 0 127 0" result="hardAlpha"/>
<feOffset dy="3"/>
<feComposite in2="hardAlpha" operator="out"/>
<feColorMatrix type="matrix" values="0 0 0 0 0.404316 0 0 0 0 0.0899019 0 0 0 0 0.215667 0 0 0 1 0"/>
<feBlend mode="normal" in2="BackgroundImageFix" result="effect1_dropShadow_959_1198"/>
<feBlend mode="normal" in="SourceGraphic" in2="effect1_dropShadow_959_1198" result="shape"/>
</filter>
</defs>
</svg>
