<svg width="385" height="197" viewBox="0 0 385 197" fill="none" xmlns="http://www.w3.org/2000/svg">
<rect x="1.5" y="1.5" width="382" height="194" rx="15" fill="#FDF0DC" stroke="#473025" stroke-width="3"/>
<path d="M97.3809 40.4576C97.8715 40.4576 98.3409 40.6496 98.7889 41.0336C99.2369 41.3963 99.4609 41.8976 99.4609 42.5376C99.4609 42.7296 99.4289 42.9429 99.3649 43.1776L93.0609 61.7376C92.9329 62.1216 92.6982 62.4203 92.3569 62.6336C92.0369 62.8256 91.6955 62.9323 91.3329 62.9536C90.9702 62.9536 90.6075 62.8469 90.2449 62.6336C89.9035 62.4203 89.6369 62.1109 89.4449 61.7056L84.7089 50.9536L84.9969 51.1456L80.3249 61.7056C80.1329 62.1109 79.8555 62.4203 79.4929 62.6336C79.1515 62.8469 78.7995 62.9536 78.4369 62.9536C78.0955 62.9323 77.7542 62.8256 77.4129 62.6336C77.0715 62.4203 76.8369 62.1216 76.7089 61.7376L70.4049 43.1776C70.3409 42.9429 70.3089 42.7296 70.3089 42.5376C70.3089 41.8976 70.5329 41.3963 70.9809 41.0336C71.4502 40.6496 71.9302 40.4576 72.4209 40.4576C72.8262 40.4576 73.1995 40.5643 73.5409 40.7776C73.9035 40.9909 74.1489 41.3003 74.2769 41.7056L79.3649 57.1296L78.6609 57.0976L83.2049 46.1856C83.3755 45.8016 83.6209 45.5029 83.9409 45.2896C84.2609 45.0549 84.6235 44.9483 85.0289 44.9696C85.4342 44.9483 85.7969 45.0549 86.1169 45.2896C86.4369 45.5029 86.6715 45.8016 86.8209 46.1856L90.9809 56.6176L90.4689 56.9376L95.4929 41.7056C95.6209 41.3003 95.8662 40.9909 96.2289 40.7776C96.5915 40.5643 96.9755 40.4576 97.3809 40.4576ZM109.89 45.5776L102.978 61.8336C102.828 62.2389 102.594 62.5589 102.274 62.7936C101.975 63.0069 101.644 63.1136 101.282 63.1136C100.706 63.1136 100.279 62.9536 100.002 62.6336C99.7243 62.3136 99.5856 61.9189 99.5856 61.4496C99.5856 61.2576 99.6176 61.0549 99.6816 60.8416L107.65 41.7056C107.82 41.2789 108.076 40.9483 108.418 40.7136C108.78 40.4789 109.164 40.3829 109.57 40.4256C109.954 40.4256 110.306 40.5429 110.626 40.7776C110.967 40.9909 111.212 41.3003 111.362 41.7056L119.234 60.4576C119.34 60.7349 119.394 60.9909 119.394 61.2256C119.394 61.8016 119.202 62.2603 118.818 62.6016C118.455 62.9429 118.05 63.1136 117.602 63.1136C117.218 63.1136 116.866 62.9963 116.546 62.7616C116.247 62.5269 116.012 62.2069 115.842 61.8016L108.962 45.7696L109.89 45.5776ZM103.97 57.9296L105.73 54.2496H114.37L114.978 57.9296H103.97ZM135.518 40.4896C136.051 40.4896 136.51 40.6709 136.894 41.0336C137.299 41.3749 137.502 41.8123 137.502 42.3456C137.502 42.6229 137.438 42.9109 137.31 43.2096L129.406 61.7056C129.214 62.1323 128.936 62.4523 128.574 62.6656C128.232 62.8576 127.88 62.9536 127.518 62.9536C127.176 62.9323 126.846 62.8256 126.526 62.6336C126.206 62.4203 125.96 62.1216 125.79 61.7376L117.886 43.1776C117.822 43.0496 117.779 42.9216 117.758 42.7936C117.736 42.6443 117.726 42.5056 117.726 42.3776C117.726 41.7589 117.95 41.2896 118.398 40.9696C118.846 40.6283 119.272 40.4576 119.678 40.4576C120.488 40.4576 121.075 40.8736 121.438 41.7056L128.446 58.1856L127.326 58.2176L133.758 41.7056C134.12 40.8949 134.707 40.4896 135.518 40.4896ZM142.805 40.5536H153.525C154.08 40.5536 154.538 40.7349 154.901 41.0976C155.285 41.4389 155.477 41.8869 155.477 42.4416C155.477 42.9749 155.285 43.4123 154.901 43.7536C154.538 44.0736 154.08 44.2336 153.525 44.2336H144.565L144.853 43.6896V49.9296L144.597 49.6736H152.085C152.64 49.6736 153.098 49.8549 153.461 50.2176C153.845 50.5589 154.037 51.0069 154.037 51.5616C154.037 52.0949 153.845 52.5323 153.461 52.8736C153.098 53.1936 152.64 53.3536 152.085 53.3536H144.693L144.853 53.0976V59.5616L144.597 59.2736H153.525C154.08 59.2736 154.538 59.4656 154.901 59.8496C155.285 60.2123 155.477 60.6389 155.477 61.1296C155.477 61.6629 155.285 62.1003 154.901 62.4416C154.538 62.7829 154.08 62.9536 153.525 62.9536H142.805C142.25 62.9536 141.781 62.7723 141.397 62.4096C141.034 62.0256 140.853 61.5563 140.853 61.0016V42.5056C140.853 41.9509 141.034 41.4923 141.397 41.1296C141.781 40.7456 142.25 40.5536 142.805 40.5536ZM183.814 41.6416C184.369 41.9189 184.689 42.3563 184.774 42.9536C184.881 43.5509 184.732 44.0949 184.326 44.5856C184.049 44.9696 183.686 45.1829 183.238 45.2256C182.812 45.2683 182.374 45.1829 181.926 44.9696C181.414 44.7349 180.87 44.5536 180.294 44.4256C179.74 44.2976 179.153 44.2336 178.534 44.2336C177.382 44.2336 176.348 44.4149 175.43 44.7776C174.534 45.1403 173.766 45.6629 173.126 46.3456C172.486 47.0069 171.996 47.7963 171.654 48.7136C171.334 49.6309 171.174 50.6443 171.174 51.7536C171.174 53.0549 171.356 54.1856 171.718 55.1456C172.102 56.1056 172.625 56.9056 173.286 57.5456C173.948 58.1856 174.726 58.6656 175.622 58.9856C176.518 59.2843 177.489 59.4336 178.534 59.4336C179.11 59.4336 179.686 59.3803 180.262 59.2736C180.838 59.1669 181.393 58.9749 181.926 58.6976C182.374 58.4843 182.812 58.4096 183.238 58.4736C183.686 58.5376 184.06 58.7616 184.358 59.1456C184.785 59.6789 184.934 60.2336 184.806 60.8096C184.7 61.3643 184.38 61.7696 183.846 62.0256C183.292 62.3029 182.716 62.5376 182.118 62.7296C181.542 62.9003 180.956 63.0283 180.358 63.1136C179.761 63.2203 179.153 63.2736 178.534 63.2736C176.998 63.2736 175.537 63.0283 174.15 62.5376C172.785 62.0469 171.558 61.3216 170.47 60.3616C169.404 59.4016 168.561 58.2069 167.942 56.7776C167.324 55.3269 167.014 53.6523 167.014 51.7536C167.014 50.1109 167.292 48.5963 167.846 47.2096C168.422 45.8229 169.222 44.6283 170.246 43.6256C171.292 42.6016 172.518 41.8123 173.926 41.2576C175.334 40.6816 176.87 40.3936 178.534 40.3936C179.473 40.3936 180.39 40.5003 181.286 40.7136C182.182 40.9269 183.025 41.2363 183.814 41.6416ZM200.549 59.2096C201.104 59.2096 201.562 59.3909 201.925 59.7536C202.309 60.0949 202.501 60.5429 202.501 61.0976C202.501 61.6309 202.309 62.0789 201.925 62.4416C201.562 62.7829 201.104 62.9536 200.549 62.9536H190.149C189.594 62.9536 189.125 62.7723 188.741 62.4096C188.378 62.0256 188.197 61.5563 188.197 61.0016V42.5056C188.197 41.9509 188.389 41.4923 188.773 41.1296C189.157 40.7456 189.648 40.5536 190.245 40.5536C190.757 40.5536 191.205 40.7456 191.589 41.1296C191.994 41.4923 192.197 41.9509 192.197 42.5056V59.7536L191.493 59.2096H200.549ZM208.118 40.5536H218.838C219.392 40.5536 219.851 40.7349 220.214 41.0976C220.598 41.4389 220.79 41.8869 220.79 42.4416C220.79 42.9749 220.598 43.4123 220.214 43.7536C219.851 44.0736 219.392 44.2336 218.838 44.2336H209.878L210.166 43.6896V49.9296L209.91 49.6736H217.398C217.952 49.6736 218.411 49.8549 218.774 50.2176C219.158 50.5589 219.35 51.0069 219.35 51.5616C219.35 52.0949 219.158 52.5323 218.774 52.8736C218.411 53.1936 217.952 53.3536 217.398 53.3536H210.006L210.166 53.0976V59.5616L209.91 59.2736H218.838C219.392 59.2736 219.851 59.4656 220.214 59.8496C220.598 60.2123 220.79 60.6389 220.79 61.1296C220.79 61.6629 220.598 62.1003 220.214 62.4416C219.851 62.7829 219.392 62.9536 218.838 62.9536H208.118C207.563 62.9536 207.094 62.7723 206.71 62.4096C206.347 62.0256 206.166 61.5563 206.166 61.0016V42.5056C206.166 41.9509 206.347 41.4923 206.71 41.1296C207.094 40.7456 207.563 40.5536 208.118 40.5536ZM232.702 45.5776L225.79 61.8336C225.641 62.2389 225.406 62.5589 225.086 62.7936C224.787 63.0069 224.457 63.1136 224.094 63.1136C223.518 63.1136 223.091 62.9536 222.814 62.6336C222.537 62.3136 222.398 61.9189 222.398 61.4496C222.398 61.2576 222.43 61.0549 222.494 60.8416L230.462 41.7056C230.633 41.2789 230.889 40.9483 231.23 40.7136C231.593 40.4789 231.977 40.3829 232.382 40.4256C232.766 40.4256 233.118 40.5429 233.438 40.7776C233.779 40.9909 234.025 41.3003 234.174 41.7056L242.046 60.4576C242.153 60.7349 242.206 60.9909 242.206 61.2256C242.206 61.8016 242.014 62.2603 241.63 62.6016C241.267 62.9429 240.862 63.1136 240.414 63.1136C240.03 63.1136 239.678 62.9963 239.358 62.7616C239.059 62.5269 238.825 62.2069 238.654 61.8016L231.774 45.7696L232.702 45.5776ZM226.782 57.9296L228.542 54.2496H237.182L237.79 57.9296H226.782ZM247.22 62.9536C246.622 62.9536 246.089 62.7723 245.62 62.4096C245.15 62.0256 244.916 61.5563 244.916 61.0016V42.5056C244.916 41.9509 245.097 41.4923 245.46 41.1296C245.844 40.7456 246.313 40.5536 246.868 40.5536H256.084C257.193 40.5536 258.228 40.8523 259.188 41.4496C260.169 42.0256 260.958 42.8363 261.556 43.8816C262.153 44.9056 262.452 46.0896 262.452 47.4336C262.452 48.2443 262.281 49.0336 261.94 49.8016C261.62 50.5696 261.172 51.2629 260.596 51.8816C260.041 52.5003 259.412 52.9803 258.708 53.3216L258.74 52.5856C259.337 52.9056 259.828 53.2896 260.212 53.7376C260.617 54.1643 260.926 54.6336 261.14 55.1456C261.374 55.6363 261.513 56.1696 261.556 56.7456C261.641 57.2789 261.694 57.7483 261.716 58.1536C261.758 58.5589 261.822 58.9003 261.908 59.1776C262.014 59.4549 262.206 59.6683 262.484 59.8176C262.953 60.0949 263.241 60.5003 263.348 61.0336C263.476 61.5456 263.358 62.0043 262.996 62.4096C262.761 62.6869 262.462 62.8683 262.1 62.9536C261.737 63.0176 261.374 63.0176 261.012 62.9536C260.649 62.8683 260.35 62.7616 260.116 62.6336C259.753 62.4203 259.39 62.1109 259.028 61.7056C258.665 61.2789 258.366 60.7136 258.132 60.0096C257.918 59.3056 257.812 58.3989 257.812 57.2896C257.812 56.9269 257.748 56.5963 257.62 56.2976C257.492 55.9776 257.31 55.7109 257.076 55.4976C256.841 55.2629 256.542 55.0923 256.18 54.9856C255.817 54.8576 255.39 54.7936 254.9 54.7936H248.436L248.916 54.0576V61.0016C248.916 61.5563 248.766 62.0256 248.468 62.4096C248.169 62.7723 247.753 62.9536 247.22 62.9536ZM248.468 51.4976H255.924C256.308 51.4976 256.681 51.3269 257.044 50.9856C257.406 50.6229 257.705 50.1429 257.94 49.5456C258.174 48.9269 258.292 48.2549 258.292 47.5296C258.292 46.5909 258.036 45.8123 257.524 45.1936C257.033 44.5536 256.5 44.2336 255.924 44.2336H248.532L248.916 43.2096V52.2656L248.468 51.4976ZM268.836 40.5536H279.556C280.111 40.5536 280.57 40.7349 280.932 41.0976C281.316 41.4389 281.508 41.8869 281.508 42.4416C281.508 42.9749 281.316 43.4123 280.932 43.7536C280.57 44.0736 280.111 44.2336 279.556 44.2336H270.596L270.884 43.6896V49.9296L270.628 49.6736H278.116C278.671 49.6736 279.13 49.8549 279.492 50.2176C279.876 50.5589 280.068 51.0069 280.068 51.5616C280.068 52.0949 279.876 52.5323 279.492 52.8736C279.13 53.1936 278.671 53.3536 278.116 53.3536H270.724L270.884 53.0976V59.5616L270.628 59.2736H279.556C280.111 59.2736 280.57 59.4656 280.932 59.8496C281.316 60.2123 281.508 60.6389 281.508 61.1296C281.508 61.6629 281.316 62.1003 280.932 62.4416C280.57 62.7829 280.111 62.9536 279.556 62.9536H268.836C268.282 62.9536 267.812 62.7723 267.428 62.4096C267.066 62.0256 266.884 61.5563 266.884 61.0016V42.5056C266.884 41.9509 267.066 41.4923 267.428 41.1296C267.812 40.7456 268.282 40.5536 268.836 40.5536ZM294.797 40.5536C296.333 40.5536 297.698 40.8416 298.893 41.4176C300.088 41.9936 301.09 42.8043 301.901 43.8496C302.733 44.8736 303.352 46.0683 303.757 47.4336C304.184 48.7776 304.397 50.2176 304.397 51.7536C304.397 53.8229 304.024 55.7109 303.277 57.4176C302.53 59.1029 301.442 60.4469 300.013 61.4496C298.605 62.4523 296.866 62.9536 294.797 62.9536H287.149C286.594 62.9536 286.125 62.7723 285.741 62.4096C285.378 62.0256 285.197 61.5563 285.197 61.0016V42.5056C285.197 41.9509 285.378 41.4923 285.741 41.1296C286.125 40.7456 286.594 40.5536 287.149 40.5536H294.797ZM294.477 59.2736C295.821 59.2736 296.92 58.9323 297.773 58.2496C298.626 57.5456 299.245 56.6283 299.629 55.4976C300.034 54.3456 300.237 53.0976 300.237 51.7536C300.237 50.7509 300.12 49.8016 299.885 48.9056C299.672 47.9883 299.33 47.1883 298.861 46.5056C298.392 45.8016 297.794 45.2469 297.069 44.8416C296.344 44.4363 295.48 44.2336 294.477 44.2336H288.877L289.197 43.9456V59.6256L289.005 59.2736H294.477ZM309.96 55.8816C309.235 55.8816 308.84 55.4763 308.776 54.6656L307.848 42.8896C307.805 42.2283 307.976 41.6736 308.36 41.2256C308.765 40.7776 309.288 40.5536 309.928 40.5536C310.568 40.5536 311.091 40.7776 311.496 41.2256C311.901 41.6736 312.072 42.2283 312.008 42.8896L311.112 54.6656C311.048 55.4763 310.664 55.8816 309.96 55.8816ZM309.736 62.9536C309.117 62.9536 308.637 62.7936 308.296 62.4736C307.976 62.1323 307.816 61.6523 307.816 61.0336V60.4896C307.816 59.8709 307.976 59.4016 308.296 59.0816C308.637 58.7403 309.117 58.5696 309.736 58.5696H310.152C310.771 58.5696 311.24 58.7403 311.56 59.0816C311.901 59.4016 312.072 59.8709 312.072 60.4896V61.0336C312.072 61.6523 311.901 62.1323 311.56 62.4736C311.24 62.7936 310.771 62.9536 310.152 62.9536H309.736Z" fill="#473025"/>
<path d="M160.48 87.862C160.723 87.862 160.924 87.9413 161.082 88.1C161.25 88.2493 161.334 88.4453 161.334 88.688C161.334 88.9213 161.25 89.1173 161.082 89.276C160.924 89.4253 160.723 89.5 160.48 89.5H155.93C155.688 89.5 155.482 89.4207 155.314 89.262C155.156 89.094 155.076 88.8887 155.076 88.646V80.554C155.076 80.3113 155.16 80.1107 155.328 79.952C155.496 79.784 155.711 79.7 155.972 79.7C156.196 79.7 156.392 79.784 156.56 79.952C156.738 80.1107 156.826 80.3113 156.826 80.554V88.1L156.518 87.862H160.48ZM164.38 88.646C164.38 88.8887 164.3 89.094 164.142 89.262C163.983 89.4207 163.782 89.5 163.54 89.5C163.297 89.5 163.096 89.4207 162.938 89.262C162.779 89.094 162.7 88.8887 162.7 88.646V82.864C162.7 82.6213 162.779 82.4207 162.938 82.262C163.096 82.094 163.297 82.01 163.54 82.01C163.782 82.01 163.983 82.094 164.142 82.262C164.3 82.4207 164.38 82.6213 164.38 82.864V88.646ZM163.526 81.1C163.208 81.1 162.984 81.0487 162.854 80.946C162.723 80.8433 162.658 80.6613 162.658 80.4V80.134C162.658 79.8633 162.728 79.6813 162.868 79.588C163.017 79.4853 163.241 79.434 163.54 79.434C163.866 79.434 164.095 79.4853 164.226 79.588C164.356 79.6907 164.422 79.8727 164.422 80.134V80.4C164.422 80.6707 164.352 80.8573 164.212 80.96C164.072 81.0533 163.843 81.1 163.526 81.1ZM166.442 82.01C166.62 82.01 166.783 82.0567 166.932 82.15C167.082 82.234 167.194 82.3647 167.268 82.542L169.326 87.246L169.018 87.386L171.118 82.556C171.277 82.1827 171.524 82.0053 171.86 82.024C172.094 82.024 172.28 82.0987 172.42 82.248C172.57 82.388 172.644 82.5653 172.644 82.78C172.644 82.8453 172.63 82.9153 172.602 82.99C172.584 83.0647 172.56 83.1347 172.532 83.2L169.914 88.968C169.765 89.304 169.527 89.4813 169.2 89.5C169.023 89.528 168.85 89.4953 168.682 89.402C168.524 89.3087 168.402 89.164 168.318 88.968L165.714 83.2C165.696 83.1533 165.672 83.0927 165.644 83.018C165.626 82.9433 165.616 82.8547 165.616 82.752C165.616 82.584 165.691 82.4207 165.84 82.262C165.99 82.094 166.19 82.01 166.442 82.01ZM177.427 89.64C176.634 89.64 175.943 89.4767 175.355 89.15C174.777 88.814 174.329 88.3613 174.011 87.792C173.703 87.2227 173.549 86.5787 173.549 85.86C173.549 85.02 173.717 84.306 174.053 83.718C174.399 83.1207 174.847 82.6633 175.397 82.346C175.948 82.0287 176.531 81.87 177.147 81.87C177.623 81.87 178.071 81.968 178.491 82.164C178.921 82.36 179.299 82.6307 179.625 82.976C179.952 83.312 180.209 83.704 180.395 84.152C180.591 84.6 180.689 85.076 180.689 85.58C180.68 85.804 180.591 85.986 180.423 86.126C180.255 86.266 180.059 86.336 179.835 86.336H174.487L174.067 84.936H179.205L178.897 85.216V84.838C178.879 84.5673 178.781 84.3247 178.603 84.11C178.435 83.8953 178.221 83.7273 177.959 83.606C177.707 83.4753 177.437 83.41 177.147 83.41C176.867 83.41 176.606 83.4473 176.363 83.522C176.121 83.5967 175.911 83.7227 175.733 83.9C175.556 84.0773 175.416 84.3153 175.313 84.614C175.211 84.9127 175.159 85.2907 175.159 85.748C175.159 86.252 175.262 86.6813 175.467 87.036C175.682 87.3813 175.953 87.6473 176.279 87.834C176.615 88.0113 176.97 88.1 177.343 88.1C177.689 88.1 177.964 88.072 178.169 88.016C178.375 87.96 178.538 87.8947 178.659 87.82C178.79 87.736 178.907 87.666 179.009 87.61C179.177 87.526 179.336 87.484 179.485 87.484C179.691 87.484 179.859 87.554 179.989 87.694C180.129 87.834 180.199 87.9973 180.199 88.184C180.199 88.436 180.069 88.6647 179.807 88.87C179.565 89.0753 179.224 89.2573 178.785 89.416C178.347 89.5653 177.894 89.64 177.427 89.64ZM181.723 88.338C181.63 88.2073 181.588 88.0393 181.597 87.834C181.606 87.6287 181.728 87.4513 181.961 87.302C182.11 87.2087 182.269 87.1713 182.437 87.19C182.605 87.1993 182.768 87.2833 182.927 87.442C183.198 87.7127 183.482 87.9227 183.781 88.072C184.08 88.2213 184.453 88.296 184.901 88.296C185.041 88.2867 185.195 88.268 185.363 88.24C185.531 88.2027 185.676 88.128 185.797 88.016C185.928 87.8947 185.993 87.7127 185.993 87.47C185.993 87.2647 185.923 87.1013 185.783 86.98C185.643 86.8587 185.456 86.756 185.223 86.672C184.999 86.588 184.747 86.5087 184.467 86.434C184.178 86.35 183.879 86.2567 183.571 86.154C183.272 86.0513 182.997 85.9207 182.745 85.762C182.493 85.594 182.288 85.3747 182.129 85.104C181.97 84.8333 181.891 84.4927 181.891 84.082C181.891 83.6153 182.022 83.2187 182.283 82.892C182.544 82.5653 182.88 82.3133 183.291 82.136C183.711 81.9587 184.15 81.87 184.607 81.87C184.896 81.87 185.2 81.9073 185.517 81.982C185.834 82.0473 186.138 82.1593 186.427 82.318C186.716 82.4673 186.959 82.668 187.155 82.92C187.258 83.06 187.318 83.228 187.337 83.424C187.356 83.62 187.267 83.7973 187.071 83.956C186.931 84.068 186.768 84.1193 186.581 84.11C186.394 84.0913 186.24 84.026 186.119 83.914C185.96 83.7087 185.746 83.5453 185.475 83.424C185.214 83.3027 184.91 83.242 184.565 83.242C184.425 83.242 184.271 83.2607 184.103 83.298C183.944 83.326 183.804 83.396 183.683 83.508C183.562 83.6107 183.501 83.7787 183.501 84.012C183.501 84.2267 183.571 84.3993 183.711 84.53C183.851 84.6513 184.038 84.754 184.271 84.838C184.514 84.9127 184.77 84.9873 185.041 85.062C185.321 85.1367 185.606 85.2253 185.895 85.328C186.184 85.4307 186.45 85.566 186.693 85.734C186.936 85.902 187.132 86.1213 187.281 86.392C187.43 86.6533 187.505 86.9893 187.505 87.4C187.505 87.876 187.365 88.282 187.085 88.618C186.805 88.954 186.455 89.2107 186.035 89.388C185.615 89.556 185.186 89.64 184.747 89.64C184.196 89.64 183.646 89.5467 183.095 89.36C182.544 89.164 182.087 88.8233 181.723 88.338ZM194.655 88.646C194.655 88.8887 194.571 89.094 194.403 89.262C194.244 89.4207 194.043 89.5 193.801 89.5C193.567 89.5 193.371 89.4207 193.213 89.262C193.054 89.094 192.975 88.8887 192.975 88.646V79.994C192.975 79.7513 193.054 79.5507 193.213 79.392C193.381 79.224 193.586 79.14 193.829 79.14C194.071 79.14 194.267 79.224 194.417 79.392C194.575 79.5507 194.655 79.7513 194.655 79.994V88.646ZM203.738 85.762C203.738 86.5273 203.565 87.204 203.22 87.792C202.884 88.3707 202.426 88.8233 201.848 89.15C201.278 89.4767 200.639 89.64 199.93 89.64C199.22 89.64 198.576 89.4767 197.998 89.15C197.428 88.8233 196.971 88.3707 196.626 87.792C196.29 87.204 196.122 86.5273 196.122 85.762C196.122 84.9967 196.29 84.3247 196.626 83.746C196.971 83.158 197.428 82.7007 197.998 82.374C198.576 82.038 199.22 81.87 199.93 81.87C200.639 81.87 201.278 82.038 201.848 82.374C202.426 82.7007 202.884 83.158 203.22 83.746C203.565 84.3247 203.738 84.9967 203.738 85.762ZM202.058 85.762C202.058 85.286 201.96 84.8753 201.764 84.53C201.577 84.1753 201.32 83.9 200.994 83.704C200.676 83.508 200.322 83.41 199.93 83.41C199.538 83.41 199.178 83.508 198.852 83.704C198.534 83.9 198.278 84.1753 198.082 84.53C197.895 84.8753 197.802 85.286 197.802 85.762C197.802 86.2287 197.895 86.6393 198.082 86.994C198.278 87.3393 198.534 87.61 198.852 87.806C199.178 88.002 199.538 88.1 199.93 88.1C200.322 88.1 200.676 88.002 200.994 87.806C201.32 87.61 201.577 87.3393 201.764 86.994C201.96 86.6393 202.058 86.2287 202.058 85.762ZM204.774 88.338C204.681 88.2073 204.639 88.0393 204.648 87.834C204.657 87.6287 204.779 87.4513 205.012 87.302C205.161 87.2087 205.32 87.1713 205.488 87.19C205.656 87.1993 205.819 87.2833 205.978 87.442C206.249 87.7127 206.533 87.9227 206.832 88.072C207.131 88.2213 207.504 88.296 207.952 88.296C208.092 88.2867 208.246 88.268 208.414 88.24C208.582 88.2027 208.727 88.128 208.848 88.016C208.979 87.8947 209.044 87.7127 209.044 87.47C209.044 87.2647 208.974 87.1013 208.834 86.98C208.694 86.8587 208.507 86.756 208.274 86.672C208.05 86.588 207.798 86.5087 207.518 86.434C207.229 86.35 206.93 86.2567 206.622 86.154C206.323 86.0513 206.048 85.9207 205.796 85.762C205.544 85.594 205.339 85.3747 205.18 85.104C205.021 84.8333 204.942 84.4927 204.942 84.082C204.942 83.6153 205.073 83.2187 205.334 82.892C205.595 82.5653 205.931 82.3133 206.342 82.136C206.762 81.9587 207.201 81.87 207.658 81.87C207.947 81.87 208.251 81.9073 208.568 81.982C208.885 82.0473 209.189 82.1593 209.478 82.318C209.767 82.4673 210.01 82.668 210.206 82.92C210.309 83.06 210.369 83.228 210.388 83.424C210.407 83.62 210.318 83.7973 210.122 83.956C209.982 84.068 209.819 84.1193 209.632 84.11C209.445 84.0913 209.291 84.026 209.17 83.914C209.011 83.7087 208.797 83.5453 208.526 83.424C208.265 83.3027 207.961 83.242 207.616 83.242C207.476 83.242 207.322 83.2607 207.154 83.298C206.995 83.326 206.855 83.396 206.734 83.508C206.613 83.6107 206.552 83.7787 206.552 84.012C206.552 84.2267 206.622 84.3993 206.762 84.53C206.902 84.6513 207.089 84.754 207.322 84.838C207.565 84.9127 207.821 84.9873 208.092 85.062C208.372 85.1367 208.657 85.2253 208.946 85.328C209.235 85.4307 209.501 85.566 209.744 85.734C209.987 85.902 210.183 86.1213 210.332 86.392C210.481 86.6533 210.556 86.9893 210.556 87.4C210.556 87.876 210.416 88.282 210.136 88.618C209.856 88.954 209.506 89.2107 209.086 89.388C208.666 89.556 208.237 89.64 207.798 89.64C207.247 89.64 206.697 89.5467 206.146 89.36C205.595 89.164 205.138 88.8233 204.774 88.338ZM212.046 82.15H215.364C215.588 82.15 215.774 82.2247 215.924 82.374C216.073 82.5233 216.148 82.71 216.148 82.934C216.148 83.1487 216.073 83.3307 215.924 83.48C215.774 83.62 215.588 83.69 215.364 83.69H212.046C211.822 83.69 211.635 83.6153 211.486 83.466C211.336 83.3167 211.262 83.13 211.262 82.906C211.262 82.6913 211.336 82.514 211.486 82.374C211.635 82.2247 211.822 82.15 212.046 82.15ZM213.544 80.4C213.786 80.4 213.982 80.484 214.132 80.652C214.29 80.8107 214.37 81.0113 214.37 81.254V87.484C214.37 87.6147 214.393 87.722 214.44 87.806C214.496 87.89 214.566 87.9507 214.65 87.988C214.743 88.0253 214.841 88.044 214.944 88.044C215.056 88.044 215.158 88.0253 215.252 87.988C215.345 87.9413 215.452 87.918 215.574 87.918C215.704 87.918 215.821 87.9787 215.924 88.1C216.036 88.2213 216.092 88.3893 216.092 88.604C216.092 88.8653 215.947 89.08 215.658 89.248C215.378 89.416 215.074 89.5 214.748 89.5C214.552 89.5 214.332 89.486 214.09 89.458C213.856 89.4207 213.632 89.3413 213.418 89.22C213.212 89.0893 213.04 88.8933 212.9 88.632C212.76 88.3707 212.69 88.0113 212.69 87.554V81.254C212.69 81.0113 212.769 80.8107 212.928 80.652C213.096 80.484 213.301 80.4 213.544 80.4ZM218.6 84.026C218.33 84.026 218.12 83.956 217.97 83.816C217.83 83.6667 217.76 83.4567 217.76 83.186V82.948C217.76 82.6773 217.83 82.472 217.97 82.332C218.12 82.1827 218.33 82.108 218.6 82.108H218.782C219.053 82.108 219.258 82.1827 219.398 82.332C219.548 82.472 219.622 82.6773 219.622 82.948V83.186C219.622 83.4567 219.548 83.6667 219.398 83.816C219.258 83.956 219.053 84.026 218.782 84.026H218.6ZM218.6 89.5C218.33 89.5 218.12 89.43 217.97 89.29C217.83 89.1407 217.76 88.9307 217.76 88.66V88.422C217.76 88.1513 217.83 87.946 217.97 87.806C218.12 87.6567 218.33 87.582 218.6 87.582H218.782C219.053 87.582 219.258 87.6567 219.398 87.806C219.548 87.946 219.622 88.1513 219.622 88.422V88.66C219.622 88.9307 219.548 89.1407 219.398 89.29C219.258 89.43 219.053 89.5 218.782 89.5H218.6Z" fill="#473025"/>
<path d="M227.864 89.5C227.603 89.5 227.388 89.4207 227.22 89.262C227.052 89.094 226.968 88.8887 226.968 88.646V81.59L227.164 81.898L226.142 82.654C226.012 82.7567 225.848 82.808 225.652 82.808C225.428 82.808 225.232 82.724 225.064 82.556C224.896 82.388 224.812 82.1873 224.812 81.954C224.812 81.6553 224.957 81.4127 225.246 81.226L227.262 79.882C227.356 79.8167 227.458 79.77 227.57 79.742C227.692 79.714 227.804 79.7 227.906 79.7C228.177 79.7 228.392 79.784 228.55 79.952C228.709 80.1107 228.788 80.3113 228.788 80.554V88.646C228.788 88.8887 228.7 89.094 228.522 89.262C228.354 89.4207 228.135 89.5 227.864 89.5Z" fill="#EA1644"/>
</svg>
