<svg width="204" height="48" viewBox="0 0 204 48" fill="none" xmlns="http://www.w3.org/2000/svg">
<g filter="url(#filter0_d_964_1459)">
<rect x="2.36816" y="2.36865" width="199" height="40" rx="11.8421" fill="#95B607"/>
<rect x="1.18395" y="1.18444" width="201.368" height="42.3684" rx="13.0263" stroke="#006029" stroke-width="2.36842"/>
</g>
<path d="M71.1269 17.7127C71.4042 17.8513 71.5642 18.07 71.6069 18.3687C71.6602 18.6673 71.5856 18.9393 71.3829 19.1847C71.2442 19.3767 71.0629 19.4833 70.8389 19.5047C70.6256 19.526 70.4069 19.4833 70.1829 19.3767C69.9269 19.2593 69.6549 19.1687 69.3669 19.1047C69.0896 19.0407 68.7962 19.0087 68.4869 19.0087C67.9109 19.0087 67.3936 19.0993 66.9349 19.2807C66.4869 19.462 66.1029 19.7233 65.7829 20.0647C65.4629 20.3953 65.2176 20.79 65.0469 21.2487C64.8869 21.7073 64.8069 22.214 64.8069 22.7687C64.8069 23.4193 64.8976 23.9847 65.0789 24.4647C65.2709 24.9447 65.5322 25.3447 65.8629 25.6647C66.1936 25.9847 66.5829 26.2247 67.0309 26.3847C67.4789 26.534 67.9642 26.6087 68.4869 26.6087C68.7749 26.6087 69.0629 26.582 69.3509 26.5287C69.6389 26.4753 69.9162 26.3793 70.1829 26.2407C70.4069 26.134 70.6256 26.0967 70.8389 26.1287C71.0629 26.1607 71.2496 26.2727 71.3989 26.4647C71.6122 26.7313 71.6869 27.0087 71.6229 27.2967C71.5696 27.574 71.4096 27.7767 71.1429 27.9047C70.8656 28.0433 70.5776 28.1607 70.2789 28.2567C69.9909 28.342 69.6976 28.406 69.3989 28.4487C69.1002 28.502 68.7962 28.5287 68.4869 28.5287C67.7189 28.5287 66.9882 28.406 66.2949 28.1607C65.6122 27.9153 64.9989 27.5527 64.4549 27.0727C63.9216 26.5927 63.5002 25.9953 63.1909 25.2807C62.8816 24.5553 62.7269 23.718 62.7269 22.7687C62.7269 21.9473 62.8656 21.19 63.1429 20.4967C63.4309 19.8033 63.8309 19.206 64.3429 18.7047C64.8656 18.1927 65.4789 17.798 66.1829 17.5207C66.8869 17.2327 67.6549 17.0887 68.4869 17.0887C68.9562 17.0887 69.4149 17.142 69.8629 17.2487C70.3109 17.3553 70.7322 17.51 71.1269 17.7127ZM83.6222 22.7687C83.6222 23.5687 83.4888 24.3153 83.2222 25.0087C82.9555 25.702 82.5768 26.3153 82.0862 26.8487C81.6062 27.3713 81.0302 27.782 80.3582 28.0807C79.6968 28.3793 78.9715 28.5287 78.1822 28.5287C77.3928 28.5287 76.6675 28.3793 76.0062 28.0807C75.3448 27.782 74.7688 27.3713 74.2782 26.8487C73.7982 26.3153 73.4248 25.702 73.1582 25.0087C72.8915 24.3153 72.7582 23.5687 72.7582 22.7687C72.7582 21.9687 72.8915 21.222 73.1582 20.5287C73.4248 19.8353 73.7982 19.2273 74.2782 18.7047C74.7688 18.1713 75.3448 17.7553 76.0062 17.4567C76.6675 17.158 77.3928 17.0087 78.1822 17.0087C78.9715 17.0087 79.6968 17.158 80.3582 17.4567C81.0302 17.7553 81.6062 18.1713 82.0862 18.7047C82.5768 19.2273 82.9555 19.8353 83.2222 20.5287C83.4888 21.222 83.6222 21.9687 83.6222 22.7687ZM81.5422 22.7687C81.5422 22.054 81.3982 21.4087 81.1102 20.8327C80.8222 20.246 80.4275 19.782 79.9262 19.4407C79.4248 19.0993 78.8435 18.9287 78.1822 18.9287C77.5208 18.9287 76.9395 19.0993 76.4382 19.4407C75.9368 19.782 75.5422 20.2407 75.2542 20.8167C74.9768 21.3927 74.8382 22.0433 74.8382 22.7687C74.8382 23.4833 74.9768 24.134 75.2542 24.7207C75.5422 25.2967 75.9368 25.7553 76.4382 26.0967C76.9395 26.438 77.5208 26.6087 78.1822 26.6087C78.8435 26.6087 79.4248 26.438 79.9262 26.0967C80.4275 25.7553 80.8222 25.2967 81.1102 24.7207C81.3982 24.134 81.5422 23.4833 81.5422 22.7687ZM93.9548 17.1687C94.2108 17.1687 94.4188 17.254 94.5788 17.4247C94.7388 17.5953 94.8188 17.8087 94.8188 18.0647V27.3927C94.8188 27.67 94.7228 27.9047 94.5308 28.0967C94.3495 28.278 94.1201 28.3687 93.8428 28.3687C93.7041 28.3687 93.5601 28.3473 93.4108 28.3047C93.2721 28.2513 93.1655 28.182 93.0908 28.0967L86.8028 20.1127L87.2188 19.8567V27.4727C87.2188 27.7287 87.1335 27.942 86.9628 28.1127C86.8028 28.2833 86.5895 28.3687 86.3228 28.3687C86.0668 28.3687 85.8588 28.2833 85.6988 28.1127C85.5388 27.942 85.4588 27.7287 85.4588 27.4727V18.1447C85.4588 17.8673 85.5495 17.638 85.7308 17.4567C85.9228 17.2647 86.1575 17.1687 86.4348 17.1687C86.5841 17.1687 86.7388 17.2007 86.8988 17.2647C87.0588 17.318 87.1761 17.4033 87.2508 17.5207L93.3468 25.2967L93.0748 25.4887V18.0647C93.0748 17.8087 93.1548 17.5953 93.3148 17.4247C93.4748 17.254 93.6881 17.1687 93.9548 17.1687ZM101.016 28.3687C100.718 28.3687 100.472 28.278 100.28 28.0967C100.088 27.9047 99.9924 27.67 99.9924 27.3927V18.1127H102.072V27.3927C102.072 27.67 101.971 27.9047 101.768 28.0967C101.576 28.278 101.326 28.3687 101.016 28.3687ZM97.4804 19.0087C97.2031 19.0087 96.9684 18.9233 96.7764 18.7527C96.5951 18.582 96.5044 18.358 96.5044 18.0807C96.5044 17.8033 96.5951 17.5847 96.7764 17.4247C96.9684 17.254 97.2031 17.1687 97.4804 17.1687H104.584C104.862 17.1687 105.091 17.254 105.272 17.4247C105.464 17.5953 105.56 17.8193 105.56 18.0967C105.56 18.374 105.464 18.598 105.272 18.7687C105.091 18.9287 104.862 19.0087 104.584 19.0087H97.4804ZM109.24 27.3927C109.24 27.67 109.139 27.9047 108.936 28.0967C108.733 28.278 108.499 28.3687 108.232 28.3687C107.933 28.3687 107.693 28.278 107.512 28.0967C107.331 27.9047 107.24 27.67 107.24 27.3927V18.1447C107.24 17.8673 107.336 17.638 107.528 17.4567C107.72 17.2647 107.965 17.1687 108.264 17.1687C108.52 17.1687 108.744 17.2647 108.936 17.4567C109.139 17.638 109.24 17.8673 109.24 18.1447V27.3927ZM120.142 17.1687C120.398 17.1687 120.606 17.254 120.766 17.4247C120.926 17.5953 121.006 17.8087 121.006 18.0647V27.3927C121.006 27.67 120.91 27.9047 120.718 28.0967C120.537 28.278 120.308 28.3687 120.03 28.3687C119.892 28.3687 119.748 28.3473 119.598 28.3047C119.46 28.2513 119.353 28.182 119.278 28.0967L112.99 20.1127L113.406 19.8567V27.4727C113.406 27.7287 113.321 27.942 113.15 28.1127C112.99 28.2833 112.777 28.3687 112.51 28.3687C112.254 28.3687 112.046 28.2833 111.886 28.1127C111.726 27.942 111.646 27.7287 111.646 27.4727V18.1447C111.646 17.8673 111.737 17.638 111.918 17.4567C112.11 17.2647 112.345 17.1687 112.622 17.1687C112.772 17.1687 112.926 17.2007 113.086 17.2647C113.246 17.318 113.364 17.4033 113.438 17.5207L119.534 25.2967L119.262 25.4887V18.0647C119.262 17.8087 119.342 17.5953 119.502 17.4247C119.662 17.254 119.876 17.1687 120.142 17.1687ZM131.364 17.1527C131.641 17.1527 131.865 17.2487 132.036 17.4407C132.207 17.622 132.292 17.8513 132.292 18.1287V23.9207C132.292 24.806 132.1 25.59 131.716 26.2727C131.343 26.9553 130.825 27.4887 130.164 27.8727C129.503 28.2567 128.735 28.4487 127.86 28.4487C126.985 28.4487 126.212 28.2567 125.54 27.8727C124.879 27.4887 124.356 26.9553 123.972 26.2727C123.599 25.59 123.412 24.806 123.412 23.9207V18.1287C123.412 17.8513 123.508 17.622 123.7 17.4407C123.892 17.2487 124.137 17.1527 124.436 17.1527C124.681 17.1527 124.9 17.2487 125.092 17.4407C125.295 17.622 125.396 17.8513 125.396 18.1287V23.9207C125.396 24.454 125.508 24.918 125.732 25.3127C125.967 25.6967 126.271 25.9953 126.644 26.2087C127.028 26.422 127.433 26.5287 127.86 26.5287C128.319 26.5287 128.745 26.422 129.14 26.2087C129.535 25.9953 129.855 25.6967 130.1 25.3127C130.345 24.918 130.468 24.454 130.468 23.9207V18.1287C130.468 17.8513 130.548 17.622 130.708 17.4407C130.868 17.2487 131.087 17.1527 131.364 17.1527ZM135.669 17.1687H141.029C141.306 17.1687 141.536 17.2593 141.717 17.4407C141.909 17.6113 142.005 17.8353 142.005 18.1127C142.005 18.3793 141.909 18.598 141.717 18.7687C141.536 18.9287 141.306 19.0087 141.029 19.0087H136.549L136.693 18.7367V21.8567L136.565 21.7287H140.309C140.586 21.7287 140.816 21.8193 140.997 22.0007C141.189 22.1713 141.285 22.3953 141.285 22.6727C141.285 22.9393 141.189 23.158 140.997 23.3287C140.816 23.4887 140.586 23.5687 140.309 23.5687H136.613L136.693 23.4407V26.6727L136.565 26.5287H141.029C141.306 26.5287 141.536 26.6247 141.717 26.8167C141.909 26.998 142.005 27.2113 142.005 27.4567C142.005 27.7233 141.909 27.942 141.717 28.1127C141.536 28.2833 141.306 28.3687 141.029 28.3687H135.669C135.392 28.3687 135.157 28.278 134.965 28.0967C134.784 27.9047 134.693 27.67 134.693 27.3927V18.1447C134.693 17.8673 134.784 17.638 134.965 17.4567C135.157 17.2647 135.392 17.1687 135.669 17.1687Z" fill="white"/>
<defs>
<filter id="filter0_d_964_1459" x="0" y="0" width="203.736" height="47.8952" filterUnits="userSpaceOnUse" color-interpolation-filters="sRGB">
<feFlood flood-opacity="0" result="BackgroundImageFix"/>
<feColorMatrix in="SourceAlpha" type="matrix" values="0 0 0 0 0 0 0 0 0 0 0 0 0 0 0 0 0 0 127 0" result="hardAlpha"/>
<feOffset dy="3.15789"/>
<feComposite in2="hardAlpha" operator="out"/>
<feColorMatrix type="matrix" values="0 0 0 0 0 0 0 0 0 0.376471 0 0 0 0 0.160784 0 0 0 1 0"/>
<feBlend mode="normal" in2="BackgroundImageFix" result="effect1_dropShadow_964_1459"/>
<feBlend mode="normal" in="SourceGraphic" in2="effect1_dropShadow_964_1459" result="shape"/>
</filter>
</defs>
</svg>
