<svg preserveAspectRatio="none" width="100%" height="100%" overflow="visible" style="display: block;" viewBox="0 0 20 21" fill="none" xmlns="http://www.w3.org/2000/svg">
<g id="Group">
<path id="Vector" fill-rule="evenodd" clip-rule="evenodd" d="M10.593 19.758L10.582 19.76L10.511 19.795L10.491 19.799L10.477 19.795L10.406 19.76C10.3953 19.7567 10.3873 19.7583 10.382 19.765L10.378 19.775L10.361 20.203L10.366 20.223L10.376 20.236L10.48 20.31L10.495 20.314L10.507 20.31L10.611 20.236L10.623 20.22L10.627 20.203L10.61 19.776C10.6073 19.7653 10.6017 19.7593 10.593 19.758ZM10.858 19.645L10.845 19.647L10.66 19.74L10.65 19.75L10.647 19.761L10.665 20.191L10.67 20.203L10.678 20.21L10.879 20.303C10.8917 20.3063 10.9013 20.3037 10.908 20.295L10.912 20.281L10.878 19.667C10.8747 19.655 10.868 19.6477 10.858 19.645ZM10.143 19.647C10.1386 19.6443 10.1333 19.6435 10.1283 19.6446C10.1233 19.6457 10.1189 19.6487 10.116 19.653L10.11 19.667L10.076 20.281C10.0767 20.293 10.0823 20.301 10.093 20.305L10.108 20.303L10.309 20.21L10.319 20.202L10.323 20.191L10.34 19.761L10.337 19.749L10.327 19.739L10.143 19.647Z" fill="var(--fill-0, #C8A787)"/>
<path id="Vector_2" fill-rule="evenodd" clip-rule="evenodd" d="M9.121 17.115C8.84615 16.9456 8.56129 16.793 8.268 16.658C7.535 16.319 6.557 16 5.5 16C4.221 16 3.062 16.468 2.32 16.862C2.08587 16.9848 1.82482 17.0473 1.56047 17.0438C1.29611 17.0403 1.0368 16.9709 0.806 16.842C0.563261 16.7116 0.360237 16.5181 0.21837 16.2819C0.0765021 16.0457 0.00105625 15.7755 0 15.5V3C0 2.379 0.295 1.737 0.898 1.371C1.672 0.901 3.414 0 5.5 0C7.081 0 8.645 0.51 10 1.31C11.355 0.51 12.919 0 14.5 0C16.586 0 18.328 0.9 19.102 1.371C19.705 1.737 20 2.379 20 3V15.5C20 16.133 19.621 16.606 19.194 16.842C18.9631 16.9711 18.7036 17.0406 18.439 17.0441C18.1745 17.0476 17.9133 16.985 17.679 16.862C16.938 16.468 15.779 16 14.5 16C13.443 16 12.465 16.32 11.732 16.658C11.4387 16.793 11.1539 16.9456 10.879 17.115C10.595 17.292 10.355 17.5 10.001 17.5C9.645 17.5 9.406 17.292 9.121 17.115ZM2 14.794V3.042C2.673 2.642 4 2 5.5 2C6.73 2 7.948 2.418 9 3.042V14.794C8.115 14.398 6.887 14 5.5 14C4.119 14 2.891 14.395 2 14.794ZM11 14.794C11.885 14.398 13.113 14 14.5 14C15.881 14 17.109 14.395 18 14.794V3.042C17.327 2.642 16 2 14.5 2C13.27 2 12.052 2.418 11 3.042V14.794Z" fill="var(--fill-0, #C8A787)"/>
</g>
</svg>
