<svg width="871" height="58" viewBox="0 0 871 58" fill="none" xmlns="http://www.w3.org/2000/svg">
<mask id="path-1-inside-1_1238_1284" fill="white">
<path d="M831.218 13.9189C838.515 -4.21312 860.244 -4.18457 865.813 11.4112C866.121 12.2739 865.104 13.0152 864.252 12.6788C857.543 10.0309 849.307 14.6804 848.819 22.4844L848.807 22.7653C848.803 22.8562 848.811 22.9473 848.832 23.036L848.907 23.3604C850.994 31.6132 860.33 33.5396 867.816 26.5932C868.614 25.8533 870.225 26.6153 870.003 27.6802L869.017 32.4001C868.974 32.6062 869.131 32.7998 869.342 32.7998C869.681 32.7998 869.802 33.2481 869.509 33.4186L868.733 33.8701C868.716 33.8801 868.704 33.8968 868.7 33.9162C868.693 33.9485 868.665 33.9717 868.632 33.9717H868.592C868.571 33.9717 868.55 33.9772 868.532 33.9878L862.672 37.3996C862.559 37.4659 862.433 37.509 862.302 37.5265L853.391 38.7218C852.428 38.8508 852.274 39.9741 853.216 40.2128C855.195 40.715 857.743 41 861 41H864C864.552 41 865 41.4477 865 42V57C865 57.5523 864.552 58 864 58H1.00002C0.447735 58 0 57.5523 0 57V42C0 41.4477 0.465495 41.0011 1.01763 40.9885C22.8321 40.4879 20.8749 23.7976 24.9746 13.9189C32.5053 -4.22643 54.942 -4.18454 60.6646 11.4455C60.9782 12.3022 59.9779 13.0457 59.1286 12.7125C52.1081 9.95786 43.4179 14.7644 43.1105 22.778C43.1074 22.8597 43.1156 22.9446 43.134 23.0243C45.2595 32.2082 56.4226 33.9092 64.4603 24.8279C64.5603 24.7149 64.6338 24.5777 64.6727 24.4319C65.6599 20.73 66.3397 16.9944 67.5967 13.9189C75.0107 -4.21975 97.0933 -4.18451 102.739 11.4286C103.05 12.2883 102.041 13.0307 101.19 12.6959C94.2831 9.9771 85.7579 14.7813 85.4571 22.7798C85.4541 22.8603 85.462 22.944 85.4799 23.0226C87.5695 32.1962 98.5385 33.905 106.453 24.8625C106.551 24.7505 106.623 24.6149 106.661 24.4711C107.654 20.7564 108.335 17.0054 109.597 13.9189C117.011 -4.21975 139.093 -4.18451 144.739 11.4286C145.05 12.2883 144.041 13.0307 143.19 12.6959C136.283 9.9771 127.758 14.7813 127.457 22.7798C127.454 22.8603 127.462 22.944 127.48 23.0226C129.614 32.3933 141.014 33.9755 148.959 24.2652C149.047 24.1572 149.112 24.029 149.148 23.894C150.075 20.3697 150.76 16.8457 151.975 13.9189C159.505 -4.22643 181.942 -4.18454 187.665 11.4455C187.978 12.3022 186.978 13.0457 186.129 12.7125C179.108 9.95786 170.418 14.7644 170.111 22.778C170.107 22.8597 170.116 22.9446 170.134 23.0243C172.26 32.2082 183.423 33.9092 191.46 24.8279C191.56 24.7149 191.634 24.5777 191.673 24.4319C192.66 20.73 193.34 16.9944 194.597 13.9189C202.011 -4.21975 224.093 -4.18451 229.739 11.4286C230.05 12.2883 229.041 13.0307 228.19 12.6959C221.283 9.9771 212.758 14.7813 212.457 22.7798C212.454 22.8603 212.462 22.944 212.48 23.0226C214.614 32.3933 226.014 33.9755 233.959 24.2652C234.047 24.1572 234.112 24.029 234.148 23.894C235.075 20.3697 235.76 16.8457 236.975 13.9189C244.505 -4.22643 266.942 -4.18454 272.665 11.4455C272.978 12.3022 271.978 13.0457 271.129 12.7125C264.108 9.95786 255.418 14.7644 255.111 22.778C255.107 22.8597 255.116 22.9445 255.134 23.0242C257.173 31.8356 267.532 33.7591 275.468 25.8807C275.584 25.7648 275.671 25.6187 275.717 25.4607C276.884 21.4287 277.58 17.2799 278.975 13.9189C286.505 -4.22643 308.942 -4.18454 314.665 11.4455C314.978 12.3022 313.978 13.0457 313.129 12.7125C306.108 9.95786 297.418 14.7644 297.111 22.778C297.107 22.8597 297.116 22.9446 297.134 23.0243C299.26 32.2082 310.423 33.9092 318.46 24.8279C318.56 24.7149 318.634 24.5777 318.673 24.4319C319.66 20.73 320.34 16.9944 321.597 13.9189C329.011 -4.21975 351.093 -4.18451 356.739 11.4286C357.05 12.2883 356.041 13.0307 355.19 12.6959C348.283 9.9771 339.758 14.7813 339.457 22.7798C339.454 22.8603 339.462 22.944 339.48 23.0226C341.614 32.3933 353.014 33.9755 360.959 24.2652C361.047 24.1572 361.112 24.029 361.148 23.894C362.075 20.3697 362.76 16.8457 363.975 13.9189C371.505 -4.22643 393.942 -4.18454 399.665 11.4455C399.978 12.3022 398.978 13.0457 398.129 12.7125C391.108 9.95786 382.418 14.7644 382.111 22.778C382.107 22.8597 382.116 22.9446 382.134 23.0243C384.26 32.2082 395.423 33.9092 403.46 24.8279C403.56 24.7149 403.634 24.5777 403.673 24.4319C404.66 20.73 405.34 16.9944 406.597 13.9189C414.011 -4.21975 436.093 -4.18451 441.739 11.4286C442.05 12.2883 441.041 13.0307 440.19 12.6959C433.283 9.9771 424.758 14.7813 424.457 22.7798C424.454 22.8603 424.462 22.944 424.48 23.0226C426.57 32.1962 437.538 33.905 445.453 24.8625C445.551 24.7505 445.623 24.6149 445.661 24.4711C446.654 20.7564 447.335 17.0054 448.597 13.9189C456.011 -4.21975 478.093 -4.18451 483.739 11.4286C484.05 12.2883 483.041 13.0307 482.19 12.6959C475.283 9.9771 466.758 14.7813 466.457 22.7798C466.454 22.8603 466.462 22.944 466.48 23.0226C468.614 32.3933 480.014 33.9755 487.959 24.2652C488.047 24.1572 488.112 24.029 488.148 23.894C489.075 20.3697 489.76 16.8457 490.975 13.9189C498.505 -4.22643 520.942 -4.18454 526.665 11.4455C526.978 12.3022 525.978 13.0457 525.129 12.7125C518.108 9.95786 509.418 14.7644 509.111 22.778C509.107 22.8597 509.116 22.9446 509.134 23.0243C511.304 32.4007 522.895 33.9772 530.961 24.2426C531.052 24.1335 531.119 24.0034 531.154 23.8663C532.078 20.3512 532.763 16.838 533.975 13.9189C541.505 -4.22643 563.942 -4.18454 569.665 11.4455C569.978 12.3022 568.978 13.0457 568.129 12.7125C561.108 9.95786 552.418 14.7644 552.111 22.778C552.107 22.8597 552.116 22.9445 552.134 23.0242C554.173 31.8356 564.532 33.7591 572.468 25.8807C572.584 25.7648 572.671 25.6187 572.717 25.4607C573.884 21.4287 574.58 17.2799 575.975 13.9189C583.505 -4.22643 605.942 -4.18454 611.665 11.4455C611.978 12.3022 610.978 13.0457 610.129 12.7125C603.108 9.95786 594.418 14.7644 594.111 22.778C594.107 22.8597 594.116 22.9445 594.134 23.0242C596.173 31.8356 606.532 33.7591 614.468 25.8807C614.584 25.7648 614.671 25.6187 614.717 25.4607C615.884 21.4287 616.58 17.2799 617.975 13.9189C625.505 -4.22643 647.942 -4.18454 653.665 11.4455C653.978 12.3022 652.978 13.0457 652.129 12.7125C645.108 9.95786 636.418 14.7644 636.111 22.778C636.107 22.8597 636.116 22.9447 636.134 23.0244C638.31 32.4248 649.956 33.9867 658.025 24.169C658.255 23.89 658.74 24.1079 658.664 24.4609C659.655 20.7495 660.336 17.0025 661.597 13.9189C669.011 -4.21975 691.093 -4.18451 696.739 11.4286C697.05 12.2883 696.041 13.0307 695.19 12.6959C688.283 9.9771 679.758 14.7813 679.457 22.7798C679.454 22.8603 679.462 22.9441 679.48 23.0227C681.66 32.5922 693.504 34.0401 701.461 23.6324C701.542 23.5263 701.602 23.4019 701.634 23.2722C702.456 19.9572 703.109 16.6734 704.218 13.9189C711.515 -4.21312 733.244 -4.18457 738.813 11.4112C739.121 12.2739 738.104 13.0152 737.252 12.6788C730.543 10.0309 722.307 14.6804 721.819 22.4844L721.807 22.7653C721.803 22.8562 721.811 22.9473 721.832 23.036L721.907 23.3604C724.249 32.6221 735.72 33.9156 743.461 23.643C743.54 23.5382 743.599 23.4159 743.63 23.2884C744.454 19.9679 745.107 16.6779 746.218 13.9189C753.515 -4.21312 775.244 -4.18457 780.813 11.4112C781.121 12.2739 780.104 13.0152 779.252 12.6788C772.543 10.0309 764.307 14.6804 763.819 22.4844L763.807 22.7653C763.803 22.8562 763.811 22.9473 763.832 23.036L763.907 23.3604C766.219 32.5054 777.433 33.8822 785.168 24.026C785.36 23.7815 785.778 23.9644 785.714 24.2686C786.678 20.6201 787.358 16.9494 788.597 13.9189C796.011 -4.21975 818.093 -4.18451 823.739 11.4286C824.05 12.2883 823.041 13.0307 822.19 12.6959C815.283 9.9771 806.758 14.7813 806.457 22.7798C806.454 22.8603 806.462 22.9441 806.48 23.0227C808.66 32.5922 820.504 34.0401 828.461 23.6324C828.542 23.5263 828.602 23.4019 828.634 23.2722C829.456 19.9572 830.109 16.6734 831.218 13.9189Z"/>
</mask>
<path d="M831.218 13.9189C838.515 -4.21312 860.244 -4.18457 865.813 11.4112C866.121 12.2739 865.104 13.0152 864.252 12.6788C857.543 10.0309 849.307 14.6804 848.819 22.4844L848.807 22.7653C848.803 22.8562 848.811 22.9473 848.832 23.036L848.907 23.3604C850.994 31.6132 860.33 33.5396 867.816 26.5932C868.614 25.8533 870.225 26.6153 870.003 27.6802L869.017 32.4001C868.974 32.6062 869.131 32.7998 869.342 32.7998C869.681 32.7998 869.802 33.2481 869.509 33.4186L868.733 33.8701C868.716 33.8801 868.704 33.8968 868.7 33.9162C868.693 33.9485 868.665 33.9717 868.632 33.9717H868.592C868.571 33.9717 868.55 33.9772 868.532 33.9878L862.672 37.3996C862.559 37.4659 862.433 37.509 862.302 37.5265L853.391 38.7218C852.428 38.8508 852.274 39.9741 853.216 40.2128C855.195 40.715 857.743 41 861 41H864C864.552 41 865 41.4477 865 42V57C865 57.5523 864.552 58 864 58H1.00002C0.447735 58 0 57.5523 0 57V42C0 41.4477 0.465495 41.0011 1.01763 40.9885C22.8321 40.4879 20.8749 23.7976 24.9746 13.9189C32.5053 -4.22643 54.942 -4.18454 60.6646 11.4455C60.9782 12.3022 59.9779 13.0457 59.1286 12.7125C52.1081 9.95786 43.4179 14.7644 43.1105 22.778C43.1074 22.8597 43.1156 22.9446 43.134 23.0243C45.2595 32.2082 56.4226 33.9092 64.4603 24.8279C64.5603 24.7149 64.6338 24.5777 64.6727 24.4319C65.6599 20.73 66.3397 16.9944 67.5967 13.9189C75.0107 -4.21975 97.0933 -4.18451 102.739 11.4286C103.05 12.2883 102.041 13.0307 101.19 12.6959C94.2831 9.9771 85.7579 14.7813 85.4571 22.7798C85.4541 22.8603 85.462 22.944 85.4799 23.0226C87.5695 32.1962 98.5385 33.905 106.453 24.8625C106.551 24.7505 106.623 24.6149 106.661 24.4711C107.654 20.7564 108.335 17.0054 109.597 13.9189C117.011 -4.21975 139.093 -4.18451 144.739 11.4286C145.05 12.2883 144.041 13.0307 143.19 12.6959C136.283 9.9771 127.758 14.7813 127.457 22.7798C127.454 22.8603 127.462 22.944 127.48 23.0226C129.614 32.3933 141.014 33.9755 148.959 24.2652C149.047 24.1572 149.112 24.029 149.148 23.894C150.075 20.3697 150.76 16.8457 151.975 13.9189C159.505 -4.22643 181.942 -4.18454 187.665 11.4455C187.978 12.3022 186.978 13.0457 186.129 12.7125C179.108 9.95786 170.418 14.7644 170.111 22.778C170.107 22.8597 170.116 22.9446 170.134 23.0243C172.26 32.2082 183.423 33.9092 191.46 24.8279C191.56 24.7149 191.634 24.5777 191.673 24.4319C192.66 20.73 193.34 16.9944 194.597 13.9189C202.011 -4.21975 224.093 -4.18451 229.739 11.4286C230.05 12.2883 229.041 13.0307 228.19 12.6959C221.283 9.9771 212.758 14.7813 212.457 22.7798C212.454 22.8603 212.462 22.944 212.48 23.0226C214.614 32.3933 226.014 33.9755 233.959 24.2652C234.047 24.1572 234.112 24.029 234.148 23.894C235.075 20.3697 235.76 16.8457 236.975 13.9189C244.505 -4.22643 266.942 -4.18454 272.665 11.4455C272.978 12.3022 271.978 13.0457 271.129 12.7125C264.108 9.95786 255.418 14.7644 255.111 22.778C255.107 22.8597 255.116 22.9445 255.134 23.0242C257.173 31.8356 267.532 33.7591 275.468 25.8807C275.584 25.7648 275.671 25.6187 275.717 25.4607C276.884 21.4287 277.58 17.2799 278.975 13.9189C286.505 -4.22643 308.942 -4.18454 314.665 11.4455C314.978 12.3022 313.978 13.0457 313.129 12.7125C306.108 9.95786 297.418 14.7644 297.111 22.778C297.107 22.8597 297.116 22.9446 297.134 23.0243C299.26 32.2082 310.423 33.9092 318.46 24.8279C318.56 24.7149 318.634 24.5777 318.673 24.4319C319.66 20.73 320.34 16.9944 321.597 13.9189C329.011 -4.21975 351.093 -4.18451 356.739 11.4286C357.05 12.2883 356.041 13.0307 355.19 12.6959C348.283 9.9771 339.758 14.7813 339.457 22.7798C339.454 22.8603 339.462 22.944 339.48 23.0226C341.614 32.3933 353.014 33.9755 360.959 24.2652C361.047 24.1572 361.112 24.029 361.148 23.894C362.075 20.3697 362.76 16.8457 363.975 13.9189C371.505 -4.22643 393.942 -4.18454 399.665 11.4455C399.978 12.3022 398.978 13.0457 398.129 12.7125C391.108 9.95786 382.418 14.7644 382.111 22.778C382.107 22.8597 382.116 22.9446 382.134 23.0243C384.26 32.2082 395.423 33.9092 403.46 24.8279C403.56 24.7149 403.634 24.5777 403.673 24.4319C404.66 20.73 405.34 16.9944 406.597 13.9189C414.011 -4.21975 436.093 -4.18451 441.739 11.4286C442.05 12.2883 441.041 13.0307 440.19 12.6959C433.283 9.9771 424.758 14.7813 424.457 22.7798C424.454 22.8603 424.462 22.944 424.48 23.0226C426.57 32.1962 437.538 33.905 445.453 24.8625C445.551 24.7505 445.623 24.6149 445.661 24.4711C446.654 20.7564 447.335 17.0054 448.597 13.9189C456.011 -4.21975 478.093 -4.18451 483.739 11.4286C484.05 12.2883 483.041 13.0307 482.19 12.6959C475.283 9.9771 466.758 14.7813 466.457 22.7798C466.454 22.8603 466.462 22.944 466.48 23.0226C468.614 32.3933 480.014 33.9755 487.959 24.2652C488.047 24.1572 488.112 24.029 488.148 23.894C489.075 20.3697 489.76 16.8457 490.975 13.9189C498.505 -4.22643 520.942 -4.18454 526.665 11.4455C526.978 12.3022 525.978 13.0457 525.129 12.7125C518.108 9.95786 509.418 14.7644 509.111 22.778C509.107 22.8597 509.116 22.9446 509.134 23.0243C511.304 32.4007 522.895 33.9772 530.961 24.2426C531.052 24.1335 531.119 24.0034 531.154 23.8663C532.078 20.3512 532.763 16.838 533.975 13.9189C541.505 -4.22643 563.942 -4.18454 569.665 11.4455C569.978 12.3022 568.978 13.0457 568.129 12.7125C561.108 9.95786 552.418 14.7644 552.111 22.778C552.107 22.8597 552.116 22.9445 552.134 23.0242C554.173 31.8356 564.532 33.7591 572.468 25.8807C572.584 25.7648 572.671 25.6187 572.717 25.4607C573.884 21.4287 574.58 17.2799 575.975 13.9189C583.505 -4.22643 605.942 -4.18454 611.665 11.4455C611.978 12.3022 610.978 13.0457 610.129 12.7125C603.108 9.95786 594.418 14.7644 594.111 22.778C594.107 22.8597 594.116 22.9445 594.134 23.0242C596.173 31.8356 606.532 33.7591 614.468 25.8807C614.584 25.7648 614.671 25.6187 614.717 25.4607C615.884 21.4287 616.58 17.2799 617.975 13.9189C625.505 -4.22643 647.942 -4.18454 653.665 11.4455C653.978 12.3022 652.978 13.0457 652.129 12.7125C645.108 9.95786 636.418 14.7644 636.111 22.778C636.107 22.8597 636.116 22.9447 636.134 23.0244C638.31 32.4248 649.956 33.9867 658.025 24.169C658.255 23.89 658.74 24.1079 658.664 24.4609C659.655 20.7495 660.336 17.0025 661.597 13.9189C669.011 -4.21975 691.093 -4.18451 696.739 11.4286C697.05 12.2883 696.041 13.0307 695.19 12.6959C688.283 9.9771 679.758 14.7813 679.457 22.7798C679.454 22.8603 679.462 22.9441 679.48 23.0227C681.66 32.5922 693.504 34.0401 701.461 23.6324C701.542 23.5263 701.602 23.4019 701.634 23.2722C702.456 19.9572 703.109 16.6734 704.218 13.9189C711.515 -4.21312 733.244 -4.18457 738.813 11.4112C739.121 12.2739 738.104 13.0152 737.252 12.6788C730.543 10.0309 722.307 14.6804 721.819 22.4844L721.807 22.7653C721.803 22.8562 721.811 22.9473 721.832 23.036L721.907 23.3604C724.249 32.6221 735.72 33.9156 743.461 23.643C743.54 23.5382 743.599 23.4159 743.63 23.2884C744.454 19.9679 745.107 16.6779 746.218 13.9189C753.515 -4.21312 775.244 -4.18457 780.813 11.4112C781.121 12.2739 780.104 13.0152 779.252 12.6788C772.543 10.0309 764.307 14.6804 763.819 22.4844L763.807 22.7653C763.803 22.8562 763.811 22.9473 763.832 23.036L763.907 23.3604C766.219 32.5054 777.433 33.8822 785.168 24.026C785.36 23.7815 785.778 23.9644 785.714 24.2686C786.678 20.6201 787.358 16.9494 788.597 13.9189C796.011 -4.21975 818.093 -4.18451 823.739 11.4286C824.05 12.2883 823.041 13.0307 822.19 12.6959C815.283 9.9771 806.758 14.7813 806.457 22.7798C806.454 22.8603 806.462 22.9441 806.48 23.0227C808.66 32.5922 820.504 34.0401 828.461 23.6324C828.542 23.5263 828.602 23.4019 828.634 23.2722C829.456 19.9572 830.109 16.6734 831.218 13.9189Z" fill="#87D5FF"/>
<path d="M831.218 13.9189L828.435 12.7989V12.7989L831.218 13.9189ZM848.819 22.4844L845.825 22.2972L845.823 22.3242L845.822 22.3513L848.819 22.4844ZM848.907 23.3604L845.985 24.0395L845.992 24.0676L845.999 24.0957L848.907 23.3604ZM24.9746 13.9189L22.2038 12.769L22.2038 12.769L24.9746 13.9189ZM67.5967 13.9189L64.8197 12.7839L64.8197 12.7839L67.5967 13.9189ZM109.597 13.9189L106.82 12.7839L106.82 12.7839L109.597 13.9189ZM151.975 13.9189L149.204 12.769L149.204 12.769L151.975 13.9189ZM194.597 13.9189L191.82 12.7839L191.82 12.7839L194.597 13.9189ZM236.975 13.9189L234.204 12.769L234.204 12.769L236.975 13.9189ZM278.975 13.9189L276.204 12.769V12.769L278.975 13.9189ZM321.597 13.9189L318.82 12.7839L318.82 12.7839L321.597 13.9189ZM363.975 13.9189L361.204 12.769V12.769L363.975 13.9189ZM406.597 13.9189L403.82 12.7839L403.82 12.7839L406.597 13.9189ZM448.597 13.9189L445.82 12.7839L445.82 12.7839L448.597 13.9189ZM490.975 13.9189L488.204 12.769V12.769L490.975 13.9189ZM533.975 13.9189L531.204 12.769V12.769L533.975 13.9189ZM575.975 13.9189L573.204 12.769V12.769L575.975 13.9189ZM617.975 13.9189L615.204 12.769V12.769L617.975 13.9189ZM658.664 24.4609L655.731 23.8288L661.562 25.2351L658.664 24.4609ZM661.597 13.9189L658.82 12.7839V12.7839L661.597 13.9189ZM704.218 13.9189L701.435 12.7989V12.7989L704.218 13.9189ZM721.819 22.4844L718.825 22.2972L718.823 22.3242L718.822 22.3513L721.819 22.4844ZM721.907 23.3604L718.985 24.0395L718.992 24.0676L718.999 24.0957L721.907 23.3604ZM746.218 13.9189L743.435 12.7989V12.7989L746.218 13.9189ZM763.819 22.4844L760.825 22.2972L760.823 22.3242L760.822 22.3513L763.819 22.4844ZM763.907 23.3604L760.985 24.0395L760.992 24.0676L760.999 24.0957L763.907 23.3604ZM785.714 24.2686L782.778 23.6536L788.614 25.0349L785.714 24.2686ZM788.597 13.9189L785.82 12.7839V12.7839L788.597 13.9189ZM828.461 23.6324L830.844 25.4545L828.461 23.6324ZM828.634 23.2722L825.722 22.55L828.634 23.2722ZM823.739 11.4286L826.56 10.4085L823.739 11.4286ZM822.19 12.6959L823.289 9.90431L822.19 12.6959ZM785.168 24.026L787.528 25.8781L785.168 24.026ZM763.807 22.7653L766.804 22.8983L763.807 22.7653ZM763.832 23.036L766.754 22.3569L763.832 23.036ZM780.813 11.4112L783.638 10.4023L780.813 11.4112ZM779.252 12.6788L778.15 15.4693L779.252 12.6788ZM743.461 23.643L741.065 21.8375L743.461 23.643ZM743.63 23.2884L746.542 24.0111L743.63 23.2884ZM721.807 22.7653L724.804 22.8983L721.807 22.7653ZM721.832 23.036L724.754 22.3569L721.832 23.036ZM738.813 11.4112L741.638 10.4023L738.813 11.4112ZM737.252 12.6788L736.15 15.4693L737.252 12.6788ZM701.461 23.6324L703.844 25.4545L701.461 23.6324ZM701.634 23.2722L698.722 22.55L701.634 23.2722ZM679.457 22.7798L682.455 22.8926L679.457 22.7798ZM679.48 23.0227L676.555 23.689L679.48 23.0227ZM696.739 11.4286L699.56 10.4085L696.739 11.4286ZM695.19 12.6959L696.289 9.90431L695.19 12.6959ZM658.025 24.169L655.708 22.2641L658.025 24.169ZM636.111 22.778L633.113 22.663L636.111 22.778ZM636.134 23.0244L639.057 22.3479L636.134 23.0244ZM653.665 11.4455L656.482 10.4141L653.665 11.4455ZM652.129 12.7125L653.224 9.91974L652.129 12.7125ZM614.468 25.8807L616.581 28.0097L614.468 25.8807ZM614.717 25.4607L617.598 26.2951L614.717 25.4607ZM594.111 22.778L591.113 22.663L594.111 22.778ZM594.134 23.0242L597.057 22.3478L594.134 23.0242ZM611.665 11.4455L614.482 10.4141L611.665 11.4455ZM610.129 12.7125L611.224 9.91974L610.129 12.7125ZM572.468 25.8807L574.581 28.0097L572.468 25.8807ZM572.717 25.4607L575.598 26.2951L572.717 25.4607ZM552.111 22.778L549.113 22.663L552.111 22.778ZM552.134 23.0242L555.057 22.3478L552.134 23.0242ZM569.665 11.4455L572.482 10.4141L569.665 11.4455ZM568.129 12.7125L569.224 9.91974L568.129 12.7125ZM530.961 24.2426L528.651 22.3284L530.961 24.2426ZM531.154 23.8663L534.056 24.6286L531.154 23.8663ZM509.111 22.778L512.108 22.8929L509.111 22.778ZM509.134 23.0243L506.211 23.7007L509.134 23.0243ZM526.665 11.4455L529.482 10.4141L526.665 11.4455ZM525.129 12.7125L526.224 9.91974L525.129 12.7125ZM466.457 22.7798L469.455 22.8926L466.457 22.7798ZM466.48 23.0226L469.405 22.3563L466.48 23.0226ZM398.129 12.7125L399.224 9.91974L398.129 12.7125ZM360.959 24.2652L363.281 26.1649L360.959 24.2652ZM361.148 23.894L364.049 24.6572L361.148 23.894ZM356.739 11.4286L359.56 10.4085L356.739 11.4286ZM355.19 12.6959L356.289 9.90431L355.19 12.6959ZM318.46 24.8279L316.214 22.8396L318.46 24.8279ZM318.673 24.4319L321.571 25.2049L318.673 24.4319ZM297.111 22.778L300.108 22.8929L297.111 22.778ZM297.134 23.0243L294.211 23.7007L297.134 23.0243ZM313.129 12.7125L314.224 9.91974L313.129 12.7125ZM275.468 25.8807L277.581 28.0097L275.468 25.8807ZM275.717 25.4607L278.598 26.2951L275.717 25.4607ZM255.111 22.778L252.113 22.663L255.111 22.778ZM255.134 23.0242L258.057 22.3478L255.134 23.0242ZM271.129 12.7125L272.224 9.91974L271.129 12.7125ZM233.959 24.2652L236.281 26.1649L233.959 24.2652ZM234.148 23.894L237.049 24.6572L234.148 23.894ZM212.457 22.7798L209.459 22.6671L212.457 22.7798ZM212.48 23.0226L209.555 23.6889L212.48 23.0226ZM229.739 11.4286L232.56 10.4085L229.739 11.4286ZM228.19 12.6959L227.092 15.4874L228.19 12.6959ZM191.46 24.8279L189.214 22.8396L191.46 24.8279ZM191.673 24.4319L194.571 25.2049L191.673 24.4319ZM170.111 22.778L173.108 22.8929L170.111 22.778ZM170.134 23.0243L167.211 23.7007L170.134 23.0243ZM187.665 11.4455L190.482 10.4141L187.665 11.4455ZM186.129 12.7125L185.033 15.5052L186.129 12.7125ZM144.739 11.4286L147.56 10.4085L144.739 11.4286ZM143.19 12.6959L142.092 15.4874L143.19 12.6959ZM106.453 24.8625L104.195 22.8867L106.453 24.8625ZM106.661 24.4711L109.56 25.2458L106.661 24.4711ZM102.739 11.4286L105.56 10.4085L102.739 11.4286ZM101.19 12.6959L100.092 15.4874L101.19 12.6959ZM64.4603 24.8279L66.7068 26.8162L64.4603 24.8279ZM64.6727 24.4319L67.5714 25.2049L64.6727 24.4319ZM43.1105 22.778L46.1083 22.8929L43.1105 22.778ZM43.134 23.0243L40.2113 23.7007L43.134 23.0243ZM59.1286 12.7125L60.2244 9.91974L59.1286 12.7125ZM1.01763 40.9885L1.08646 43.9877L1.01763 40.9885ZM862.672 37.3996L861.163 34.807L862.672 37.3996ZM862.302 37.5265L862.701 40.4999L862.302 37.5265ZM445.453 24.8625L443.195 22.8867L445.453 24.8625ZM445.661 24.4711L448.56 25.2458L445.661 24.4711ZM868.532 33.9878L867.022 31.3953L868.532 33.9878ZM424.457 22.7798L427.455 22.8926L424.457 22.7798ZM424.48 23.0226L427.405 22.3563L424.48 23.0226ZM868.7 33.9162L871.639 34.5174L868.7 33.9162ZM441.739 11.4286L444.56 10.4085L441.739 11.4286ZM440.19 12.6959L441.289 9.90431L440.19 12.6959ZM868.733 33.8701L867.224 31.2772L868.733 33.8701ZM869.509 33.4186L871.018 36.0115L869.509 33.4186ZM127.457 22.7798L124.459 22.6671L127.457 22.7798ZM127.48 23.0226L124.555 23.6889L127.48 23.0226ZM382.111 22.778L385.108 22.8929L382.111 22.778ZM382.134 23.0243L379.211 23.7007L382.134 23.0243ZM867.816 26.5932L869.857 28.7924L867.816 26.5932ZM870.003 27.6802L867.066 27.067L870.003 27.6802ZM487.959 24.2652L490.281 26.1649L487.959 24.2652ZM488.148 23.894L491.049 24.6572L488.148 23.894ZM848.807 22.7653L851.804 22.8983L848.807 22.7653ZM848.832 23.036L851.754 22.3569L848.832 23.036ZM148.959 24.2652L151.281 26.1649L148.959 24.2652ZM149.148 23.894L152.049 24.6572L149.148 23.894ZM403.46 24.8279L401.214 22.8396L403.46 24.8279ZM403.673 24.4319L406.571 25.2049L403.673 24.4319ZM869.017 32.4001L871.954 33.0132L869.017 32.4001ZM483.739 11.4286L486.56 10.4085L483.739 11.4286ZM482.19 12.6959L483.289 9.90431L482.19 12.6959ZM853.391 38.7218L852.992 35.7484L853.391 38.7218ZM853.216 40.2128L852.478 43.1207L853.216 40.2128ZM85.4571 22.7798L82.4592 22.6671L85.4571 22.7798ZM85.4799 23.0226L82.5548 23.6889L85.4799 23.0226ZM339.457 22.7798L342.455 22.8926L339.457 22.7798ZM339.48 23.0226L342.405 22.3563L339.48 23.0226ZM806.457 22.7798L809.455 22.8926L806.457 22.7798ZM806.48 23.0227L803.555 23.689L806.48 23.0227ZM865.813 11.4112L868.638 10.4023L865.813 11.4112ZM864.252 12.6788L863.15 15.4693L864.252 12.6788ZM831.218 13.9189L834.001 15.039C837.238 6.99618 843.502 3.26924 849.296 3.01423C855.093 2.75906 860.67 5.92823 862.988 12.42L865.813 11.4112L868.638 10.4023C865.388 1.29836 857.316 -3.34461 849.032 -2.97997C840.744 -2.61518 832.495 2.70965 828.435 12.7989L831.218 13.9189ZM864.252 12.6788L865.353 9.88832C856.863 6.53748 846.448 12.3389 845.825 22.2972L848.819 22.4844L851.813 22.6716C852.167 17.0218 858.222 13.5242 863.15 15.4693L864.252 12.6788ZM848.819 22.4844L845.822 22.3513L845.81 22.6322L848.807 22.7653L851.804 22.8983L851.816 22.6174L848.819 22.4844ZM848.832 23.036L845.91 23.7151L845.985 24.0395L848.907 23.3604L851.829 22.6812L851.754 22.3569L848.832 23.036ZM848.907 23.3604L845.999 24.0957C847.315 29.303 851.054 32.7612 855.798 33.6277C860.445 34.4766 865.572 32.7679 869.857 28.7924L867.816 26.5932L865.776 24.3941C862.574 27.365 859.289 28.1662 856.876 27.7253C854.558 27.302 852.586 25.6705 851.816 22.625L848.907 23.3604ZM870.003 27.6802L867.066 27.067L866.08 31.7869L869.017 32.4001L871.954 33.0132L872.939 28.2933L870.003 27.6802ZM869.509 33.4186L868 30.8256L867.224 31.2772L868.733 33.8701L870.242 36.4631L871.018 36.0115L869.509 33.4186ZM868.632 33.9717V30.9717H868.592V33.9717V36.9717H868.632V33.9717ZM868.532 33.9878L867.022 31.3953L861.163 34.807L862.672 37.3996L864.182 39.9921L870.041 36.5803L868.532 33.9878ZM862.302 37.5265L861.903 34.5532L852.992 35.7484L853.391 38.7218L853.789 41.6951L862.701 40.4999L862.302 37.5265ZM853.216 40.2128L852.478 43.1207C854.773 43.703 857.586 44 861 44V41V38C857.901 38 855.617 37.7271 853.953 37.3049L853.216 40.2128ZM861 41V44H864V41V38H861V41ZM865 42H862V57H865H868V42H865ZM864 58V55H1.00002V58V61H864V58ZM0 57H3V42H0H-3V57H0ZM1.01763 40.9885L1.08646 43.9877C6.9193 43.8538 11.4361 42.6306 14.944 40.5014C18.4743 38.3587 20.7503 35.4393 22.3195 32.318C23.8601 29.2535 24.7466 25.9324 25.4814 22.9673C26.2475 19.8753 26.8309 17.2726 27.7455 15.0689L24.9746 13.9189L22.2038 12.769C21.0685 15.5046 20.3591 18.6927 19.6575 21.5242C18.9245 24.4824 18.1682 27.2174 16.9588 29.623C15.7781 31.9716 14.1969 33.9361 11.8308 35.3723C9.44223 36.8221 6.02322 37.8728 0.948812 37.9893L1.01763 40.9885ZM24.9746 13.9189L27.7455 15.0689C31.0757 7.0446 37.555 3.26766 43.623 3.01382C49.7053 2.75939 55.475 5.99718 57.8474 12.4769L60.6646 11.4455L63.4817 10.4141C60.1315 1.26379 51.8216 -3.33439 43.3723 -2.98094C34.9086 -2.62689 26.4042 2.64792 22.2038 12.769L24.9746 13.9189ZM59.1286 12.7125L60.2244 9.91974C51.5254 6.50659 40.509 12.3307 40.1127 22.663L43.1105 22.778L46.1083 22.8929C46.3267 17.198 52.6908 13.4091 58.0329 15.5052L59.1286 12.7125ZM43.134 23.0243L40.2113 23.7007C41.5599 29.528 45.919 33.1823 51.2584 33.7583C56.4817 34.3217 62.186 31.924 66.7068 26.8162L64.4603 24.8279L62.2138 22.8396C58.6969 26.8131 54.8008 28.1056 51.9018 27.7929C49.1189 27.4927 46.8336 25.7045 46.0568 22.3478L43.134 23.0243ZM64.6727 24.4319L67.5714 25.2049C68.6522 21.1519 69.2112 17.8981 70.3737 15.054L67.5967 13.9189L64.8197 12.7839C63.4681 16.0908 62.6676 20.3081 61.774 23.6589L64.6727 24.4319ZM67.5967 13.9189L70.3737 15.054C73.6571 7.02084 80.0286 3.26854 85.9595 3.01409C91.8994 2.75925 97.5726 5.9633 99.9177 12.4488L102.739 11.4286L105.56 10.4085C102.26 1.28081 94.0687 -3.33933 85.7024 -2.9804C77.3271 -2.62108 68.9502 2.67835 64.8197 12.7839L67.5967 13.9189ZM101.19 12.6959L102.289 9.90431C93.6444 6.50166 82.8451 12.4065 82.4592 22.6671L85.4571 22.7798L88.455 22.8926C88.6707 17.1561 94.9218 13.4525 100.092 15.4874L101.19 12.6959ZM85.4799 23.0226L82.5548 23.6889C83.8756 29.4872 88.1548 33.1669 93.4508 33.7552C98.6257 34.3302 104.257 31.9264 108.71 26.8383L106.453 24.8625L104.195 22.8867C100.734 26.8411 96.9238 28.1042 94.1133 27.7919C91.4239 27.4931 89.1738 25.7316 88.405 22.3563L85.4799 23.0226ZM106.661 24.4711L109.56 25.2458C110.647 21.1755 111.206 17.9107 112.374 15.054L109.597 13.9189L106.82 12.7839C105.464 16.1001 104.661 20.3372 103.763 23.6965L106.661 24.4711ZM109.597 13.9189L112.374 15.054C115.657 7.02084 122.029 3.26854 127.96 3.01409C133.899 2.75925 139.573 5.9633 141.918 12.4488L144.739 11.4286L147.56 10.4085C144.26 1.28081 136.069 -3.33933 127.702 -2.9804C119.327 -2.62108 110.95 2.67835 106.82 12.7839L109.597 13.9189ZM143.19 12.6959L144.289 9.90431C135.644 6.50166 124.845 12.4065 124.459 22.6671L127.457 22.7798L130.455 22.8926C130.671 17.1561 136.922 13.4525 142.092 15.4874L143.19 12.6959ZM127.48 23.0226L124.555 23.6889C125.906 29.6193 130.347 33.3211 135.784 33.7882C141.094 34.2445 146.831 31.6039 151.281 26.1649L148.959 24.2652L146.637 22.3656C143.142 26.6368 139.207 28.0602 136.297 27.8103C133.515 27.5712 131.189 25.7966 130.405 22.3563L127.48 23.0226ZM149.148 23.894L152.049 24.6572C153.051 20.8479 153.635 17.7439 154.745 15.0689L151.975 13.9189L149.204 12.769C147.885 15.9474 147.099 19.8915 146.247 23.1308L149.148 23.894ZM151.975 13.9189L154.745 15.0689C158.076 7.0446 164.555 3.26766 170.623 3.01382C176.705 2.75939 182.475 5.99718 184.847 12.4769L187.665 11.4455L190.482 10.4141C187.132 1.26379 178.822 -3.33439 170.372 -2.98094C161.909 -2.62689 153.404 2.64792 149.204 12.769L151.975 13.9189ZM186.129 12.7125L187.224 9.91974C178.525 6.50659 167.509 12.3307 167.113 22.663L170.111 22.778L173.108 22.8929C173.327 17.198 179.691 13.4091 185.033 15.5052L186.129 12.7125ZM170.134 23.0243L167.211 23.7007C168.56 29.528 172.919 33.1823 178.258 33.7583C183.482 34.3217 189.186 31.924 193.707 26.8162L191.46 24.8279L189.214 22.8396C185.697 26.8131 181.801 28.1056 178.902 27.7929C176.119 27.4927 173.834 25.7045 173.057 22.3478L170.134 23.0243ZM191.673 24.4319L194.571 25.2049C195.652 21.1519 196.211 17.8981 197.374 15.054L194.597 13.9189L191.82 12.7839C190.468 16.0908 189.668 20.3081 188.774 23.6589L191.673 24.4319ZM194.597 13.9189L197.374 15.054C200.657 7.02084 207.029 3.26854 212.96 3.01409C218.899 2.75925 224.573 5.9633 226.918 12.4488L229.739 11.4286L232.56 10.4085C229.26 1.28081 221.069 -3.33933 212.702 -2.9804C204.327 -2.62108 195.95 2.67835 191.82 12.7839L194.597 13.9189ZM228.19 12.6959L229.289 9.90431C220.644 6.50166 209.845 12.4065 209.459 22.6671L212.457 22.7798L215.455 22.8926C215.671 17.1561 221.922 13.4525 227.092 15.4874L228.19 12.6959ZM212.48 23.0226L209.555 23.6889C210.906 29.6193 215.347 33.3211 220.784 33.7882C226.094 34.2445 231.831 31.6039 236.281 26.1649L233.959 24.2652L231.637 22.3656C228.142 26.6368 224.207 28.0602 221.297 27.8103C218.515 27.5712 216.189 25.7966 215.405 22.3563L212.48 23.0226ZM234.148 23.894L237.049 24.6572C238.051 20.8479 238.635 17.7439 239.745 15.0689L236.975 13.9189L234.204 12.769C232.885 15.9474 232.099 19.8915 231.247 23.1308L234.148 23.894ZM236.975 13.9189L239.745 15.0689C243.076 7.0446 249.555 3.26766 255.623 3.01382C261.705 2.75939 267.475 5.99718 269.847 12.4769L272.665 11.4455L275.482 10.4141C272.132 1.26379 263.822 -3.33439 255.372 -2.98094C246.909 -2.62689 238.404 2.64792 234.204 12.769L236.975 13.9189ZM271.129 12.7125L272.224 9.91974C263.525 6.50659 252.509 12.3307 252.113 22.663L255.111 22.778L258.108 22.8929C258.327 17.198 264.691 13.4091 270.033 15.5052L271.129 12.7125ZM255.134 23.0242L252.211 23.7006C253.502 29.2785 257.559 32.886 262.628 33.6754C267.59 34.4481 273.08 32.4787 277.581 28.0097L275.468 25.8807L273.354 23.7517C269.92 27.1611 266.262 28.1691 263.551 27.7468C260.947 27.3412 258.805 25.5812 258.057 22.3478L255.134 23.0242ZM275.717 25.4607L278.598 26.2951C279.201 24.2126 279.698 22.0426 280.169 20.1712C280.658 18.2307 281.138 16.5336 281.745 15.0689L278.975 13.9189L276.204 12.769C275.417 14.6652 274.851 16.723 274.351 18.7052C273.834 20.7564 273.4 22.6768 272.835 24.6264L275.717 25.4607ZM278.975 13.9189L281.745 15.0689C285.076 7.0446 291.555 3.26766 297.623 3.01382C303.705 2.75939 309.475 5.99718 311.847 12.4769L314.665 11.4455L317.482 10.4141C314.132 1.26379 305.822 -3.33439 297.372 -2.98094C288.909 -2.62689 280.404 2.64792 276.204 12.769L278.975 13.9189ZM313.129 12.7125L314.224 9.91974C305.525 6.50659 294.509 12.3307 294.113 22.663L297.111 22.778L300.108 22.8929C300.327 17.198 306.691 13.4091 312.033 15.5052L313.129 12.7125ZM297.134 23.0243L294.211 23.7007C295.56 29.528 299.919 33.1823 305.258 33.7583C310.482 34.3217 316.186 31.924 320.707 26.8162L318.46 24.8279L316.214 22.8396C312.697 26.8131 308.801 28.1056 305.902 27.7929C303.119 27.4927 300.834 25.7045 300.057 22.3478L297.134 23.0243ZM318.673 24.4319L321.571 25.2049C322.652 21.1519 323.211 17.8981 324.374 15.054L321.597 13.9189L318.82 12.7839C317.468 16.0908 316.668 20.3081 315.774 23.6589L318.673 24.4319ZM321.597 13.9189L324.374 15.054C327.657 7.02084 334.029 3.26854 339.96 3.01409C345.899 2.75925 351.573 5.9633 353.918 12.4488L356.739 11.4286L359.56 10.4085C356.26 1.28081 348.069 -3.33933 339.702 -2.9804C331.327 -2.62108 322.95 2.67835 318.82 12.7839L321.597 13.9189ZM355.19 12.6959L356.289 9.90431C347.644 6.50166 336.845 12.4065 336.459 22.6671L339.457 22.7798L342.455 22.8926C342.671 17.1561 348.922 13.4525 354.092 15.4874L355.19 12.6959ZM339.48 23.0226L336.555 23.6889C337.906 29.6193 342.347 33.3211 347.784 33.7882C353.094 34.2445 358.831 31.6039 363.281 26.1649L360.959 24.2652L358.637 22.3656C355.142 26.6368 351.207 28.0602 348.297 27.8103C345.515 27.5712 343.189 25.7966 342.405 22.3563L339.48 23.0226ZM361.148 23.894L364.049 24.6572C365.051 20.8479 365.635 17.7439 366.745 15.0689L363.975 13.9189L361.204 12.769C359.885 15.9474 359.099 19.8915 358.247 23.1308L361.148 23.894ZM363.975 13.9189L366.745 15.0689C370.076 7.0446 376.555 3.26766 382.623 3.01382C388.705 2.75939 394.475 5.99718 396.847 12.4769L399.665 11.4455L402.482 10.4141C399.132 1.26379 390.822 -3.33439 382.372 -2.98094C373.909 -2.62689 365.404 2.64792 361.204 12.769L363.975 13.9189ZM398.129 12.7125L399.224 9.91974C390.525 6.50659 379.509 12.3307 379.113 22.663L382.111 22.778L385.108 22.8929C385.327 17.198 391.691 13.4091 397.033 15.5052L398.129 12.7125ZM382.134 23.0243L379.211 23.7007C380.56 29.528 384.919 33.1823 390.258 33.7583C395.482 34.3217 401.186 31.924 405.707 26.8162L403.46 24.8279L401.214 22.8396C397.697 26.8131 393.801 28.1056 390.902 27.7929C388.119 27.4927 385.834 25.7045 385.057 22.3478L382.134 23.0243ZM403.673 24.4319L406.571 25.2049C407.652 21.1519 408.211 17.8981 409.374 15.054L406.597 13.9189L403.82 12.7839C402.468 16.0908 401.668 20.3081 400.774 23.6589L403.673 24.4319ZM406.597 13.9189L409.374 15.054C412.657 7.02084 419.029 3.26854 424.96 3.01409C430.899 2.75925 436.573 5.9633 438.918 12.4488L441.739 11.4286L444.56 10.4085C441.26 1.28081 433.069 -3.33933 424.702 -2.9804C416.327 -2.62108 407.95 2.67835 403.82 12.7839L406.597 13.9189ZM440.19 12.6959L441.289 9.90431C432.644 6.50166 421.845 12.4065 421.459 22.6671L424.457 22.7798L427.455 22.8926C427.671 17.1561 433.922 13.4525 439.092 15.4874L440.19 12.6959ZM424.48 23.0226L421.555 23.6889C422.876 29.4872 427.155 33.1669 432.451 33.7552C437.626 34.3302 443.257 31.9264 447.71 26.8383L445.453 24.8625L443.195 22.8867C439.734 26.8411 435.924 28.1042 433.113 27.7919C430.424 27.4931 428.174 25.7316 427.405 22.3563L424.48 23.0226ZM445.661 24.4711L448.56 25.2458C449.647 21.1755 450.206 17.9107 451.374 15.054L448.597 13.9189L445.82 12.7839C444.464 16.1001 443.661 20.3372 442.763 23.6965L445.661 24.4711ZM448.597 13.9189L451.374 15.054C454.657 7.02084 461.029 3.26854 466.96 3.01409C472.899 2.75925 478.573 5.9633 480.918 12.4488L483.739 11.4286L486.56 10.4085C483.26 1.28081 475.069 -3.33933 466.702 -2.9804C458.327 -2.62108 449.95 2.67835 445.82 12.7839L448.597 13.9189ZM482.19 12.6959L483.289 9.90431C474.644 6.50166 463.845 12.4065 463.459 22.6671L466.457 22.7798L469.455 22.8926C469.671 17.1561 475.922 13.4525 481.092 15.4874L482.19 12.6959ZM466.48 23.0226L463.555 23.6889C464.906 29.6193 469.347 33.3211 474.784 33.7882C480.094 34.2445 485.831 31.6039 490.281 26.1649L487.959 24.2652L485.637 22.3656C482.142 26.6368 478.207 28.0602 475.297 27.8103C472.515 27.5712 470.189 25.7966 469.405 22.3563L466.48 23.0226ZM488.148 23.894L491.049 24.6572C492.051 20.8479 492.635 17.7439 493.745 15.0689L490.975 13.9189L488.204 12.769C486.885 15.9474 486.099 19.8915 485.247 23.1308L488.148 23.894ZM490.975 13.9189L493.745 15.0689C497.076 7.0446 503.555 3.26766 509.623 3.01382C515.705 2.75939 521.475 5.99718 523.847 12.4769L526.665 11.4455L529.482 10.4141C526.132 1.26379 517.822 -3.33439 509.372 -2.98094C500.909 -2.62689 492.404 2.64792 488.204 12.769L490.975 13.9189ZM525.129 12.7125L526.224 9.91974C517.525 6.50659 506.509 12.3307 506.113 22.663L509.111 22.778L512.108 22.8929C512.327 17.198 518.691 13.4091 524.033 15.5052L525.129 12.7125ZM509.134 23.0243L506.211 23.7007C507.59 29.6575 512.109 33.3316 517.586 33.7897C522.943 34.2377 528.753 31.6089 533.271 26.1568L530.961 24.2426L528.651 22.3284C525.103 26.6109 521.084 28.0612 518.086 27.8105C515.209 27.5699 512.848 25.7675 512.057 22.3479L509.134 23.0243ZM531.154 23.8663L534.056 24.6286C535.053 20.8323 535.639 17.7356 536.745 15.0689L533.975 13.9189L531.204 12.769C529.888 15.9405 529.103 19.8701 528.253 23.1041L531.154 23.8663ZM533.975 13.9189L536.745 15.0689C540.076 7.0446 546.555 3.26766 552.623 3.01382C558.705 2.75939 564.475 5.99718 566.847 12.4769L569.665 11.4455L572.482 10.4141C569.132 1.26379 560.822 -3.33439 552.372 -2.98094C543.909 -2.62689 535.404 2.64792 531.204 12.769L533.975 13.9189ZM568.129 12.7125L569.224 9.91974C560.525 6.50659 549.509 12.3307 549.113 22.663L552.111 22.778L555.108 22.8929C555.327 17.198 561.691 13.4091 567.033 15.5052L568.129 12.7125ZM552.134 23.0242L549.211 23.7006C550.502 29.2785 554.559 32.886 559.628 33.6754C564.59 34.4481 570.08 32.4787 574.581 28.0097L572.468 25.8807L570.354 23.7517C566.92 27.1611 563.262 28.1691 560.551 27.7468C557.947 27.3412 555.805 25.5812 555.057 22.3478L552.134 23.0242ZM572.717 25.4607L575.598 26.2951C576.201 24.2126 576.698 22.0426 577.169 20.1712C577.658 18.2307 578.138 16.5336 578.745 15.0689L575.975 13.9189L573.204 12.769C572.417 14.6652 571.851 16.723 571.351 18.7052C570.834 20.7564 570.4 22.6768 569.835 24.6264L572.717 25.4607ZM575.975 13.9189L578.745 15.0689C582.076 7.0446 588.555 3.26766 594.623 3.01382C600.705 2.75939 606.475 5.99718 608.847 12.4769L611.665 11.4455L614.482 10.4141C611.132 1.26379 602.822 -3.33439 594.372 -2.98094C585.909 -2.62689 577.404 2.64792 573.204 12.769L575.975 13.9189ZM610.129 12.7125L611.224 9.91974C602.525 6.50659 591.509 12.3307 591.113 22.663L594.111 22.778L597.108 22.8929C597.327 17.198 603.691 13.4091 609.033 15.5052L610.129 12.7125ZM594.134 23.0242L591.211 23.7006C592.502 29.2785 596.559 32.886 601.628 33.6754C606.59 34.4481 612.08 32.4787 616.581 28.0097L614.468 25.8807L612.354 23.7517C608.92 27.1611 605.262 28.1691 602.551 27.7468C599.947 27.3412 597.805 25.5812 597.057 22.3478L594.134 23.0242ZM614.717 25.4607L617.598 26.2951C618.201 24.2126 618.698 22.0426 619.169 20.1712C619.658 18.2307 620.138 16.5336 620.745 15.0689L617.975 13.9189L615.204 12.769C614.417 14.6652 613.851 16.723 613.351 18.7052C612.834 20.7564 612.4 22.6768 611.835 24.6264L614.717 25.4607ZM617.975 13.9189L620.745 15.0689C624.076 7.0446 630.555 3.26766 636.623 3.01382C642.705 2.75939 648.475 5.99718 650.847 12.4769L653.665 11.4455L656.482 10.4141C653.132 1.26379 644.822 -3.33439 636.372 -2.98094C627.909 -2.62689 619.404 2.64792 615.204 12.769L617.975 13.9189ZM652.129 12.7125L653.224 9.91974C644.525 6.50659 633.509 12.3307 633.113 22.663L636.111 22.778L639.108 22.8929C639.327 17.198 645.691 13.4091 651.033 15.5052L652.129 12.7125ZM636.134 23.0244L633.211 23.7008C634.594 29.6739 639.134 33.3503 644.628 33.7937C650.002 34.2274 655.826 31.5699 660.343 26.0739L658.025 24.169L655.708 22.2641C652.156 26.5858 648.121 28.0561 645.111 27.8132C642.221 27.58 639.85 25.7752 639.057 22.3479L636.134 23.0244ZM658.664 24.4609L661.562 25.2351C662.648 21.1697 663.207 17.9073 664.374 15.054L661.597 13.9189L658.82 12.7839C657.465 16.0977 656.662 20.3293 655.766 23.6867L658.664 24.4609ZM661.597 13.9189L664.374 15.054C667.657 7.02084 674.029 3.26854 679.96 3.01409C685.899 2.75925 691.573 5.9633 693.918 12.4488L696.739 11.4286L699.56 10.4085C696.26 1.28081 688.069 -3.33933 679.702 -2.9804C671.327 -2.62108 662.95 2.67835 658.82 12.7839L661.597 13.9189ZM695.19 12.6959L696.289 9.90431C687.644 6.50166 676.845 12.4065 676.459 22.6671L679.457 22.7798L682.455 22.8926C682.671 17.1561 688.922 13.4525 694.092 15.4874L695.19 12.6959ZM679.48 23.0227L676.555 23.689C677.936 29.7532 682.544 33.4742 688.122 33.8135C693.568 34.1447 699.407 31.2582 703.844 25.4545L701.461 23.6324L699.078 21.8103C695.558 26.4143 691.496 28.0076 688.486 27.8245C685.608 27.6494 683.203 25.8617 682.405 22.3563L679.48 23.0227ZM701.634 23.2722L704.546 23.9945C705.421 20.4658 705.996 17.5358 707.001 15.039L704.218 13.9189L701.435 12.7989C700.223 15.811 699.491 19.4486 698.722 22.55L701.634 23.2722ZM704.218 13.9189L707.001 15.039C710.238 6.99618 716.502 3.26924 722.296 3.01423C728.093 2.75906 733.67 5.92823 735.988 12.42L738.813 11.4112L741.638 10.4023C738.388 1.29836 730.316 -3.34461 722.032 -2.97997C713.744 -2.61518 705.495 2.70965 701.435 12.7989L704.218 13.9189ZM737.252 12.6788L738.353 9.88832C729.863 6.53748 719.448 12.3389 718.825 22.2972L721.819 22.4844L724.813 22.6716C725.167 17.0218 731.222 13.5242 736.15 15.4693L737.252 12.6788ZM721.819 22.4844L718.822 22.3513L718.81 22.6322L721.807 22.7653L724.804 22.8983L724.816 22.6174L721.819 22.4844ZM721.832 23.036L718.91 23.7151L718.985 24.0395L721.907 23.3604L724.829 22.6812L724.754 22.3569L721.832 23.036ZM721.907 23.3604L718.999 24.0957C720.486 29.977 725.039 33.5622 730.516 33.8236C735.863 34.0789 741.541 31.1761 745.857 25.4486L743.461 23.643L741.065 21.8375C737.64 26.3825 733.712 27.9693 730.802 27.8305C728.024 27.6978 725.67 26.0054 724.816 22.625L721.907 23.3604ZM743.63 23.2884L746.542 24.0111C747.419 20.4751 747.994 17.5405 749.001 15.039L746.218 13.9189L743.435 12.7989C742.221 15.8153 741.489 19.4607 740.719 22.5657L743.63 23.2884ZM746.218 13.9189L749.001 15.039C752.238 6.99618 758.502 3.26924 764.296 3.01423C770.093 2.75906 775.67 5.92823 777.988 12.42L780.813 11.4112L783.638 10.4023C780.388 1.29836 772.316 -3.34461 764.032 -2.97997C755.744 -2.61518 747.495 2.70965 743.435 12.7989L746.218 13.9189ZM779.252 12.6788L780.353 9.88832C771.863 6.53748 761.448 12.3389 760.825 22.2972L763.819 22.4844L766.813 22.6716C767.167 17.0218 773.222 13.5242 778.15 15.4693L779.252 12.6788ZM763.819 22.4844L760.822 22.3513L760.81 22.6322L763.807 22.7653L766.804 22.8983L766.816 22.6174L763.819 22.4844ZM763.832 23.036L760.91 23.7151L760.985 24.0395L763.907 23.3604L766.829 22.6812L766.754 22.3569L763.832 23.036ZM763.907 23.3604L760.999 24.0957C762.466 29.8985 766.921 33.4734 772.316 33.8127C777.584 34.1441 783.203 31.389 787.528 25.8781L785.168 24.026L782.808 22.1739C779.398 26.5192 775.543 28.0039 772.692 27.8246C769.969 27.6533 767.661 25.9673 766.816 22.625L763.907 23.3604ZM785.714 24.2686L788.614 25.0349C789.665 21.0597 790.232 17.8465 791.374 15.054L788.597 13.9189L785.82 12.7839C784.484 16.0522 783.691 20.1806 782.813 23.5022L785.714 24.2686ZM788.597 13.9189L791.374 15.054C794.657 7.02084 801.029 3.26854 806.96 3.01409C812.899 2.75925 818.573 5.9633 820.918 12.4488L823.739 11.4286L826.56 10.4085C823.26 1.28081 815.069 -3.33933 806.702 -2.9804C798.327 -2.62108 789.95 2.67835 785.82 12.7839L788.597 13.9189ZM822.19 12.6959L823.289 9.90431C814.644 6.50166 803.845 12.4065 803.459 22.6671L806.457 22.7798L809.455 22.8926C809.671 17.1561 815.922 13.4525 821.092 15.4874L822.19 12.6959ZM806.48 23.0227L803.555 23.689C804.936 29.7532 809.544 33.4742 815.122 33.8135C820.568 34.1447 826.407 31.2582 830.844 25.4545L828.461 23.6324L826.078 21.8103C822.558 26.4143 818.496 28.0076 815.486 27.8245C812.608 27.6494 810.203 25.8617 809.405 22.3563L806.48 23.0227ZM828.634 23.2722L831.546 23.9945C832.421 20.4658 832.996 17.5358 834.001 15.039L831.218 13.9189L828.435 12.7989C827.223 15.811 826.491 19.4486 825.722 22.55L828.634 23.2722ZM828.461 23.6324L830.844 25.4545C831.175 25.0211 831.415 24.5223 831.546 23.9945L828.634 23.2722L825.722 22.55C825.789 22.2816 825.909 22.0314 826.078 21.8103L828.461 23.6324ZM823.739 11.4286L820.918 12.4488C820.545 11.4186 821.068 10.5278 821.547 10.1514C821.974 9.81572 822.62 9.6411 823.289 9.90431L822.19 12.6959L821.092 15.4874C822.611 16.0854 824.187 15.7071 825.254 14.869C826.372 13.9902 827.243 12.2984 826.56 10.4085L823.739 11.4286ZM785.168 24.026L787.528 25.8781C786.61 27.0482 785.192 27.069 784.325 26.6859C783.443 26.2965 782.458 25.1797 782.778 23.6536L785.714 24.2686L788.65 24.8835C789.033 23.0533 787.871 21.6929 786.749 21.1972C785.64 20.7078 783.918 20.7593 782.808 22.1739L785.168 24.026ZM763.807 22.7653L760.81 22.6322C760.794 22.9961 760.827 23.3604 760.91 23.7151L763.832 23.036L766.754 22.3569C766.795 22.5342 766.812 22.7164 766.804 22.8983L763.807 22.7653ZM780.813 11.4112L777.988 12.42C777.618 11.3835 778.15 10.4971 778.624 10.128C779.046 9.79903 779.687 9.62536 780.353 9.88832L779.252 12.6788L778.15 15.4693C779.669 16.0686 781.244 15.6925 782.311 14.8613C783.43 13.99 784.317 12.3016 783.638 10.4023L780.813 11.4112ZM743.461 23.643L745.857 25.4486C746.18 25.0205 746.413 24.5297 746.542 24.0111L743.63 23.2884L740.719 22.5657C740.784 22.302 740.901 22.0559 741.065 21.8375L743.461 23.643ZM721.807 22.7653L718.81 22.6322C718.794 22.9961 718.827 23.3604 718.91 23.7151L721.832 23.036L724.754 22.3569C724.795 22.5342 724.812 22.7164 724.804 22.8983L721.807 22.7653ZM738.813 11.4112L735.988 12.42C735.618 11.3835 736.15 10.4971 736.624 10.128C737.046 9.79903 737.687 9.62536 738.353 9.88832L737.252 12.6788L736.15 15.4693C737.669 16.0686 739.244 15.6925 740.311 14.8613C741.43 13.99 742.317 12.3016 741.638 10.4023L738.813 11.4112ZM701.461 23.6324L703.844 25.4545C704.175 25.0211 704.415 24.5223 704.546 23.9945L701.634 23.2722L698.722 22.55C698.789 22.2816 698.909 22.0314 699.078 21.8103L701.461 23.6324ZM679.457 22.7798L676.459 22.6671C676.446 23.013 676.48 23.3586 676.555 23.689L679.48 23.0227L682.405 22.3563C682.444 22.5296 682.462 22.7077 682.455 22.8926L679.457 22.7798ZM696.739 11.4286L693.918 12.4488C693.545 11.4186 694.068 10.5278 694.547 10.1514C694.974 9.81572 695.62 9.6411 696.289 9.90431L695.19 12.6959L694.092 15.4874C695.611 16.0854 697.187 15.7071 698.254 14.869C699.372 13.9902 700.243 12.2984 699.56 10.4085L696.739 11.4286ZM658.025 24.169L660.343 26.0739C659.421 27.1954 658.046 27.1847 657.22 26.8101C656.378 26.4282 655.407 25.3337 655.731 23.8288L658.664 24.4609L661.597 25.093C661.997 23.2351 660.822 21.8552 659.698 21.3458C658.591 20.8437 656.859 20.8636 655.708 22.2641L658.025 24.169ZM636.111 22.778L633.113 22.663C633.099 23.0145 633.134 23.3656 633.211 23.7008L636.134 23.0244L639.057 22.3479C639.098 22.5238 639.116 22.7049 639.108 22.8929L636.111 22.778ZM653.665 11.4455L650.847 12.4769C650.472 11.4528 650.985 10.5578 651.469 10.1742C651.901 9.83202 652.553 9.65645 653.224 9.91974L652.129 12.7125L651.033 15.5052C652.553 16.1017 654.13 15.721 655.196 14.8762C656.314 13.9901 657.17 12.2949 656.482 10.4141L653.665 11.4455ZM614.468 25.8807L616.581 28.0097C617.061 27.5332 617.411 26.941 617.598 26.2951L614.717 25.4607L611.835 24.6264C611.931 24.2964 612.108 23.9965 612.354 23.7517L614.468 25.8807ZM594.111 22.778L591.113 22.663C591.099 23.0139 591.134 23.3647 591.211 23.7006L594.134 23.0242L597.057 22.3478C597.098 22.5243 597.116 22.7055 597.108 22.8929L594.111 22.778ZM611.665 11.4455L608.847 12.4769C608.472 11.4528 608.985 10.5578 609.469 10.1742C609.901 9.83202 610.553 9.65645 611.224 9.91974L610.129 12.7125L609.033 15.5052C610.553 16.1017 612.13 15.721 613.196 14.8762C614.314 13.9901 615.17 12.2949 614.482 10.4141L611.665 11.4455ZM572.468 25.8807L574.581 28.0097C575.061 27.5332 575.411 26.941 575.598 26.2951L572.717 25.4607L569.835 24.6264C569.931 24.2964 570.108 23.9965 570.354 23.7517L572.468 25.8807ZM552.111 22.778L549.113 22.663C549.099 23.0139 549.134 23.3647 549.211 23.7006L552.134 23.0242L555.057 22.3478C555.098 22.5243 555.116 22.7055 555.108 22.8929L552.111 22.778ZM569.665 11.4455L566.847 12.4769C566.472 11.4528 566.985 10.5578 567.469 10.1742C567.901 9.83202 568.553 9.65645 569.224 9.91974L568.129 12.7125L567.033 15.5052C568.553 16.1017 570.13 15.721 571.196 14.8762C572.314 13.9901 573.17 12.2949 572.482 10.4141L569.665 11.4455ZM530.961 24.2426L533.271 26.1568C533.641 25.7104 533.909 25.187 534.056 24.6286L531.154 23.8663L528.253 23.1041C528.328 22.8198 528.462 22.5565 528.651 22.3284L530.961 24.2426ZM509.111 22.778L506.113 22.663C506.099 23.0142 506.134 23.3653 506.211 23.7007L509.134 23.0243L512.057 22.3479C512.098 22.524 512.116 22.7051 512.108 22.8929L509.111 22.778ZM526.665 11.4455L523.847 12.4769C523.472 11.4528 523.985 10.5578 524.469 10.1742C524.901 9.83202 525.553 9.65645 526.224 9.91974L525.129 12.7125L524.033 15.5052C525.553 16.1017 527.13 15.721 528.196 14.8762C529.314 13.9901 530.17 12.2949 529.482 10.4141L526.665 11.4455ZM466.457 22.7798L463.459 22.6671C463.446 23.0128 463.48 23.3584 463.555 23.6889L466.48 23.0226L469.405 22.3563C469.444 22.5297 469.462 22.7078 469.455 22.8926L466.457 22.7798ZM399.665 11.4455L396.847 12.4769C396.472 11.4528 396.985 10.5578 397.469 10.1742C397.901 9.83202 398.553 9.65645 399.224 9.91974L398.129 12.7125L397.033 15.5052C398.553 16.1017 400.131 15.721 401.196 14.8762C402.314 13.9901 403.17 12.2949 402.482 10.4141L399.665 11.4455ZM360.959 24.2652L363.281 26.1649C363.642 25.7233 363.904 25.2072 364.049 24.6572L361.148 23.894L358.247 23.1308C358.32 22.8507 358.452 22.5912 358.637 22.3656L360.959 24.2652ZM356.739 11.4286L353.918 12.4488C353.545 11.4186 354.068 10.5278 354.547 10.1514C354.974 9.81572 355.62 9.6411 356.289 9.90431L355.19 12.6959L354.092 15.4874C355.611 16.0854 357.187 15.7071 358.254 14.869C359.372 13.9902 360.243 12.2984 359.56 10.4085L356.739 11.4286ZM318.46 24.8279L320.707 26.8162C321.117 26.3532 321.413 25.7995 321.571 25.2049L318.673 24.4319L315.774 23.6589C315.855 23.3558 316.004 23.0766 316.214 22.8396L318.46 24.8279ZM297.111 22.778L294.113 22.663C294.099 23.0141 294.134 23.3651 294.211 23.7007L297.134 23.0243L300.057 22.3478C300.098 22.5241 300.116 22.7053 300.108 22.8929L297.111 22.778ZM314.665 11.4455L311.847 12.4769C311.472 11.4528 311.985 10.5578 312.469 10.1742C312.901 9.83202 313.553 9.65645 314.224 9.91974L313.129 12.7125L312.033 15.5052C313.553 16.1017 315.131 15.721 316.196 14.8762C317.314 13.9901 318.17 12.2949 317.482 10.4141L314.665 11.4455ZM275.468 25.8807L277.581 28.0097C278.061 27.5332 278.411 26.941 278.598 26.2951L275.717 25.4607L272.835 24.6264C272.931 24.2964 273.108 23.9965 273.354 23.7517L275.468 25.8807ZM255.111 22.778L252.113 22.663C252.099 23.0139 252.134 23.3647 252.211 23.7006L255.134 23.0242L258.057 22.3478C258.098 22.5243 258.116 22.7055 258.108 22.8929L255.111 22.778ZM272.665 11.4455L269.847 12.4769C269.472 11.4528 269.985 10.5578 270.469 10.1742C270.901 9.83202 271.553 9.65645 272.224 9.91974L271.129 12.7125L270.033 15.5052C271.553 16.1017 273.131 15.721 274.196 14.8762C275.314 13.9901 276.17 12.2949 275.482 10.4141L272.665 11.4455ZM233.959 24.2652L236.281 26.1649C236.642 25.7233 236.904 25.2072 237.049 24.6572L234.148 23.894L231.247 23.1308C231.32 22.8507 231.452 22.5912 231.637 22.3656L233.959 24.2652ZM212.457 22.7798L209.459 22.6671C209.446 23.0128 209.48 23.3584 209.555 23.6889L212.48 23.0226L215.405 22.3563C215.444 22.5297 215.462 22.7078 215.455 22.8926L212.457 22.7798ZM229.739 11.4286L226.918 12.4488C226.545 11.4186 227.068 10.5278 227.547 10.1514C227.974 9.81572 228.62 9.6411 229.289 9.90431L228.19 12.6959L227.092 15.4874C228.611 16.0854 230.187 15.7071 231.254 14.869C232.372 13.9902 233.243 12.2984 232.56 10.4085L229.739 11.4286ZM191.46 24.8279L193.707 26.8162C194.117 26.3532 194.413 25.7995 194.571 25.2049L191.673 24.4319L188.774 23.6589C188.855 23.3558 189.004 23.0766 189.214 22.8396L191.46 24.8279ZM170.111 22.778L167.113 22.663C167.099 23.0141 167.134 23.3651 167.211 23.7007L170.134 23.0243L173.057 22.3478C173.098 22.5241 173.116 22.7053 173.108 22.8929L170.111 22.778ZM187.665 11.4455L184.847 12.4769C184.472 11.4528 184.985 10.5578 185.469 10.1742C185.901 9.83202 186.553 9.65645 187.224 9.91974L186.129 12.7125L185.033 15.5052C186.553 16.1017 188.131 15.721 189.196 14.8762C190.314 13.9901 191.17 12.2949 190.482 10.4141L187.665 11.4455ZM144.739 11.4286L141.918 12.4488C141.545 11.4186 142.068 10.5278 142.547 10.1514C142.974 9.81572 143.62 9.6411 144.289 9.90431L143.19 12.6959L142.092 15.4874C143.611 16.0854 145.187 15.7071 146.254 14.869C147.372 13.9902 148.243 12.2984 147.56 10.4085L144.739 11.4286ZM106.453 24.8625L108.71 26.8383C109.112 26.3794 109.403 25.8325 109.56 25.2458L106.661 24.4711L103.763 23.6965C103.843 23.3973 103.989 23.1217 104.195 22.8867L106.453 24.8625ZM102.739 11.4286L99.9177 12.4488C99.5452 11.4186 100.068 10.5278 100.547 10.1514C100.974 9.81572 101.62 9.6411 102.289 9.90431L101.19 12.6959L100.092 15.4874C101.611 16.0854 103.187 15.7071 104.254 14.869C105.372 13.9902 106.243 12.2984 105.56 10.4085L102.739 11.4286ZM64.4603 24.8279L66.7068 26.8162C67.1166 26.3532 67.4128 25.7995 67.5714 25.2049L64.6727 24.4319L61.774 23.6589C61.8548 23.3558 62.004 23.0766 62.2138 22.8396L64.4603 24.8279ZM43.1105 22.778L40.1127 22.663C40.0993 23.0141 40.1336 23.3651 40.2113 23.7007L43.134 23.0243L46.0568 22.3478C46.0976 22.5241 46.1155 22.7053 46.1083 22.8929L43.1105 22.778ZM60.6646 11.4455L57.8474 12.4769C57.4725 11.4528 57.9853 10.5578 58.4691 10.1742C58.9008 9.83202 59.5533 9.65645 60.2244 9.91974L59.1286 12.7125L58.0329 15.5052C59.5532 16.1017 61.1305 15.721 62.1963 14.8762C63.3142 13.9901 64.1703 12.2949 63.4817 10.4141L60.6646 11.4455ZM0 42H3C3 43.1884 2.05105 43.9656 1.08646 43.9877L1.01763 40.9885L0.948812 37.9893C-1.12006 38.0367 -3 39.7071 -3 42H0ZM1.00002 58V55C2.10451 55 3 55.8954 3 57H0H-3C-3 59.2092 -1.20904 61 1.00002 61V58ZM865 57H862C862 55.8954 862.895 55 864 55V58V61C866.209 61 868 59.2091 868 57H865ZM862.672 37.3996L861.163 34.807C861.391 34.6745 861.642 34.5882 861.903 34.5532L862.302 37.5265L862.701 40.4999C863.223 40.4299 863.727 40.2573 864.182 39.9921L862.672 37.3996ZM445.453 24.8625L447.71 26.8383C448.112 26.3794 448.403 25.8325 448.56 25.2458L445.661 24.4711L442.763 23.6965C442.843 23.3973 442.989 23.1217 443.195 22.8867L445.453 24.8625ZM868.592 33.9717V30.9717C868.04 30.9717 867.499 31.1178 867.022 31.3953L868.532 33.9878L870.041 36.5803C869.601 36.8366 869.101 36.9717 868.592 36.9717V33.9717ZM424.457 22.7798L421.459 22.6671C421.446 23.0127 421.48 23.3582 421.555 23.6889L424.48 23.0226L427.405 22.3563C427.445 22.5298 427.462 22.708 427.455 22.8926L424.457 22.7798ZM868.7 33.9162L865.761 33.315C866.04 31.9511 867.24 30.9717 868.632 30.9717V33.9717V36.9717C870.09 36.9717 871.347 35.9459 871.639 34.5174L868.7 33.9162ZM441.739 11.4286L438.918 12.4488C438.545 11.4186 439.068 10.5278 439.547 10.1514C439.974 9.81572 440.62 9.6411 441.289 9.90431L440.19 12.6959L439.092 15.4874C440.611 16.0854 442.187 15.7071 443.254 14.869C444.372 13.9902 445.243 12.2984 444.56 10.4085L441.739 11.4286ZM868.733 33.8701L867.224 31.2772C866.468 31.717 865.936 32.4583 865.761 33.315L868.7 33.9162L871.639 34.5174C871.472 35.3354 870.963 36.0431 870.242 36.4631L868.733 33.8701ZM869.342 32.7998V35.7998C866.617 35.7998 865.645 32.1961 868 30.8256L869.509 33.4186L871.018 36.0115C873.959 34.3001 872.745 29.7998 869.342 29.7998V32.7998ZM127.457 22.7798L124.459 22.6671C124.446 23.0128 124.48 23.3584 124.555 23.6889L127.48 23.0226L130.405 22.3563C130.444 22.5297 130.462 22.7078 130.455 22.8926L127.457 22.7798ZM382.111 22.778L379.113 22.663C379.099 23.0141 379.134 23.3651 379.211 23.7007L382.134 23.0243L385.057 22.3478C385.098 22.5241 385.116 22.7053 385.108 22.8929L382.111 22.778ZM867.816 26.5932L869.857 28.7924C869.061 29.5303 868.219 29.2745 867.979 29.1572C867.799 29.0696 867.542 28.8943 867.329 28.5576C867.092 28.1819 866.946 27.643 867.066 27.067L870.003 27.6802L872.939 28.2933C873.434 25.9228 871.796 24.3423 870.605 23.7626C869.415 23.1831 867.368 22.9162 865.776 24.3941L867.816 26.5932ZM487.959 24.2652L490.281 26.1649C490.642 25.7233 490.904 25.2072 491.049 24.6572L488.148 23.894L485.247 23.1308C485.32 22.8507 485.452 22.5912 485.637 22.3656L487.959 24.2652ZM864 41V44C862.895 44 862 43.1046 862 42H865H868C868 39.7909 866.209 38 864 38V41ZM848.807 22.7653L845.81 22.6322C845.794 22.9961 845.827 23.3604 845.91 23.7151L848.832 23.036L851.754 22.3569C851.795 22.5342 851.812 22.7164 851.804 22.8983L848.807 22.7653ZM148.959 24.2652L151.281 26.1649C151.642 25.7233 151.904 25.2072 152.049 24.6572L149.148 23.894L146.247 23.1308C146.32 22.8507 146.452 22.5912 146.637 22.3656L148.959 24.2652ZM403.46 24.8279L405.707 26.8162C406.117 26.3532 406.413 25.7995 406.571 25.2049L403.673 24.4319L400.774 23.6589C400.855 23.3558 401.004 23.0766 401.214 22.8396L403.46 24.8279ZM869.017 32.4001L866.08 31.7869C865.648 33.8564 867.228 35.7998 869.342 35.7998V32.7998V29.7998C871.035 29.7998 872.3 31.356 871.954 33.0132L869.017 32.4001ZM483.739 11.4286L480.918 12.4488C480.545 11.4186 481.068 10.5278 481.547 10.1514C481.974 9.81572 482.62 9.6411 483.289 9.90431L482.19 12.6959L481.092 15.4874C482.611 16.0854 484.187 15.7071 485.254 14.869C486.372 13.9902 487.243 12.2984 486.56 10.4085L483.739 11.4286ZM853.391 38.7218L852.992 35.7484C851.335 35.9706 849.845 37.2074 849.613 39.0517C849.362 41.0476 850.709 42.6719 852.478 43.1207L853.216 40.2128L853.953 37.3049C854.291 37.3907 854.765 37.6239 855.133 38.1281C855.499 38.6284 855.637 39.2342 855.566 39.8006C855.416 40.9913 854.484 41.602 853.789 41.6951L853.391 38.7218ZM85.4571 22.7798L82.4592 22.6671C82.4462 23.0127 82.4795 23.3582 82.5548 23.6889L85.4799 23.0226L88.405 22.3563C88.4445 22.5298 88.4619 22.708 88.455 22.8926L85.4571 22.7798ZM339.457 22.7798L336.459 22.6671C336.446 23.0128 336.48 23.3584 336.555 23.6889L339.48 23.0226L342.405 22.3563C342.444 22.5297 342.462 22.7078 342.455 22.8926L339.457 22.7798ZM806.457 22.7798L803.459 22.6671C803.446 23.013 803.48 23.3586 803.555 23.689L806.48 23.0227L809.405 22.3563C809.444 22.5296 809.462 22.7077 809.455 22.8926L806.457 22.7798ZM865.813 11.4112L862.988 12.42C862.618 11.3835 863.15 10.4971 863.624 10.128C864.046 9.79903 864.687 9.62536 865.353 9.88832L864.252 12.6788L863.15 15.4693C864.669 16.0686 866.244 15.6925 867.311 14.8613C868.43 13.99 869.317 12.3016 868.638 10.4023L865.813 11.4112Z" fill="#473025" mask="url(#path-1-inside-1_1238_1284)"/>
</svg>
