<svg preserveAspectRatio="none" width="100%" height="100%" overflow="visible" style="display: block;" viewBox="0 0 16 12" fill="none" xmlns="http://www.w3.org/2000/svg">
<path id="Vector" d="M0.352185 11.162C0.577756 11.4462 0.883656 11.6058 1.20262 11.6058C1.52157 11.6058 1.82747 11.4462 2.05305 11.162L8.00726 3.65882L13.9615 11.162C14.1883 11.4381 14.4922 11.5909 14.8076 11.5875C15.123 11.584 15.4247 11.4246 15.6477 11.1436C15.8707 10.8625 15.9972 10.4823 16 10.0849C16.0027 9.68747 15.8815 9.30457 15.6623 9.01869L8.85769 0.443806C8.63212 0.159637 8.32622 0 8.00726 0C7.6883 0 7.3824 0.159637 7.15683 0.443806L0.352185 9.01869C0.126681 9.30294 0 9.68842 0 10.0904C0 10.4923 0.126681 10.8778 0.352185 11.162Z" fill="var(--fill-0, #C4946F)"/>
</svg>
