<svg preserveAspectRatio="none" width="100%" height="100%" overflow="visible" style="display: block;" viewBox="0 0 19 19" fill="none" xmlns="http://www.w3.org/2000/svg">
<g id="iconamoon:search-bold">
<path id="Vector" d="M16.625 16.625L13.1868 13.1868M13.1868 13.1868C13.7749 12.5987 14.2414 11.9005 14.5597 11.1321C14.878 10.3636 15.0418 9.54006 15.0418 8.70833C15.0418 7.87661 14.878 7.05302 14.5597 6.28461C14.2414 5.51619 13.7749 4.81799 13.1868 4.22988C12.5987 3.64176 11.9005 3.17523 11.1321 2.85695C10.3636 2.53866 9.54006 2.37484 8.70833 2.37484C7.87661 2.37484 7.05302 2.53866 6.28461 2.85695C5.51619 3.17523 4.81799 3.64176 4.22987 4.22988C3.04211 5.41764 2.37484 7.02859 2.37484 8.70833C2.37484 10.3881 3.04211 11.999 4.22987 13.1868C5.41764 14.3746 7.02859 15.0418 8.70833 15.0418C10.3881 15.0418 11.999 14.3746 13.1868 13.1868Z" stroke="var(--stroke-0, #9B7651)" stroke-width="2.5" stroke-linecap="round" stroke-linejoin="round"/>
</g>
</svg>
