<svg preserveAspectRatio="none" width="100%" height="100%" overflow="visible" style="display: block;" viewBox="0 0 16 11" fill="none" xmlns="http://www.w3.org/2000/svg">
<path id="Vector" d="M0.352185 10.3314C0.577756 10.5944 0.883656 10.7421 1.20262 10.7421C1.52157 10.7421 1.82747 10.5944 2.05305 10.3314L8.00726 3.38653L13.9615 10.3314C14.1883 10.5869 14.4922 10.7283 14.8076 10.7251C15.123 10.7219 15.4247 10.5744 15.6477 10.3143C15.8707 10.0541 15.9972 9.70225 16 9.33439C16.0027 8.96653 15.8815 8.61213 15.6623 8.34752L8.85769 0.410778C8.63212 0.147757 8.32622 0 8.00726 0C7.6883 0 7.3824 0.147757 7.15683 0.410778L0.352185 8.34752C0.126681 8.61062 0 8.96742 0 9.33944C0 9.71146 0.126681 10.0683 0.352185 10.3314Z" fill="var(--fill-0, #C4946F)"/>
</svg>
