<svg width="305" height="56" viewBox="0 0 305 56" fill="none" xmlns="http://www.w3.org/2000/svg">
<path d="M33.792 41.088C33.792 41.4293 33.6426 41.7493 33.344 42.048H0.447967C0.1493 41.7493 -3.33786e-05 41.4506 -3.33786e-05 41.152C-3.33786e-05 40.64 0.298633 40.192 0.895967 39.808C1.70663 39.2533 2.3253 38.6773 2.75197 38.08C3.56263 36.8853 3.96797 34.816 3.96797 31.872V8.19197C3.96797 7.3813 3.51997 6.6773 2.62397 6.07997C1.89863 5.73864 1.1733 5.3973 0.447967 5.05597L0.383967 3.96797C3.11463 3.07197 6.05863 1.7493 9.21597 -2.67029e-05H10.112C10.0693 0.255973 10.0906 0.597305 10.176 1.02397C10.2613 1.40797 10.304 1.68531 10.304 1.85597L10.24 38.528C10.2826 38.528 10.3466 38.5706 10.432 38.656C10.5173 38.6986 10.6666 38.72 10.88 38.72C10.4106 38.72 11.4773 38.528 14.08 38.144C17.024 37.7173 19.1786 37.2053 20.544 36.608C22.848 35.584 24.6613 33.8773 25.984 31.488C27.4773 28.8 28.48 26.3253 28.992 24.064C29.0346 23.3813 29.2053 22.4213 29.504 21.184C29.6746 20.8 30.08 20.5653 30.72 20.48C31.4026 20.48 31.7866 20.9066 31.872 21.76C31.872 21.9306 31.6586 24.0426 31.232 28.096C30.848 32.1066 30.656 34.1973 30.656 34.368C30.656 36.288 31.168 37.7386 32.192 38.72C33.2586 39.7013 33.792 40.4906 33.792 41.088ZM60.6375 32.576C60.6375 33.5573 59.9335 34.9866 58.5255 36.864C56.6055 39.4666 54.7281 41.2373 52.8935 42.176C51.3148 42.9866 49.2455 43.392 46.6855 43.392C42.8028 43.392 39.6455 42.048 37.2135 39.36C34.9521 36.8426 33.8215 33.7493 33.8215 30.08C33.8215 26.24 35.0801 22.7413 37.5975 19.584C40.3708 16.128 43.7628 14.4 47.7735 14.4C49.8215 14.4 51.8695 15.0186 53.9175 16.256C56.3068 17.7493 57.9495 19.8186 58.8455 22.464C56.7975 23.3173 55.5815 23.808 55.1975 23.936C53.8321 24.576 52.6375 25.2373 51.6135 25.92C50.5895 26.6026 48.7761 27.968 46.1735 30.016C43.3148 32.3626 41.8855 33.6853 41.8855 33.984C41.8855 35.6906 44.3175 36.928 49.1815 37.696C51.2295 37.696 53.1068 37.1626 54.8135 36.096C55.9655 35.4133 57.0961 34.432 58.2055 33.152C59.1441 32.0853 59.6561 31.552 59.7415 31.552C60.3388 31.552 60.6375 31.8933 60.6375 32.576ZM48.6055 21.44C48.6055 21.184 48.5628 20.8853 48.4775 20.544C47.9228 18.88 47.1548 17.984 46.1735 17.856C45.9175 17.8133 45.2988 17.9626 44.3175 18.304C43.3788 18.6026 42.7175 18.9013 42.3335 19.2C40.0721 20.864 38.9201 23.424 38.8775 26.88C38.8348 29.6533 39.3041 31.0826 40.2855 31.168C41.9495 29.6746 43.5921 28.2026 45.2135 26.752C47.4748 24.5333 48.6055 22.7626 48.6055 21.44ZM89.766 37.504C89.766 38.3146 88.8273 39.4026 86.95 40.768C85.2433 42.048 84.0913 42.688 83.494 42.688C82.2993 42.688 81.2966 42.0266 80.486 40.704C79.718 39.3386 79.27 38.656 79.142 38.656C79.0993 38.656 78.566 38.9973 77.542 39.68C76.3046 40.4906 75.0673 41.1306 73.83 41.6C71.9953 42.3253 70.1606 42.688 68.326 42.688C66.278 42.688 64.5713 42.2186 63.206 41.28C61.5846 40.128 60.774 38.464 60.774 36.288C60.774 33.728 62.3313 31.2746 65.446 28.928C65.702 28.7146 68.2833 27.136 73.19 24.192C72.5073 22.8266 71.846 21.44 71.206 20.032C70.3953 18.624 69.3073 17.92 67.942 17.92C66.79 17.92 65.7446 18.2613 64.806 18.944C63.91 19.584 63.3553 19.904 63.142 19.904C62.3313 19.904 61.926 19.6266 61.926 19.072C61.926 18.5173 62.502 17.0026 63.654 14.528C64.038 14.3146 64.6353 14.208 65.446 14.208H78.118C79.5686 14.208 80.294 14.656 80.294 15.552C80.294 15.8933 79.8246 16.256 78.886 16.64C77.99 17.024 77.542 17.6853 77.542 18.624C77.542 19.6906 78.7366 22.848 81.126 28.096C82.406 30.7413 83.6646 33.3866 84.902 36.032C85.2006 36.7573 85.8833 37.12 86.95 37.12C87.334 37.12 88.1233 36.8426 89.318 36.288C89.6166 36.8853 89.766 37.2906 89.766 37.504ZM77.926 35.136L74.726 27.84H74.086C72.7206 28.8213 71.3553 29.8026 69.99 30.784C68.2833 32.1493 67.43 33.4506 67.43 34.688C67.43 35.584 67.7713 36.3733 68.454 37.056C69.1793 37.7386 70.0113 38.08 70.95 38.08C71.974 38.08 73.2966 37.7386 74.918 37.056C76.582 36.3306 77.5846 35.6906 77.926 35.136ZM113.421 15.424C113.464 15.68 113.208 16.96 112.653 19.264C112.056 21.696 111.565 23.2746 111.181 24H109.901C109.389 21.312 107.981 19.968 105.677 19.968C103.544 19.968 101.581 21.0346 99.7895 23.168V36.608C99.7895 37.9733 100.429 39.0186 101.709 39.744C103.032 40.4266 103.693 40.9173 103.693 41.216C103.651 41.984 103.245 42.368 102.477 42.368H91.5975C90.6161 42.368 90.1255 41.8986 90.1255 40.96C90.1255 40.832 90.4455 40.5546 91.0855 40.128C91.8961 39.616 92.5148 39.104 92.9415 38.592C93.5815 37.7386 93.9015 36.736 93.9015 35.584V23.744C93.9015 22.592 93.5388 21.8026 92.8135 21.376C92.6428 21.248 91.9815 21.0346 90.8295 20.736C90.1041 20.5653 89.7415 20.2026 89.7415 19.648C89.7415 19.1786 89.9121 18.7733 90.2535 18.432C91.1495 18.1333 92.8561 17.472 95.3735 16.448C97.5068 15.5946 98.6588 15.168 98.8295 15.168C99.2988 15.168 99.5761 15.7226 99.6615 16.832C99.6188 16.2346 99.5975 16.8746 99.5975 18.752C99.5121 18.8373 99.6188 18.88 99.9175 18.88C99.8748 18.88 100.451 18.4746 101.645 17.664C103.053 16.6826 104.44 15.9146 105.805 15.36C107.811 14.5493 109.752 14.144 111.629 14.144C112.824 14.144 113.421 14.5706 113.421 15.424ZM148.327 26.048C148.327 28.9066 146.727 32.96 143.527 38.208C144.21 38.72 145.596 39.552 147.687 40.704V41.6L147.047 42.24H137.319C137.148 42.0693 137.063 41.8346 137.063 41.536C137.063 41.536 137.468 40.9173 138.279 39.68C139.26 38.272 140.028 36.8426 140.583 35.392C141.394 33.3013 141.799 31.1466 141.799 28.928C141.799 22.784 139.644 19.712 135.335 19.712C133.799 19.712 132.327 20.032 130.919 20.672C129.298 21.3973 128.338 22.3573 128.039 23.552C127.826 24.4053 127.719 25.7493 127.719 27.584C127.719 28.5226 127.719 29.4613 127.719 30.4C127.719 33.344 127.826 35.328 128.039 36.352C128.551 38.784 129.703 40.2986 131.495 40.896V41.6L130.855 42.24H119.335C119.292 42.1973 119.186 42.1333 119.015 42.048C118.887 41.92 118.78 41.8346 118.695 41.792V41.088C119.719 40.2773 120.423 39.6586 120.807 39.232C121.618 38.2933 122.023 37.3546 122.023 36.416L122.215 23.744C122.258 20.5866 122.3 19.6906 122.343 21.056C122.3 20.032 122.108 19.1786 121.767 18.496C121.511 18.0266 120.956 17.4933 120.103 16.896C119.25 16.256 118.823 15.872 118.823 15.744C118.823 15.5733 118.866 15.4026 118.951 15.232C119.036 15.0613 119.079 14.912 119.079 14.784H128.871C129.17 15.0826 129.319 15.3173 129.319 15.488C129.319 15.616 129.191 15.8933 128.935 16.32C128.722 16.7466 128.594 17.0453 128.551 17.216C128.466 17.3013 128.572 17.344 128.871 17.344C128.914 17.344 129.426 17.024 130.407 16.384C131.431 15.744 132.22 15.296 132.775 15.04C134.055 14.4853 135.74 14.208 137.831 14.208C141.287 14.208 143.975 15.5306 145.895 18.176C147.516 20.4373 148.327 23.0613 148.327 26.048ZM204.986 13.12C204.986 15.7226 203.706 19.0933 201.146 23.232C199.525 25.792 197.157 29.0133 194.042 32.896C191.482 36.0533 190.202 37.76 190.202 38.016C190.202 38.4853 191.013 39.1893 192.634 40.128C194.298 41.024 195.13 41.6 195.13 41.856C195.13 42.0693 195.087 42.24 195.002 42.368C194.917 42.496 194.874 42.56 194.874 42.56H178.17V41.344C179.066 40.8746 179.983 40.384 180.922 39.872C182.117 39.232 182.757 38.6773 182.842 38.208L176.826 25.28L166.906 38.144C167.29 38.8266 168.037 39.5093 169.146 40.192C170.725 41.1306 171.557 41.6426 171.642 41.728C171.642 41.984 171.493 42.304 171.194 42.688L155.258 42.752C155.258 42.752 155.215 42.6026 155.13 42.304C155.045 42.048 155.002 41.856 155.002 41.728C155.813 41.3013 156.645 40.8533 157.498 40.384C158.863 39.6586 159.546 39.104 159.546 38.72C159.546 38.4213 158.565 36.3733 156.602 32.576C154.213 27.7973 152.421 24.0213 151.226 21.248C149.306 16.64 148.346 13.2266 148.346 11.008C148.346 9.08797 148.965 7.03997 150.202 4.86397C151.653 2.3893 153.274 1.15197 155.066 1.15197C155.663 1.15197 156.111 1.59997 156.41 2.49597C154.533 4.20264 153.594 5.86664 153.594 7.48797C153.594 9.32264 155.45 14.208 159.162 22.144C162.234 28.672 164.175 32.5973 164.986 33.92L174.778 20.48C173.839 18.5173 172.901 16.5546 171.962 14.592C171.322 13.0986 171.002 11.648 171.002 10.24C171.002 8.66131 171.749 6.71997 173.242 4.41597C174.735 2.11197 176.101 0.959972 177.338 0.959972C177.722 0.959972 178.042 1.17331 178.298 1.59997C178.597 1.98397 178.725 2.26131 178.682 2.43197C178.682 2.55997 178.447 2.8373 177.978 3.26397C177.551 3.64797 177.295 3.92531 177.21 4.09597C176.911 4.47997 176.677 5.3333 176.506 6.65597C176.506 8.74664 178.255 13.504 181.754 20.928C184.399 26.5173 186.469 30.592 187.962 33.152C188.986 32.512 190.757 29.9946 193.274 25.6C195.962 20.864 197.306 17.4293 197.306 15.296C197.306 13.2906 196.538 11.584 195.002 10.176C193.551 8.89597 191.909 8.25597 190.074 8.25597C188.794 8.25597 187.877 8.51197 187.322 9.02397H186.682C186.298 8.42664 186.063 7.80797 185.978 7.16797C193.445 2.64531 197.178 0.383972 197.178 0.383972C197.391 0.383972 197.882 0.703972 198.65 1.34397C202.874 4.92797 204.986 8.8533 204.986 13.12ZM233.785 22.784C233.785 25.8133 232.548 28.9706 230.073 32.256C227.726 34.816 225.401 37.3973 223.097 40C220.58 42.7733 219.321 45.056 219.321 46.848C219.321 48.128 219.726 49.152 220.537 49.92C220.75 49.8346 221.305 49.5573 222.201 49.088C222.884 48.7466 223.332 48.576 223.545 48.576C223.844 48.576 224.1 48.704 224.313 48.96C224.569 49.2586 224.697 49.5146 224.697 49.728C224.697 50.0266 223.012 51.8613 219.641 55.232C219.428 55.4026 219.022 55.488 218.425 55.488C216.974 55.488 215.737 54.6773 214.713 53.056C213.86 51.7333 213.433 50.432 213.433 49.152C213.433 47.1893 214.286 45.2053 215.993 43.2C217.7 41.2373 218.553 40.128 218.553 39.872C218.553 39.6586 217.529 37.6106 215.481 33.728C213.433 29.8453 211.684 26.624 210.233 24.064C209.678 23.0826 208.782 22.5066 207.545 22.336C206.734 22.2933 205.945 22.272 205.177 22.272C205.006 22.1013 204.942 21.9306 204.985 21.76C204.985 21.0346 205.177 20.5226 205.561 20.224C209.657 17.7066 212.089 16.4053 212.857 16.32C213.241 16.32 214.713 18.9653 217.273 24.256C220.174 30.3573 222.03 34.0053 222.841 35.2C224.292 34.0053 225.486 32.4266 226.425 30.464C227.364 28.5013 227.833 26.7306 227.833 25.152C227.833 23.9573 227.406 22.9333 226.553 22.08C225.7 21.184 224.718 20.736 223.609 20.736C223.097 20.736 222.414 20.864 221.561 21.12C221.262 20.8213 221.113 20.544 221.113 20.288C221.113 20.032 222.18 18.9226 224.313 16.96C226.489 14.9973 227.726 14.016 228.025 14.016C229.433 14.016 230.82 15.36 232.185 18.048C233.252 20.224 233.785 21.8026 233.785 22.784ZM258.291 15.424C258.334 15.68 258.078 16.96 257.523 19.264C256.926 21.696 256.435 23.2746 256.051 24H254.771C254.259 21.312 252.851 19.968 250.547 19.968C248.414 19.968 246.451 21.0346 244.659 23.168V36.608C244.659 37.9733 245.299 39.0186 246.579 39.744C247.902 40.4266 248.563 40.9173 248.563 41.216C248.521 41.984 248.115 42.368 247.347 42.368H236.467C235.486 42.368 234.995 41.8986 234.995 40.96C234.995 40.832 235.315 40.5546 235.955 40.128C236.766 39.616 237.385 39.104 237.811 38.592C238.451 37.7386 238.771 36.736 238.771 35.584V23.744C238.771 22.592 238.409 21.8026 237.683 21.376C237.513 21.248 236.851 21.0346 235.699 20.736C234.974 20.5653 234.611 20.2026 234.611 19.648C234.611 19.1786 234.782 18.7733 235.123 18.432C236.019 18.1333 237.726 17.472 240.243 16.448C242.377 15.5946 243.529 15.168 243.699 15.168C244.169 15.168 244.446 15.7226 244.531 16.832C244.489 16.2346 244.467 16.8746 244.467 18.752C244.382 18.8373 244.489 18.88 244.787 18.88C244.745 18.88 245.321 18.4746 246.515 17.664C247.923 16.6826 249.31 15.9146 250.675 15.36C252.681 14.5493 254.622 14.144 256.499 14.144C257.694 14.144 258.291 14.5706 258.291 15.424ZM304.269 26.56C304.269 28.8213 303.949 30.7626 303.309 32.384C302.37 34.3893 301.432 36.3946 300.493 38.4C301.389 38.9546 302.626 39.7866 304.205 40.896V42.048H294.221C294.05 42.0053 293.965 41.8346 293.965 41.536C293.965 41.4506 294.328 40.7893 295.053 39.552C295.778 38.272 296.248 37.312 296.461 36.672C297.314 34.1973 297.72 31.808 297.677 29.504C297.634 27.1146 297.186 25.024 296.333 23.232C295.181 20.7573 293.41 19.52 291.021 19.52C287.48 19.52 285.709 22.336 285.709 27.968C285.709 28.48 285.709 29.0773 285.709 29.76C285.752 30.4426 285.773 30.848 285.773 30.976C285.773 33.9626 285.773 35.2853 285.773 34.944C285.858 36.9066 286.178 38.3786 286.733 39.36C286.946 39.744 287.373 40.128 288.013 40.512C288.781 41.024 289.25 41.3653 289.421 41.536C289.293 41.7066 289.08 41.92 288.781 42.176H276.941L276.813 41.28C279.33 40.768 280.589 38.3146 280.589 33.92C280.589 33.4933 280.589 32.96 280.589 32.32C280.546 31.6373 280.525 31.2106 280.525 31.04C280.525 30.784 280.546 30.2933 280.589 29.568C280.589 28.8426 280.589 28.2666 280.589 27.84C280.589 22.464 278.605 19.776 274.637 19.776C272.205 19.776 270.456 21.0133 269.389 23.488C268.664 25.0666 268.301 26.944 268.301 29.12C268.301 31.5946 268.557 33.6853 269.069 35.392C269.453 36.544 270.306 38.464 271.629 41.152L271.693 41.984C272.077 41.984 271.416 41.984 269.709 41.984C268.002 42.0266 265.57 42.048 262.413 42.048C262.114 41.7493 261.965 41.5146 261.965 41.344C261.965 41.1733 262.584 40.6186 263.821 39.68C265.101 38.6986 265.741 38.1226 265.741 37.952C265.741 38.0373 265.144 36.864 263.949 34.432C262.754 32 262.157 29.504 262.157 26.944C262.157 23.5733 263.096 20.7146 264.973 18.368C267.021 15.8506 269.773 14.592 273.229 14.592C275.149 14.592 276.77 14.976 278.093 15.744C278.52 16.0426 279.373 16.7893 280.653 17.984C281.506 18.752 282.338 19.136 283.149 19.136C283.874 19.136 284.685 18.7306 285.581 17.92C286.861 16.7253 287.778 15.9573 288.333 15.616C289.741 14.8053 291.426 14.4 293.389 14.4C297.016 14.4 299.81 15.7226 301.773 18.368C303.437 20.6293 304.269 23.36 304.269 26.56Z" fill="#473025"/>
</svg>
