<svg preserveAspectRatio="none" width="100%" height="100%" overflow="visible" style="display: block;" viewBox="0 0 20 20" fill="none" xmlns="http://www.w3.org/2000/svg">
<path id="Star 6" d="M8.56958 0.880535C9.10195 -0.29351 10.7694 -0.293512 11.3018 0.880533L13.0736 4.78799C13.2919 5.26938 13.7475 5.60035 14.2728 5.6592L18.5365 6.13685C19.8176 6.28037 20.3329 7.86623 19.3808 8.73535L16.2121 11.6279C15.8217 11.9843 15.6477 12.5198 15.7541 13.0376L16.6174 17.2402C16.8768 18.503 15.5278 19.4831 14.407 18.8462L10.6768 16.7265C10.2172 16.4653 9.65415 16.4653 9.19459 16.7265L5.4644 18.8462C4.34361 19.4831 2.99459 18.503 3.25398 17.2403L4.11728 13.0376C4.22363 12.5198 4.04963 11.9843 3.65925 11.6279L0.490575 8.73535C-0.461496 7.86623 0.0537807 6.28037 1.33488 6.13685L5.59862 5.6592C6.1239 5.60035 6.57945 5.26938 6.79773 4.78799L8.56958 0.880535Z" fill="var(--fill-0, #FFFAF2)"/>
</svg>
