<svg preserveAspectRatio="none" width="100%" height="100%" overflow="visible" style="display: block;" viewBox="0 0 21 21" fill="none" xmlns="http://www.w3.org/2000/svg">
<g id="iconamoon:shopping-bag-fill" clip-path="url(#clip0_1121_336)">
<path id="Vector" fill-rule="evenodd" clip-rule="evenodd" d="M6.08814 6.95794C6.08814 6.26594 6.36303 5.60228 6.85235 5.11296C7.34167 4.62364 8.00533 4.34875 8.69733 4.34875C9.38933 4.34875 10.053 4.62364 10.5423 5.11296C11.0316 5.60228 11.3065 6.26594 11.3065 6.95794H6.08814ZM4.34867 6.95794C4.34867 5.8046 4.80683 4.69851 5.62237 3.88297C6.4379 3.06744 7.544 2.60928 8.69733 2.60928C9.85067 2.60928 10.9568 3.06744 11.7723 3.88297C12.5878 4.69851 13.046 5.8046 13.046 6.95794H15.6552C15.776 6.95793 15.8955 6.9831 16.0061 7.03183C16.1166 7.08057 16.2158 7.1518 16.2973 7.24099C16.3788 7.33018 16.4408 7.43537 16.4794 7.54986C16.518 7.66435 16.5323 7.78562 16.5214 7.90595L15.7952 15.8918C15.7362 16.5401 15.437 17.1429 14.9563 17.5819C14.4757 18.0209 13.8483 18.2643 13.1973 18.2645H4.19734C3.54639 18.2643 2.919 18.0209 2.43834 17.5819C1.95768 17.1429 1.65847 16.5401 1.59945 15.8918L0.873225 7.90595C0.862352 7.78562 0.876667 7.66435 0.91526 7.54986C0.953852 7.43537 1.01587 7.33018 1.09737 7.24099C1.17887 7.1518 1.27806 7.08057 1.38861 7.03183C1.49917 6.9831 1.61866 6.95793 1.73948 6.95794H4.34867Z" fill="var(--fill-0, #473025)"/>
<g id="material-symbols:settings-rounded">
</g>
</g>
<defs>
<clipPath id="clip0_1121_336">
<rect width="20.8736" height="20.8736" fill="white"/>
</clipPath>
</defs>
</svg>
