<svg preserveAspectRatio="none" width="100%" height="100%" overflow="visible" style="display: block;" viewBox="0 0 51 51" fill="none" xmlns="http://www.w3.org/2000/svg">
<g id="ion:game-controller">
<path id="Vector" d="M48.1243 24.4422C46.0116 14.8906 42.832 9.7926 38.1155 8.40006C37.1241 8.10921 36.0957 7.96392 35.0625 7.96875C33.6969 7.96875 32.5075 8.30145 31.2495 8.65406C29.7334 9.07939 28.0112 9.5625 25.5 9.5625C22.9888 9.5625 21.2656 9.08039 19.7466 8.65506C18.4875 8.30145 17.2992 7.96875 15.9375 7.96875C14.8691 7.96499 13.8054 8.10982 12.7769 8.39906C8.08529 9.78563 4.90775 14.8816 2.76416 24.4362C0.459199 34.7179 1.59375 41.2094 5.94568 42.7155C6.54222 42.9258 7.16989 43.0342 7.8024 43.0362C10.7837 43.0362 13.1743 40.553 14.8079 38.5199C16.6537 36.219 18.8142 35.0515 25.5 35.0515C31.4716 35.0515 33.9429 35.8614 36.0775 38.5199C37.4193 40.1914 38.6873 41.3608 39.9523 42.0969C41.6347 43.0751 43.3161 43.2922 44.9487 42.7314C47.5206 41.8539 48.9949 39.534 49.3315 35.8345C49.5875 32.9976 49.1931 29.2712 48.1243 24.4422ZM20.7187 23.9063H17.5312V27.0938C17.5312 27.5164 17.3633 27.9218 17.0645 28.2207C16.7656 28.5196 16.3602 28.6875 15.9375 28.6875C15.5148 28.6875 15.1094 28.5196 14.8105 28.2207C14.5117 27.9218 14.3438 27.5164 14.3438 27.0938V23.9063H11.1563C10.7336 23.9063 10.3282 23.7383 10.0293 23.4395C9.73041 23.1406 9.5625 22.7352 9.5625 22.3125C9.5625 21.8898 9.73041 21.4844 10.0293 21.1856C10.3282 20.8867 10.7336 20.7188 11.1563 20.7188H14.3438V17.5313C14.3438 17.1086 14.5117 16.7032 14.8105 16.4043C15.1094 16.1054 15.5148 15.9375 15.9375 15.9375C16.3602 15.9375 16.7656 16.1054 17.0645 16.4043C17.3633 16.7032 17.5312 17.1086 17.5312 17.5313V20.7188H20.7187C21.1414 20.7188 21.5468 20.8867 21.8457 21.1856C22.1446 21.4844 22.3125 21.8898 22.3125 22.3125C22.3125 22.7352 22.1446 23.1406 21.8457 23.4395C21.5468 23.7383 21.1414 23.9063 20.7187 23.9063ZM29.0859 24.3047C28.6919 24.3047 28.3068 24.1878 27.9791 23.9689C27.6515 23.75 27.3962 23.4389 27.2454 23.0749C27.0946 22.7109 27.0552 22.3103 27.132 21.9238C27.2089 21.5374 27.3986 21.1824 27.6772 20.9038C27.9559 20.6252 28.3108 20.4355 28.6973 20.3586C29.0837 20.2817 29.4843 20.3212 29.8483 20.472C30.2123 20.6227 30.5235 20.8781 30.7424 21.2057C30.9613 21.5333 31.0781 21.9185 31.0781 22.3125C31.0781 22.8409 30.8682 23.3476 30.4946 23.7212C30.121 24.0948 29.6143 24.3047 29.0859 24.3047ZM33.4688 28.6875C33.0745 28.6875 32.6892 28.5705 32.3614 28.3514C32.0337 28.1323 31.7784 27.8209 31.6277 27.4565C31.4771 27.0922 31.4379 26.6914 31.5152 26.3048C31.5925 25.9182 31.7827 25.5633 32.0618 25.2849C32.3409 25.0065 32.6964 24.8171 33.0832 24.7408C33.4699 24.6645 33.8706 24.7047 34.2346 24.8562C34.5985 25.0078 34.9093 25.2639 35.1276 25.5921C35.3459 25.9204 35.4619 26.3061 35.4609 26.7003C35.4596 27.2278 35.2491 27.7332 34.8757 28.1058C34.5022 28.4783 33.9963 28.6875 33.4688 28.6875ZM33.4688 19.9219C33.0747 19.9219 32.6896 19.805 32.3619 19.5861C32.0343 19.3672 31.779 19.0561 31.6282 18.6921C31.4774 18.328 31.438 17.9275 31.5148 17.541C31.5917 17.1546 31.7814 16.7996 32.0601 16.521C32.3387 16.2424 32.6936 16.0526 33.0801 15.9758C33.4665 15.8989 33.8671 15.9384 34.2311 16.0891C34.5952 16.2399 34.9063 16.4953 35.1252 16.8229C35.3441 17.1505 35.4609 17.5357 35.4609 17.9297C35.4609 18.458 35.251 18.9648 34.8774 19.3384C34.5038 19.712 33.9971 19.9219 33.4688 19.9219ZM37.8516 24.3047C37.4575 24.3047 37.0724 24.1878 36.7448 23.9689C36.4171 23.75 36.1618 23.4389 36.011 23.0749C35.8602 22.7109 35.8208 22.3103 35.8977 21.9238C35.9745 21.5374 36.1643 21.1824 36.4429 20.9038C36.7215 20.6252 37.0765 20.4355 37.4629 20.3586C37.8494 20.2817 38.2499 20.3212 38.6139 20.472C38.978 20.6227 39.2891 20.8781 39.508 21.2057C39.7269 21.5333 39.8438 21.9185 39.8438 22.3125C39.8438 22.8409 39.6339 23.3476 39.2603 23.7212C38.8866 24.0948 38.3799 24.3047 37.8516 24.3047Z" fill="var(--fill-0, #C8A787)"/>
</g>
</svg>
