<svg preserveAspectRatio="none" width="100%" height="100%" overflow="visible" style="display: block;" viewBox="0 0 11 12" fill="none" xmlns="http://www.w3.org/2000/svg">
<path id="Vector" d="M2.16113 2.875V4.15625H1.67871C1.54677 4.15625 1.44629 4.25943 1.44629 4.375V9.875C1.44629 9.99057 1.54677 10.0938 1.67871 10.0938H5.96387C6.09581 10.0938 6.19629 9.99057 6.19629 9.875V9.40625H7.51758V9.875C7.51758 10.7069 6.8163 11.375 5.96387 11.375H1.67871C0.826275 11.375 0.125 10.7069 0.125 9.875V4.375C0.125 3.54311 0.826275 2.875 1.67871 2.875H2.16113ZM7.51562 0.125L7.66895 0.131836C8.02341 0.165551 8.35614 0.315924 8.61133 0.561523L9.91895 1.81836C10.211 2.09942 10.375 2.48217 10.375 2.88184V7.125C10.375 7.95689 9.67373 8.625 8.82129 8.625H4.53613C3.6837 8.625 2.98242 7.95689 2.98242 7.125V1.625C2.98242 0.793106 3.6837 0.125 4.53613 0.125H7.51562ZM4.53613 1.40625C4.40419 1.40625 4.30371 1.50943 4.30371 1.625V7.125C4.30371 7.24057 4.40419 7.34375 4.53613 7.34375H8.82129C8.95323 7.34375 9.05371 7.24057 9.05371 7.125V2.88184C9.05371 2.8267 9.03026 2.77102 8.9873 2.72949L7.68164 1.47266C7.63831 1.43095 7.57753 1.40625 7.51562 1.40625H4.53613Z" fill="var(--fill-0, #473025)" stroke="var(--stroke-0, #473025)" stroke-width="0.25"/>
</svg>
