<svg preserveAspectRatio="none" width="100%" height="100%" overflow="visible" style="display: block;" viewBox="0 0 13 15" fill="none" xmlns="http://www.w3.org/2000/svg">
<g id="fa7-solid:worm" clip-path="url(#clip0_1243_348)">
<path id="Vector" d="M6.5 2.8125C6.5 1.25977 7.74777 0 9.28571 0H10.4C11.8364 0 13 1.1748 13 2.625V11.0156C13 13.2158 11.2328 15 9.05357 15C6.87433 15 5.10714 13.2158 5.10714 11.0156V8.67188C5.10714 8.02441 4.58772 7.5 3.94643 7.5C3.30513 7.5 2.78571 8.02441 2.78571 8.67188V13.5938C2.78571 14.3701 2.16183 15 1.39286 15C0.623884 15 0 14.3701 0 13.5938V8.67188C0 6.47168 1.76719 4.6875 3.94643 4.6875C6.12567 4.6875 7.89286 6.47168 7.89286 8.67188V11.0156C7.89286 11.6631 8.41228 12.1875 9.05357 12.1875C9.69487 12.1875 10.2143 11.6631 10.2143 11.0156V5.625H9.28571C7.74777 5.625 6.5 4.36523 6.5 2.8125ZM10.6786 2.57812C10.6786 2.39164 10.6052 2.2128 10.4746 2.08094C10.344 1.94908 10.1668 1.875 9.98214 1.875C9.79744 1.875 9.6203 1.94908 9.48969 2.08094C9.35909 2.2128 9.28571 2.39164 9.28571 2.57812C9.28571 2.76461 9.35909 2.94345 9.48969 3.07531C9.6203 3.20717 9.79744 3.28125 9.98214 3.28125C10.1668 3.28125 10.344 3.20717 10.4746 3.07531C10.6052 2.94345 10.6786 2.76461 10.6786 2.57812Z" fill="var(--fill-0, #FFFAF2)"/>
</g>
<defs>
<clipPath id="clip0_1243_348">
<rect width="13" height="15" fill="white"/>
</clipPath>
</defs>
</svg>
