<svg preserveAspectRatio="none" width="100%" height="100%" overflow="visible" style="display: block;" viewBox="0 0 18 18" fill="none" xmlns="http://www.w3.org/2000/svg">
<g id="streamline:help-question-1-solid" clip-path="url(#clip0_1243_364)">
<path id="Vector" fill-rule="evenodd" clip-rule="evenodd" d="M18 9C18 11.3869 17.0518 13.6761 15.364 15.364C13.6761 17.0518 11.3869 18 9 18C6.61305 18 4.32387 17.0518 2.63604 15.364C0.948211 13.6761 0 11.3869 0 9C0 6.61305 0.948211 4.32387 2.63604 2.63604C4.32387 0.948211 6.61305 0 9 0C11.3869 0 13.6761 0.948211 15.364 2.63604C17.0518 4.32387 18 6.61305 18 9ZM7.39286 6.75C7.39286 6.43214 7.48711 6.12141 7.66371 5.85712C7.8403 5.59283 8.09131 5.38683 8.38497 5.26519C8.67864 5.14355 9.00178 5.11173 9.31354 5.17374C9.62529 5.23575 9.91166 5.38882 10.1364 5.61358C10.3612 5.83834 10.5143 6.12471 10.5763 6.43646C10.6383 6.74822 10.6064 7.07136 10.4848 7.36503C10.3632 7.65869 10.1572 7.9097 9.89288 8.08629C9.62859 8.26289 9.31786 8.35714 9 8.35714C8.74426 8.35714 8.49899 8.45874 8.31815 8.63958C8.13731 8.82041 8.03571 9.06568 8.03571 9.32143V10.152C8.03571 10.4077 8.13731 10.653 8.31815 10.8339C8.49899 11.0147 8.74426 11.1163 9 11.1163C9.25574 11.1163 9.50101 11.0147 9.68185 10.8339C9.86269 10.653 9.96429 10.4077 9.96429 10.152C10.5976 9.97281 11.1683 9.6205 11.6122 9.13468C12.0562 8.64885 12.3558 8.0488 12.4774 7.40199C12.599 6.75519 12.5377 6.08729 12.3004 5.47342C12.0631 4.85955 11.6593 4.32406 11.1343 3.92717C10.6093 3.53027 9.984 3.28773 9.3287 3.22681C8.67339 3.16588 8.01409 3.289 7.42493 3.58232C6.83578 3.87563 6.34014 4.3275 5.99377 4.88711C5.6474 5.44672 5.46403 6.09187 5.46429 6.75C5.46429 7.00574 5.56588 7.25101 5.74672 7.43185C5.92756 7.61269 6.17283 7.71429 6.42857 7.71429C6.68432 7.71429 6.92959 7.61269 7.11042 7.43185C7.29126 7.25101 7.39286 7.00574 7.39286 6.75ZM10.2857 13.5C10.2857 13.841 10.1503 14.168 9.90914 14.4091C9.66802 14.6503 9.34099 14.7857 9 14.7857C8.65901 14.7857 8.33198 14.6503 8.09086 14.4091C7.84974 14.168 7.71429 13.841 7.71429 13.5C7.71429 13.159 7.84974 12.832 8.09086 12.5909C8.33198 12.3497 8.65901 12.2143 9 12.2143C9.34099 12.2143 9.66802 12.3497 9.90914 12.5909C10.1503 12.832 10.2857 13.159 10.2857 13.5Z" fill="var(--fill-0, #473025)"/>
</g>
<defs>
<clipPath id="clip0_1243_364">
<rect width="18" height="18" fill="white"/>
</clipPath>
</defs>
</svg>
