<svg preserveAspectRatio="none" width="100%" height="100%" overflow="visible" style="display: block;" viewBox="0 0 21 21" fill="none" xmlns="http://www.w3.org/2000/svg">
<g id="tabler:apple-filled">
<path id="Vector" d="M13.046 1.73953C13.2677 1.73978 13.4809 1.82466 13.6421 1.97684C13.8033 2.12902 13.9003 2.337 13.9133 2.5583C13.9263 2.77959 13.8543 2.9975 13.712 3.16749C13.5697 3.33748 13.3679 3.44673 13.1478 3.47291L13.046 3.479C12.4433 3.479 11.8893 4.08259 11.5753 4.82882C12.1118 4.55576 12.6983 4.39478 13.2991 4.35569L13.5296 4.34873C16.1231 4.34873 18.2644 7.00402 18.2644 9.84544C18.2644 12.9304 17.7373 14.9438 16.157 17.306C14.6854 19.2638 12.5981 19.7004 10.582 18.3792C10.5411 18.3531 10.4939 18.3385 10.4454 18.337C10.3969 18.3354 10.3488 18.347 10.3063 18.3705C8.27552 19.6995 6.18816 19.2638 4.68788 17.266C3.13715 14.9455 2.60922 12.9312 2.60922 9.84544L2.6127 9.65235C2.70663 6.88574 4.80964 4.34873 7.34404 4.34873C8.16159 4.34873 8.95478 4.60182 9.68188 5.03756C10.0463 3.34158 11.263 1.73953 13.046 1.73953ZM6.92831 7.09186C5.74547 7.83809 5.21841 8.88351 5.21841 10.4369C5.21841 10.6675 5.31005 10.8887 5.47315 11.0518C5.63626 11.215 5.85748 11.3066 6.08815 11.3066C6.31881 11.3066 6.54003 11.215 6.70314 11.0518C6.86624 10.8887 6.95788 10.6675 6.95788 10.4369C6.95788 9.4584 7.2014 8.97744 7.85718 8.56345C8.05232 8.44027 8.19054 8.24462 8.24143 8.01954C8.29232 7.79445 8.25171 7.55836 8.12854 7.36322C8.00536 7.16808 7.80971 7.02986 7.58462 6.97897C7.35953 6.92808 7.12345 6.96869 6.92831 7.09186Z" fill="var(--fill-0, #FFF6E9)"/>
</g>
</svg>
