<svg preserveAspectRatio="none" width="100%" height="100%" overflow="visible" style="display: block;" viewBox="0 0 18 8" fill="none" xmlns="http://www.w3.org/2000/svg">
<path id="Vector" d="M7.62386 7.71368C7.21274 7.71368 6.85888 7.65583 6.56227 7.54012C6.26566 7.42442 6.0866 7.283 6.02509 7.11587L5.81953 6.47949C5.62159 6.44735 5.43521 6.40878 5.26042 6.36379C5.08562 6.31879 4.91417 6.27058 4.74607 6.21916L3.33001 6.46985C2.94935 6.54056 2.56869 6.54699 2.18803 6.48914C1.80737 6.43128 1.51046 6.32843 1.29729 6.18059L0.223828 5.38994C0.0106583 5.24209 -0.0502471 5.0846 0.0411113 4.91747C0.13247 4.75034 0.338026 4.61214 0.65778 4.50286L1.86828 4.11718C1.85305 4.07218 1.84544 4.02873 1.84544 3.98682V3.72648C1.84544 3.68483 1.85305 3.6415 1.86828 3.5965L0.65778 3.21082C0.338026 3.10154 0.13247 2.96334 0.0411113 2.79621C-0.0502471 2.62908 0.0106583 2.47159 0.223828 2.32375L1.29729 1.53309C1.51046 1.38525 1.80737 1.2824 2.18803 1.22455C2.56869 1.16669 2.94935 1.17312 3.33001 1.24383L4.74607 1.49453C4.91356 1.4431 5.08866 1.39489 5.27138 1.34989C5.4541 1.3049 5.63681 1.26633 5.81953 1.23419L6.02509 0.59781C6.08599 0.430681 6.26505 0.289263 6.56227 0.173558C6.85949 0.0578526 7.21335 0 7.62386 0H9.77078C10.1819 0 10.5361 0.0578526 10.8333 0.173558C11.1305 0.289263 11.3093 0.430681 11.3696 0.59781L11.5751 1.23419C11.773 1.26633 11.9597 1.3049 12.1351 1.34989C12.3105 1.39489 12.4817 1.4431 12.6486 1.49453L14.0646 1.24383C14.4453 1.17312 14.8259 1.16669 15.2066 1.22455C15.5873 1.2824 15.8842 1.38525 16.0973 1.53309L17.1708 2.32375C17.384 2.47159 17.4449 2.62908 17.3535 2.79621C17.2622 2.96334 17.0566 3.10154 16.7369 3.21082L15.5264 3.5965C15.5416 3.6415 15.5492 3.68495 15.5492 3.72687V3.98682C15.5492 4.02873 15.534 4.07218 15.5035 4.11718L16.714 4.50286C17.0338 4.61214 17.2393 4.75034 17.3307 4.91747C17.422 5.0846 17.3611 5.24209 17.148 5.38994L16.0517 6.18059C15.8385 6.32843 15.5416 6.43128 15.1609 6.48914C14.7803 6.54699 14.3996 6.54056 14.0189 6.46985L12.6486 6.21916C12.4811 6.27058 12.306 6.31879 12.1233 6.36379C11.9405 6.40878 11.7578 6.44735 11.5751 6.47949L11.3696 7.11587C11.3086 7.283 11.1299 7.42442 10.8333 7.54012C10.5367 7.65583 10.1825 7.71368 9.77078 7.71368H7.62386ZM8.743 5.20674C9.62613 5.20674 10.3798 5.07496 11.0041 4.81141C11.6284 4.54786 11.9405 4.22967 11.9405 3.85684C11.9405 3.48401 11.6284 3.16582 11.0041 2.90227C10.3798 2.63872 9.62613 2.50695 8.743 2.50695C7.84464 2.50695 7.08697 2.63872 6.47 2.90227C5.85303 3.16582 5.54484 3.48401 5.54545 3.85684C5.54606 4.22967 5.85455 4.54786 6.47091 4.81141C7.08728 5.07496 7.84464 5.20674 8.743 5.20674Z" fill="var(--fill-0, #473025)"/>
</svg>
