<svg preserveAspectRatio="none" width="100%" height="100%" overflow="visible" style="display: block;" viewBox="0 0 20 20" fill="none" xmlns="http://www.w3.org/2000/svg">
<g id="iconamoon:discover-fill">
<path id="Vector" fill-rule="evenodd" clip-rule="evenodd" d="M1.59428 9.56708C1.59428 5.16384 5.16359 1.59454 9.56683 1.59454C13.9701 1.59454 17.5394 5.16384 17.5394 9.56708C17.5394 13.9703 13.9701 17.5396 9.56683 17.5396C5.16359 17.5396 1.59428 13.9703 1.59428 9.56708ZM11.9586 7.17532L9.01433 7.76449C8.70588 7.8263 8.42261 7.97798 8.20017 8.20042C7.97772 8.42286 7.82605 8.70613 7.76424 9.01458L7.17506 11.9588L10.1193 11.3697C10.4279 11.308 10.7114 11.1564 10.934 10.9339C11.1566 10.7115 11.3083 10.4281 11.3702 10.1196L11.9586 7.17532Z" fill="var(--fill-0, #473025)"/>
</g>
</svg>
