<svg preserveAspectRatio="none" width="100%" height="100%" overflow="visible" style="display: block;" viewBox="0 0 16 17" fill="none" xmlns="http://www.w3.org/2000/svg">
<path id="Vector" d="M10.9476 1.23629C10.1992 0.439038 9.15381 0 8 0C6.84003 0 5.79121 0.436381 5.04624 1.2287C4.29318 2.02974 3.92627 3.11842 4.01242 4.29399C4.18318 6.61326 5.97198 8.49995 8 8.49995C10.028 8.49995 11.8137 6.61364 11.9872 4.29475C12.0745 3.1298 11.7053 2.0434 10.9476 1.23629ZM14.769 16.9999H1.23096C1.05375 17.0022 0.878268 16.9654 0.717263 16.8924C0.556259 16.8193 0.413787 16.7118 0.300212 16.5776C0.0502186 16.2827 -0.0505479 15.8801 0.0240655 15.4729C0.348672 13.6963 1.36172 12.2039 2.95399 11.1562C4.36856 10.2261 6.16044 9.71423 8 9.71423C9.83957 9.71423 11.6314 10.2265 13.046 11.1562C14.6383 12.2035 15.6513 13.6959 15.9759 15.4726C16.0505 15.8797 15.9498 16.2823 15.6998 16.5772C15.5863 16.7115 15.4438 16.8191 15.2828 16.8922C15.1218 16.9653 14.9463 17.0021 14.769 16.9999Z" fill="var(--fill-0, #473025)"/>
</svg>
