<svg width="97" height="18" viewBox="0 0 97 18" fill="none" xmlns="http://www.w3.org/2000/svg">
<path d="M10.56 12.8401C10.56 12.9468 10.5133 13.0468 10.42 13.1401H0.139984C0.0466505 13.0468 -1.61529e-05 12.9535 -1.61529e-05 12.8601C-1.61529e-05 12.7001 0.0933172 12.5601 0.279984 12.4401C0.533317 12.2668 0.726651 12.0868 0.859984 11.9001C1.11332 11.5268 1.23998 10.8801 1.23998 9.96014V2.56014C1.23998 2.3068 1.09998 2.0868 0.819984 1.90014C0.593317 1.79347 0.366651 1.6868 0.139984 1.58014L0.119984 1.24014C0.973317 0.960136 1.89332 0.546803 2.87998 0.000136614H3.15998C3.14665 0.0801364 3.15332 0.186803 3.17998 0.320136C3.20665 0.440136 3.21998 0.526803 3.21998 0.580136L3.19998 12.0401C3.21332 12.0401 3.23332 12.0535 3.25998 12.0801C3.28665 12.0935 3.33332 12.1001 3.39998 12.1001C3.25332 12.1001 3.58665 12.0401 4.39998 11.9201C5.31998 11.7868 5.99332 11.6268 6.41998 11.4401C7.13998 11.1201 7.70665 10.5868 8.11998 9.84014C8.58665 9.00014 8.89998 8.2268 9.05998 7.52014C9.07332 7.3068 9.12665 7.0068 9.21998 6.62014C9.27332 6.50014 9.39998 6.4268 9.59998 6.40014C9.81332 6.40014 9.93332 6.53347 9.95998 6.80014C9.95998 6.85347 9.89332 7.51347 9.75998 8.78014C9.63998 10.0335 9.57998 10.6868 9.57998 10.7401C9.57998 11.3401 9.73998 11.7935 10.06 12.1001C10.3933 12.4068 10.56 12.6535 10.56 12.8401ZM19.1492 10.1801C19.1492 10.4868 18.9292 10.9335 18.4892 11.5201C17.8892 12.3335 17.3025 12.8868 16.7292 13.1801C16.2359 13.4335 15.5892 13.5601 14.7892 13.5601C13.5759 13.5601 12.5892 13.1401 11.8292 12.3001C11.1225 11.5135 10.7692 10.5468 10.7692 9.40014C10.7692 8.20014 11.1625 7.1068 11.9492 6.12014C12.8159 5.04014 13.8759 4.50014 15.1292 4.50014C15.7692 4.50014 16.4092 4.69347 17.0492 5.08014C17.7959 5.5468 18.3092 6.19347 18.5892 7.02014C17.9492 7.2868 17.5692 7.44014 17.4492 7.48014C17.0225 7.68014 16.6492 7.8868 16.3292 8.10014C16.0092 8.31347 15.4425 8.74014 14.6292 9.38014C13.7359 10.1135 13.2892 10.5268 13.2892 10.6201C13.2892 11.1535 14.0492 11.5401 15.5692 11.7801C16.2092 11.7801 16.7959 11.6135 17.3292 11.2801C17.6892 11.0668 18.0425 10.7601 18.3892 10.3601C18.6825 10.0268 18.8425 9.86014 18.8692 9.86014C19.0559 9.86014 19.1492 9.9668 19.1492 10.1801ZM15.3892 6.70014C15.3892 6.62014 15.3759 6.5268 15.3492 6.42014C15.1759 5.90014 14.9359 5.62014 14.6292 5.58014C14.5492 5.5668 14.3559 5.61347 14.0492 5.72014C13.7559 5.81347 13.5492 5.9068 13.4292 6.00014C12.7225 6.52014 12.3625 7.32014 12.3492 8.40014C12.3359 9.2668 12.4825 9.71347 12.7892 9.74014C13.3092 9.27347 13.8225 8.81347 14.3292 8.36014C15.0359 7.6668 15.3892 7.11347 15.3892 6.70014ZM28.4519 11.7201C28.4519 11.9735 28.1585 12.3135 27.5719 12.7401C27.0385 13.1401 26.6785 13.3401 26.4919 13.3401C26.1185 13.3401 25.8052 13.1335 25.5519 12.7201C25.3119 12.2935 25.1719 12.0801 25.1319 12.0801C25.1185 12.0801 24.9519 12.1868 24.6319 12.4001C24.2452 12.6535 23.8585 12.8535 23.4719 13.0001C22.8985 13.2268 22.3252 13.3401 21.7519 13.3401C21.1119 13.3401 20.5785 13.1935 20.1519 12.9001C19.6452 12.5401 19.3919 12.0201 19.3919 11.3401C19.3919 10.5401 19.8785 9.77347 20.8519 9.04014C20.9319 8.97347 21.7385 8.48014 23.2719 7.56014C23.0585 7.13347 22.8519 6.70014 22.6519 6.26014C22.3985 5.82014 22.0585 5.60014 21.6319 5.60014C21.2719 5.60014 20.9452 5.7068 20.6519 5.92014C20.3719 6.12014 20.1985 6.22014 20.1319 6.22014C19.8785 6.22014 19.7519 6.13347 19.7519 5.96014C19.7519 5.7868 19.9319 5.31347 20.2919 4.54014C20.4119 4.47347 20.5985 4.44014 20.8519 4.44014H24.8119C25.2652 4.44014 25.4919 4.58014 25.4919 4.86014C25.4919 4.9668 25.3452 5.08014 25.0519 5.20014C24.7719 5.32014 24.6319 5.5268 24.6319 5.82014C24.6319 6.15347 25.0052 7.14014 25.7519 8.78014C26.1519 9.6068 26.5452 10.4335 26.9319 11.2601C27.0252 11.4868 27.2385 11.6001 27.5719 11.6001C27.6919 11.6001 27.9385 11.5135 28.3119 11.3401C28.4052 11.5268 28.4519 11.6535 28.4519 11.7201ZM24.7519 10.9801L23.7519 8.70014H23.5519C23.1252 9.0068 22.6985 9.31347 22.2719 9.62014C21.7385 10.0468 21.4719 10.4535 21.4719 10.8401C21.4719 11.1201 21.5785 11.3668 21.7919 11.5801C22.0185 11.7935 22.2785 11.9001 22.5719 11.9001C22.8919 11.9001 23.3052 11.7935 23.8119 11.5801C24.3319 11.3535 24.6452 11.1535 24.7519 10.9801ZM36.0442 4.82014C36.0575 4.90014 35.9775 5.30014 35.8042 6.02014C35.6175 6.78014 35.4642 7.27347 35.3442 7.50014H34.9442C34.7842 6.66014 34.3442 6.24014 33.6242 6.24014C32.9575 6.24014 32.3442 6.57347 31.7842 7.24014V11.4401C31.7842 11.8668 31.9842 12.1935 32.3842 12.4201C32.7975 12.6335 33.0042 12.7868 33.0042 12.8801C32.9909 13.1201 32.8642 13.2401 32.6242 13.2401H29.2242C28.9175 13.2401 28.7642 13.0935 28.7642 12.8001C28.7642 12.7601 28.8642 12.6735 29.0642 12.5401C29.3175 12.3801 29.5109 12.2201 29.6442 12.0601C29.8442 11.7935 29.9442 11.4801 29.9442 11.1201V7.42014C29.9442 7.06014 29.8309 6.81347 29.6042 6.68014C29.5509 6.64014 29.3442 6.57347 28.9842 6.48014C28.7575 6.4268 28.6442 6.31347 28.6442 6.14014C28.6442 5.99347 28.6975 5.8668 28.8042 5.76014C29.0842 5.6668 29.6175 5.46014 30.4042 5.14014C31.0709 4.87347 31.4309 4.74014 31.4842 4.74014C31.6309 4.74014 31.7175 4.91347 31.7442 5.26014C31.7309 5.07347 31.7242 5.27347 31.7242 5.86014C31.6975 5.8868 31.7309 5.90014 31.8242 5.90014C31.8109 5.90014 31.9909 5.77347 32.3642 5.52014C32.8042 5.21347 33.2375 4.97347 33.6642 4.80014C34.2909 4.5468 34.8975 4.42014 35.4842 4.42014C35.8575 4.42014 36.0442 4.55347 36.0442 4.82014ZM47.1522 8.14014C47.1522 9.03347 46.6522 10.3001 45.6522 11.9401C45.8655 12.1001 46.2988 12.3601 46.9522 12.7201V13.0001L46.7522 13.2001H43.7122C43.6588 13.1468 43.6322 13.0735 43.6322 12.9801C43.6322 12.9801 43.7588 12.7868 44.0122 12.4001C44.3188 11.9601 44.5588 11.5135 44.7322 11.0601C44.9855 10.4068 45.1122 9.73347 45.1122 9.04014C45.1122 7.12014 44.4388 6.16014 43.0922 6.16014C42.6122 6.16014 42.1522 6.26014 41.7122 6.46014C41.2055 6.6868 40.9055 6.9868 40.8122 7.36014C40.7455 7.6268 40.7122 8.0468 40.7122 8.62014C40.7122 8.91347 40.7122 9.2068 40.7122 9.50014C40.7122 10.4201 40.7455 11.0401 40.8122 11.3601C40.9722 12.1201 41.3322 12.5935 41.8922 12.7801V13.0001L41.6922 13.2001H38.0922C38.0788 13.1868 38.0455 13.1668 37.9922 13.1401C37.9522 13.1001 37.9188 13.0735 37.8922 13.0601V12.8401C38.2122 12.5868 38.4322 12.3935 38.5522 12.2601C38.8055 11.9668 38.9322 11.6735 38.9322 11.3801L38.9922 7.42014C39.0055 6.43347 39.0188 6.15347 39.0322 6.58014C39.0188 6.26014 38.9588 5.99347 38.8522 5.78014C38.7722 5.63347 38.5988 5.4668 38.3322 5.28014C38.0655 5.08014 37.9322 4.96014 37.9322 4.92014C37.9322 4.8668 37.9455 4.81347 37.9722 4.76014C37.9988 4.7068 38.0122 4.66014 38.0122 4.62014H41.0722C41.1655 4.71347 41.2122 4.7868 41.2122 4.84014C41.2122 4.88014 41.1722 4.9668 41.0922 5.10014C41.0255 5.23347 40.9855 5.3268 40.9722 5.38014C40.9455 5.4068 40.9788 5.42014 41.0722 5.42014C41.0855 5.42014 41.2455 5.32014 41.5522 5.12014C41.8722 4.92014 42.1188 4.78014 42.2922 4.70014C42.6922 4.5268 43.2188 4.44014 43.8722 4.44014C44.9522 4.44014 45.7922 4.85347 46.3922 5.68014C46.8988 6.3868 47.1522 7.2068 47.1522 8.14014ZM65.0581 4.10014C65.0581 4.91347 64.6581 5.9668 63.8581 7.26014C63.3514 8.06014 62.6114 9.0668 61.6381 10.2801C60.8381 11.2668 60.4381 11.8001 60.4381 11.8801C60.4381 12.0268 60.6914 12.2468 61.1981 12.5401C61.7181 12.8201 61.9781 13.0001 61.9781 13.0801C61.9781 13.1468 61.9648 13.2001 61.9381 13.2401C61.9114 13.2801 61.8981 13.3001 61.8981 13.3001H56.6781V12.9201C56.9581 12.7735 57.2448 12.6201 57.5381 12.4601C57.9114 12.2601 58.1114 12.0868 58.1381 11.9401L56.2581 7.90014L53.1581 11.9201C53.2781 12.1335 53.5114 12.3468 53.8581 12.5601C54.3514 12.8535 54.6114 13.0135 54.6381 13.0401C54.6381 13.1201 54.5914 13.2201 54.4981 13.3401L49.5181 13.3601C49.5181 13.3601 49.5048 13.3135 49.4781 13.2201C49.4514 13.1401 49.4381 13.0801 49.4381 13.0401C49.6914 12.9068 49.9514 12.7668 50.2181 12.6201C50.6448 12.3935 50.8581 12.2201 50.8581 12.1001C50.8581 12.0068 50.5514 11.3668 49.9381 10.1801C49.1914 8.6868 48.6314 7.5068 48.2581 6.64014C47.6581 5.20014 47.3581 4.13347 47.3581 3.44014C47.3581 2.84014 47.5514 2.20014 47.9381 1.52014C48.3914 0.746802 48.8981 0.360136 49.4581 0.360136C49.6448 0.360136 49.7848 0.500136 49.8781 0.780136C49.2914 1.31347 48.9981 1.83347 48.9981 2.34014C48.9981 2.91347 49.5781 4.44014 50.7381 6.92014C51.6981 8.96014 52.3048 10.1868 52.5581 10.6001L55.6181 6.40014C55.3248 5.7868 55.0314 5.17347 54.7381 4.56014C54.5381 4.09347 54.4381 3.64014 54.4381 3.20014C54.4381 2.7068 54.6714 2.10014 55.1381 1.38014C55.6048 0.660136 56.0314 0.300136 56.4181 0.300136C56.5381 0.300136 56.6381 0.366803 56.7181 0.500136C56.8114 0.620136 56.8514 0.706803 56.8381 0.760136C56.8381 0.800136 56.7648 0.886803 56.6181 1.02014C56.4848 1.14014 56.4048 1.2268 56.3781 1.28014C56.2848 1.40014 56.2114 1.6668 56.1581 2.08014C56.1581 2.73347 56.7048 4.22014 57.7981 6.54014C58.6248 8.2868 59.2714 9.56014 59.7381 10.3601C60.0581 10.1601 60.6114 9.37347 61.3981 8.00014C62.2381 6.52014 62.6581 5.4468 62.6581 4.78014C62.6581 4.15347 62.4181 3.62014 61.9381 3.18014C61.4848 2.78014 60.9714 2.58014 60.3981 2.58014C59.9981 2.58014 59.7114 2.66014 59.5381 2.82014H59.3381C59.2181 2.63347 59.1448 2.44014 59.1181 2.24014C61.4514 0.826803 62.6181 0.120136 62.6181 0.120136C62.6848 0.120136 62.8381 0.220136 63.0781 0.420136C64.3981 1.54014 65.0581 2.7668 65.0581 4.10014ZM74.2578 7.12014C74.2578 8.0668 73.8711 9.05347 73.0978 10.0801C72.3645 10.8801 71.6378 11.6868 70.9178 12.5001C70.1311 13.3668 69.7378 14.0801 69.7378 14.6401C69.7378 15.0401 69.8645 15.3601 70.1178 15.6001C70.1845 15.5735 70.3578 15.4868 70.6378 15.3401C70.8511 15.2335 70.9911 15.1801 71.0578 15.1801C71.1511 15.1801 71.2311 15.2201 71.2978 15.3001C71.3778 15.3935 71.4178 15.4735 71.4178 15.5401C71.4178 15.6335 70.8911 16.2068 69.8378 17.2601C69.7711 17.3135 69.6445 17.3401 69.4578 17.3401C69.0045 17.3401 68.6178 17.0868 68.2978 16.5801C68.0311 16.1668 67.8978 15.7601 67.8978 15.3601C67.8978 14.7468 68.1645 14.1268 68.6978 13.5001C69.2311 12.8868 69.4978 12.5401 69.4978 12.4601C69.4978 12.3935 69.1778 11.7535 68.5378 10.5401C67.8978 9.3268 67.3511 8.32014 66.8978 7.52014C66.7245 7.21347 66.4445 7.03347 66.0578 6.98014C65.8045 6.9668 65.5578 6.96014 65.3178 6.96014C65.2645 6.9068 65.2445 6.85347 65.2578 6.80014C65.2578 6.57347 65.3178 6.41347 65.4378 6.32014C66.7178 5.53347 67.4778 5.1268 67.7178 5.10014C67.8378 5.10014 68.2978 5.9268 69.0978 7.58014C70.0045 9.4868 70.5845 10.6268 70.8378 11.0001C71.2911 10.6268 71.6645 10.1335 71.9578 9.52014C72.2511 8.9068 72.3978 8.35347 72.3978 7.86014C72.3978 7.4868 72.2645 7.1668 71.9978 6.90014C71.7311 6.62014 71.4245 6.48014 71.0778 6.48014C70.9178 6.48014 70.7045 6.52014 70.4378 6.60014C70.3445 6.5068 70.2978 6.42014 70.2978 6.34014C70.2978 6.26014 70.6311 5.91347 71.2978 5.30014C71.9778 4.6868 72.3645 4.38014 72.4578 4.38014C72.8978 4.38014 73.3311 4.80014 73.7578 5.64014C74.0911 6.32014 74.2578 6.81347 74.2578 7.12014ZM82.1161 4.82014C82.1294 4.90014 82.0494 5.30014 81.8761 6.02014C81.6894 6.78014 81.5361 7.27347 81.4161 7.50014H81.0161C80.8561 6.66014 80.4161 6.24014 79.6961 6.24014C79.0294 6.24014 78.4161 6.57347 77.8561 7.24014V11.4401C77.8561 11.8668 78.0561 12.1935 78.4561 12.4201C78.8694 12.6335 79.0761 12.7868 79.0761 12.8801C79.0627 13.1201 78.9361 13.2401 78.6961 13.2401H75.2961C74.9894 13.2401 74.8361 13.0935 74.8361 12.8001C74.8361 12.7601 74.9361 12.6735 75.1361 12.5401C75.3894 12.3801 75.5827 12.2201 75.7161 12.0601C75.9161 11.7935 76.0161 11.4801 76.0161 11.1201V7.42014C76.0161 7.06014 75.9027 6.81347 75.6761 6.68014C75.6227 6.64014 75.4161 6.57347 75.0561 6.48014C74.8294 6.4268 74.7161 6.31347 74.7161 6.14014C74.7161 5.99347 74.7694 5.8668 74.8761 5.76014C75.1561 5.6668 75.6894 5.46014 76.4761 5.14014C77.1427 4.87347 77.5027 4.74014 77.5561 4.74014C77.7027 4.74014 77.7894 4.91347 77.8161 5.26014C77.8027 5.07347 77.7961 5.27347 77.7961 5.86014C77.7694 5.8868 77.8027 5.90014 77.8961 5.90014C77.8827 5.90014 78.0627 5.77347 78.4361 5.52014C78.8761 5.21347 79.3094 4.97347 79.7361 4.80014C80.3627 4.5468 80.9694 4.42014 81.5561 4.42014C81.9294 4.42014 82.1161 4.55347 82.1161 4.82014ZM96.6841 8.30014C96.6841 9.0068 96.5841 9.61347 96.3841 10.1201C96.0907 10.7468 95.7974 11.3735 95.504 12.0001C95.7841 12.1735 96.1707 12.4335 96.6641 12.7801V13.1401H93.544C93.4907 13.1268 93.464 13.0735 93.464 12.9801C93.464 12.9535 93.5774 12.7468 93.8041 12.3601C94.0307 11.9601 94.1774 11.6601 94.2441 11.4601C94.5107 10.6868 94.6374 9.94014 94.6241 9.22014C94.6107 8.47347 94.4707 7.82014 94.204 7.26014C93.844 6.4868 93.2907 6.10014 92.544 6.10014C91.4374 6.10014 90.884 6.98014 90.884 8.74014C90.884 8.90014 90.884 9.0868 90.884 9.30014C90.8974 9.51347 90.904 9.64014 90.904 9.68014C90.904 10.6135 90.904 11.0268 90.904 10.9201C90.9307 11.5335 91.0307 11.9935 91.204 12.3001C91.2707 12.4201 91.404 12.5401 91.604 12.6601C91.8441 12.8201 91.9907 12.9268 92.0441 12.9801C92.004 13.0335 91.9374 13.1001 91.844 13.1801H88.144L88.104 12.9001C88.8907 12.7401 89.284 11.9735 89.284 10.6001C89.284 10.4668 89.284 10.3001 89.284 10.1001C89.2707 9.8868 89.264 9.75347 89.264 9.70014C89.264 9.62014 89.2707 9.4668 89.284 9.24014C89.284 9.01347 89.284 8.83347 89.284 8.70014C89.284 7.02014 88.664 6.18014 87.424 6.18014C86.664 6.18014 86.1174 6.5668 85.784 7.34014C85.5574 7.83347 85.444 8.42014 85.444 9.10014C85.444 9.87347 85.524 10.5268 85.684 11.0601C85.804 11.4201 86.0707 12.0201 86.484 12.8601L86.504 13.1201C86.624 13.1201 86.4174 13.1201 85.884 13.1201C85.3507 13.1335 84.5907 13.1401 83.604 13.1401C83.5107 13.0468 83.464 12.9735 83.464 12.9201C83.464 12.8668 83.6574 12.6935 84.044 12.4001C84.444 12.0935 84.644 11.9135 84.644 11.8601C84.644 11.8868 84.4574 11.5201 84.084 10.7601C83.7107 10.0001 83.524 9.22014 83.524 8.42014C83.524 7.3668 83.8174 6.47347 84.404 5.74014C85.044 4.95347 85.904 4.56014 86.984 4.56014C87.584 4.56014 88.0907 4.68014 88.504 4.92014C88.6374 5.01347 88.904 5.2468 89.304 5.62014C89.5707 5.86014 89.8307 5.98014 90.084 5.98014C90.3107 5.98014 90.564 5.85347 90.844 5.60014C91.244 5.2268 91.5307 4.9868 91.704 4.88014C92.144 4.6268 92.6707 4.50014 93.284 4.50014C94.4174 4.50014 95.2907 4.91347 95.9041 5.74014C96.4241 6.4468 96.6841 7.30014 96.6841 8.30014Z" fill="#473025"/>
</svg>
