<svg width="340" height="63" viewBox="0 0 340 63" fill="none" xmlns="http://www.w3.org/2000/svg">
<path d="M63.9687 14.456C63.9687 17.384 62.5287 21.176 59.6487 25.832C57.8247 28.712 55.1607 32.336 51.6567 36.704C48.7767 40.256 47.3367 42.176 47.3367 42.464C47.3367 42.992 48.2487 43.784 50.0727 44.84C51.9447 45.848 52.8807 46.496 52.8807 46.784C52.8807 47.024 52.8327 47.216 52.7367 47.36C52.6407 47.504 52.5927 47.576 52.5927 47.576H33.8007V46.208C34.8087 45.68 35.8407 45.128 36.8967 44.552C38.2407 43.832 38.9607 43.208 39.0567 42.68L32.2887 28.136L21.1287 42.608C21.5607 43.376 22.4007 44.144 23.6487 44.912C25.4247 45.968 26.3607 46.544 26.4567 46.64C26.4567 46.928 26.2887 47.288 25.9527 47.72L8.02473 47.792C8.02473 47.792 7.97673 47.624 7.88073 47.288C7.78473 47 7.73673 46.784 7.73673 46.64C8.64873 46.16 9.58473 45.656 10.5447 45.128C12.0807 44.312 12.8487 43.688 12.8487 43.256C12.8487 42.92 11.7447 40.616 9.53673 36.344C6.84873 30.968 4.83273 26.72 3.48873 23.6C1.32873 18.416 0.248726 14.576 0.248726 12.08C0.248726 9.92 0.944726 7.616 2.33673 5.168C3.96873 2.384 5.79273 0.991996 7.80873 0.991996C8.48073 0.991996 8.98473 1.496 9.32073 2.504C7.20873 4.424 6.15273 6.296 6.15273 8.12C6.15273 10.184 8.24073 15.68 12.4167 24.608C15.8727 31.952 18.0567 36.368 18.9687 37.856L29.9847 22.736C28.9287 20.528 27.8727 18.32 26.8167 16.112C26.0967 14.432 25.7367 12.8 25.7367 11.216C25.7367 9.44 26.5767 7.256 28.2567 4.664C29.9367 2.072 31.4727 0.775999 32.8647 0.775999C33.2967 0.775999 33.6567 1.016 33.9447 1.496C34.2807 1.928 34.4247 2.24 34.3767 2.432C34.3767 2.576 34.1127 2.888 33.5847 3.368C33.1047 3.8 32.8167 4.112 32.7207 4.304C32.3847 4.736 32.1207 5.696 31.9287 7.184C31.9287 9.536 33.8967 14.888 37.8327 23.24C40.8087 29.528 43.1367 34.112 44.8167 36.992C45.9687 36.272 47.9607 33.44 50.7927 28.496C53.8167 23.168 55.3287 19.304 55.3287 16.904C55.3287 14.648 54.4647 12.728 52.7367 11.144C51.1047 9.704 49.2567 8.984 47.1927 8.984C45.7527 8.984 44.7207 9.272 44.0967 9.848H43.3767C42.9447 9.176 42.6807 8.48 42.5847 7.76C50.9847 2.672 55.1847 0.127998 55.1847 0.127998C55.4247 0.127998 55.9767 0.487998 56.8407 1.208C61.5927 5.24 63.9687 9.656 63.9687 14.456ZM86.5756 32.024C86.5756 32.84 86.2636 33.608 85.6396 34.328C85.0156 35.048 84.2956 35.408 83.4796 35.408C82.5676 35.408 81.7996 34.928 81.1756 33.968C80.6476 33.2 80.3836 32.504 80.3836 31.88C80.3836 30.92 80.7436 30.176 81.4636 29.648C82.1836 29.072 83.0236 28.784 83.9836 28.784C84.6076 28.784 85.1836 29.216 85.7116 30.08C86.2876 30.944 86.5756 31.592 86.5756 32.024ZM99.8956 29.72C99.8956 35.144 98.2636 39.584 94.9996 43.04C91.7356 46.448 87.5596 48.152 82.4716 48.152C78.1036 48.152 74.3116 46.784 71.0956 44.048C67.6396 41.12 65.9116 37.448 65.9116 33.032C65.9116 30.296 66.6316 27.488 68.0716 24.608C69.8956 21.008 72.3916 18.416 75.5596 16.832C75.6076 16.784 75.9196 16.568 76.4956 16.184C76.9276 15.896 77.2636 15.752 77.5036 15.752C77.6956 15.752 77.9116 15.896 78.1516 16.184C78.4876 16.616 78.7276 16.88 78.8716 16.976C76.0396 19.616 74.2636 21.608 73.5436 22.952C72.9196 24.104 72.6076 25.784 72.6076 27.992C72.6076 31.496 73.6876 34.904 75.8476 38.216C78.3436 42.2 81.4876 44.192 85.2796 44.192C87.8716 44.192 89.9596 43.28 91.5436 41.456C92.9836 39.776 93.7036 37.76 93.7036 35.408C93.7036 32.336 92.8156 29.264 91.0396 26.192C88.8796 22.496 86.2156 20.648 83.0476 20.648C80.1676 20.648 77.9836 21.968 76.4956 24.608L75.5596 24.536C75.0796 24.056 74.7676 23.696 74.6236 23.456C77.9356 18.032 81.8476 15.32 86.3596 15.32C89.8636 15.32 93.0316 16.88 95.8636 20C98.5516 23.024 99.8956 26.264 99.8956 29.72ZM127.242 17.048C127.29 17.336 127.002 18.776 126.378 21.368C125.706 24.104 125.154 25.88 124.722 26.696H123.282C122.706 23.672 121.122 22.16 118.53 22.16C116.13 22.16 113.922 23.36 111.906 25.76V40.88C111.906 42.416 112.626 43.592 114.066 44.408C115.554 45.176 116.298 45.728 116.298 46.064C116.25 46.928 115.794 47.36 114.93 47.36H102.69C101.586 47.36 101.034 46.832 101.034 45.776C101.034 45.632 101.394 45.32 102.114 44.84C103.026 44.264 103.722 43.688 104.202 43.112C104.922 42.152 105.282 41.024 105.282 39.728V26.408C105.282 25.112 104.874 24.224 104.058 23.744C103.866 23.6 103.122 23.36 101.826 23.024C101.01 22.832 100.602 22.424 100.602 21.8C100.602 21.272 100.794 20.816 101.178 20.432C102.186 20.096 104.106 19.352 106.938 18.2C109.338 17.24 110.634 16.76 110.826 16.76C111.354 16.76 111.666 17.384 111.762 18.632C111.714 17.96 111.69 18.68 111.69 20.792C111.594 20.888 111.714 20.936 112.05 20.936C112.002 20.936 112.65 20.48 113.994 19.568C115.578 18.464 117.138 17.6 118.674 16.976C120.93 16.064 123.114 15.608 125.226 15.608C126.57 15.608 127.242 16.088 127.242 17.048ZM163.559 47.864L136.127 47.936C134.879 46.832 133.655 44.6 132.455 41.24C131.303 37.88 130.727 35.024 130.727 32.672C130.727 28.352 131.831 24.608 134.039 21.44C136.583 17.744 139.991 15.92 144.263 15.968C146.423 15.968 149.231 17.12 152.687 19.424C152.783 19.424 152.927 19.328 153.119 19.136C153.167 17.312 153.191 15.512 153.191 13.736C153.143 11.72 152.831 10.112 152.255 8.912C151.919 8.192 151.079 7.784 149.735 7.688C148.631 7.592 148.079 7.112 148.079 6.248C148.079 5.72 148.247 5.288 148.583 4.952C154.775 2.936 157.967 1.928 158.159 1.928H159.383V41.816C159.383 42.92 160.031 43.904 161.327 44.768C162.047 45.248 162.791 45.728 163.559 46.208V47.864ZM153.191 31.016C153.143 28.856 152.951 26.552 152.615 24.104C151.943 23.432 150.863 22.832 149.375 22.304C147.887 21.728 146.639 21.44 145.631 21.44C143.087 21.44 141.191 22.664 139.943 25.112C138.983 26.984 138.503 29.168 138.503 31.664C138.503 34.64 139.199 37.28 140.591 39.584C142.367 42.608 144.887 44.12 148.151 44.12C148.727 44.12 149.543 43.88 150.599 43.4C151.847 42.824 152.543 42.2 152.687 41.528C153.215 39.176 153.383 35.672 153.191 31.016ZM227.44 14.456C227.44 17.384 226 21.176 223.12 25.832C221.296 28.712 218.632 32.336 215.128 36.704C212.248 40.256 210.808 42.176 210.808 42.464C210.808 42.992 211.72 43.784 213.544 44.84C215.416 45.848 216.352 46.496 216.352 46.784C216.352 47.024 216.304 47.216 216.208 47.36C216.112 47.504 216.064 47.576 216.064 47.576H197.272V46.208C198.28 45.68 199.312 45.128 200.368 44.552C201.712 43.832 202.432 43.208 202.528 42.68L195.76 28.136L184.6 42.608C185.032 43.376 185.872 44.144 187.12 44.912C188.896 45.968 189.832 46.544 189.928 46.64C189.928 46.928 189.76 47.288 189.424 47.72L171.496 47.792C171.496 47.792 171.448 47.624 171.352 47.288C171.256 47 171.208 46.784 171.208 46.64C172.12 46.16 173.056 45.656 174.016 45.128C175.552 44.312 176.32 43.688 176.32 43.256C176.32 42.92 175.216 40.616 173.008 36.344C170.32 30.968 168.304 26.72 166.96 23.6C164.8 18.416 163.72 14.576 163.72 12.08C163.72 9.92 164.416 7.616 165.808 5.168C167.44 2.384 169.264 0.991996 171.28 0.991996C171.952 0.991996 172.456 1.496 172.792 2.504C170.68 4.424 169.624 6.296 169.624 8.12C169.624 10.184 171.712 15.68 175.888 24.608C179.344 31.952 181.528 36.368 182.44 37.856L193.456 22.736C192.4 20.528 191.344 18.32 190.288 16.112C189.568 14.432 189.208 12.8 189.208 11.216C189.208 9.44 190.048 7.256 191.728 4.664C193.408 2.072 194.944 0.775999 196.336 0.775999C196.768 0.775999 197.128 1.016 197.416 1.496C197.752 1.928 197.896 2.24 197.848 2.432C197.848 2.576 197.584 2.888 197.056 3.368C196.576 3.8 196.288 4.112 196.192 4.304C195.856 4.736 195.592 5.696 195.4 7.184C195.4 9.536 197.368 14.888 201.304 23.24C204.28 29.528 206.608 34.112 208.288 36.992C209.44 36.272 211.432 33.44 214.264 28.496C217.288 23.168 218.8 19.304 218.8 16.904C218.8 14.648 217.936 12.728 216.208 11.144C214.576 9.704 212.728 8.984 210.664 8.984C209.224 8.984 208.192 9.272 207.568 9.848H206.848C206.416 9.176 206.152 8.48 206.056 7.76C214.456 2.672 218.656 0.127998 218.656 0.127998C218.896 0.127998 219.448 0.487998 220.312 1.208C225.064 5.24 227.44 9.656 227.44 14.456ZM259.839 25.328C259.839 28.736 258.447 32.288 255.663 35.984C253.023 38.864 250.407 41.768 247.815 44.696C244.983 47.816 243.567 50.384 243.567 52.4C243.567 53.84 244.023 54.992 244.935 55.856C245.175 55.76 245.799 55.448 246.807 54.92C247.575 54.536 248.079 54.344 248.319 54.344C248.655 54.344 248.943 54.488 249.183 54.776C249.471 55.112 249.615 55.4 249.615 55.64C249.615 55.976 247.719 58.04 243.927 61.832C243.687 62.024 243.231 62.12 242.559 62.12C240.927 62.12 239.535 61.208 238.383 59.384C237.423 57.896 236.943 56.432 236.943 54.992C236.943 52.784 237.903 50.552 239.823 48.296C241.743 46.088 242.703 44.84 242.703 44.552C242.703 44.312 241.551 42.008 239.247 37.64C236.943 33.272 234.975 29.648 233.343 26.768C232.719 25.664 231.711 25.016 230.319 24.824C229.407 24.776 228.519 24.752 227.655 24.752C227.463 24.56 227.391 24.368 227.439 24.176C227.439 23.36 227.655 22.784 228.087 22.448C232.695 19.616 235.431 18.152 236.295 18.056C236.727 18.056 238.383 21.032 241.263 26.984C244.527 33.848 246.615 37.952 247.527 39.296C249.159 37.952 250.503 36.176 251.559 33.968C252.615 31.76 253.143 29.768 253.143 27.992C253.143 26.648 252.663 25.496 251.703 24.536C250.743 23.528 249.639 23.024 248.391 23.024C247.815 23.024 247.047 23.168 246.087 23.456C245.751 23.12 245.583 22.808 245.583 22.52C245.583 22.232 246.783 20.984 249.183 18.776C251.631 16.568 253.023 15.464 253.359 15.464C254.943 15.464 256.503 16.976 258.039 20C259.239 22.448 259.839 24.224 259.839 25.328ZM287.408 17.048C287.456 17.336 287.168 18.776 286.544 21.368C285.872 24.104 285.32 25.88 284.888 26.696H283.448C282.872 23.672 281.288 22.16 278.696 22.16C276.296 22.16 274.088 23.36 272.072 25.76V40.88C272.072 42.416 272.792 43.592 274.232 44.408C275.72 45.176 276.464 45.728 276.464 46.064C276.416 46.928 275.96 47.36 275.096 47.36H262.856C261.752 47.36 261.2 46.832 261.2 45.776C261.2 45.632 261.56 45.32 262.28 44.84C263.192 44.264 263.888 43.688 264.368 43.112C265.088 42.152 265.448 41.024 265.448 39.728V26.408C265.448 25.112 265.04 24.224 264.224 23.744C264.032 23.6 263.288 23.36 261.992 23.024C261.176 22.832 260.768 22.424 260.768 21.8C260.768 21.272 260.96 20.816 261.344 20.432C262.352 20.096 264.272 19.352 267.104 18.2C269.504 17.24 270.8 16.76 270.992 16.76C271.52 16.76 271.832 17.384 271.928 18.632C271.88 17.96 271.856 18.68 271.856 20.792C271.76 20.888 271.88 20.936 272.216 20.936C272.168 20.936 272.816 20.48 274.16 19.568C275.744 18.464 277.304 17.6 278.84 16.976C281.096 16.064 283.28 15.608 285.392 15.608C286.736 15.608 287.408 16.088 287.408 17.048ZM339.133 29.576C339.133 32.12 338.773 34.304 338.053 36.128C336.997 38.384 335.941 40.64 334.885 42.896C335.893 43.52 337.285 44.456 339.061 45.704V47H327.829C327.637 46.952 327.541 46.76 327.541 46.424C327.541 46.328 327.949 45.584 328.765 44.192C329.581 42.752 330.109 41.672 330.349 40.952C331.309 38.168 331.765 35.48 331.717 32.888C331.669 30.2 331.165 27.848 330.205 25.832C328.909 23.048 326.917 21.656 324.229 21.656C320.245 21.656 318.253 24.824 318.253 31.16C318.253 31.736 318.253 32.408 318.253 33.176C318.301 33.944 318.325 34.4 318.325 34.544C318.325 37.904 318.325 39.392 318.325 39.008C318.421 41.216 318.781 42.872 319.405 43.976C319.645 44.408 320.125 44.84 320.845 45.272C321.709 45.848 322.237 46.232 322.429 46.424C322.285 46.616 322.045 46.856 321.709 47.144H308.389L308.245 46.136C311.077 45.56 312.493 42.8 312.493 37.856C312.493 37.376 312.493 36.776 312.493 36.056C312.445 35.288 312.421 34.808 312.421 34.616C312.421 34.328 312.445 33.776 312.493 32.96C312.493 32.144 312.493 31.496 312.493 31.016C312.493 24.968 310.261 21.944 305.797 21.944C303.061 21.944 301.093 23.336 299.893 26.12C299.077 27.896 298.669 30.008 298.669 32.456C298.669 35.24 298.957 37.592 299.533 39.512C299.965 40.808 300.925 42.968 302.413 45.992L302.485 46.928C302.917 46.928 302.173 46.928 300.253 46.928C298.333 46.976 295.597 47 292.045 47C291.709 46.664 291.541 46.4 291.541 46.208C291.541 46.016 292.237 45.392 293.629 44.336C295.069 43.232 295.789 42.584 295.789 42.392C295.789 42.488 295.117 41.168 293.773 38.432C292.429 35.696 291.757 32.888 291.757 30.008C291.757 26.216 292.813 23 294.925 20.36C297.229 17.528 300.325 16.112 304.213 16.112C306.373 16.112 308.197 16.544 309.685 17.408C310.165 17.744 311.125 18.584 312.565 19.928C313.525 20.792 314.461 21.224 315.373 21.224C316.189 21.224 317.101 20.768 318.109 19.856C319.549 18.512 320.581 17.648 321.205 17.264C322.789 16.352 324.685 15.896 326.893 15.896C330.973 15.896 334.117 17.384 336.325 20.36C338.197 22.904 339.133 25.976 339.133 29.576Z" fill="#473025"/>
</svg>
