<svg preserveAspectRatio="none" width="100%" height="100%" overflow="visible" style="display: block;" viewBox="0 0 181 182" fill="none" xmlns="http://www.w3.org/2000/svg">
<g id="Group 41">
<path id="Subtract" d="M89.9863 1.05867C139.684 1.05867 179.973 41.3469 179.973 91.045C179.973 140.743 139.685 181.031 89.9863 181.031C40.2882 181.031 0 140.743 0 91.045C0.000119575 41.347 40.2883 1.05878 89.9863 1.05867ZM89.9863 32.2686C57.5247 32.2689 31.209 58.5843 31.209 91.046C31.2092 123.507 57.5249 149.823 89.9863 149.823C122.448 149.823 148.763 123.508 148.764 91.046C148.764 58.5841 122.448 32.2686 89.9863 32.2686Z" fill="var(--fill-0, #FF4880)"/>
<path id="Subtract_2" d="M89.9863 1.05867C139.684 1.05867 179.973 41.3469 179.973 91.045C179.973 140.743 139.685 181.031 89.9863 181.031C56.9347 181.031 28.0456 163.212 12.4004 136.656L39.6738 121.449C49.9733 138.457 68.6524 149.823 89.9863 149.823C122.448 149.823 148.763 123.508 148.764 91.046C148.764 58.5841 122.448 32.2686 89.9863 32.2686C57.5247 32.2689 31.209 58.5843 31.209 91.046C31.209 92.7554 31.2818 94.4478 31.4248 96.1202L0.224609 97.4268C0.0768971 95.3187 0 93.1907 0 91.045C0.000119575 41.347 40.2883 1.05878 89.9863 1.05867Z" fill="var(--fill-0, #4C7EFA)"/>
<path id="Subtract_3" d="M179.816 91.2102C179.461 140.907 138.886 180.906 89.1896 180.552C52.9112 180.293 21.8029 158.6 7.78545 127.573L36.0152 114.233C45.0597 134.769 65.5195 149.173 89.4124 149.344C121.873 149.575 148.376 123.448 148.608 90.9874C148.839 58.5266 122.712 32.0237 90.2516 31.7919C79.1627 31.7127 68.7694 34.71 59.8809 39.9844L44.9032 12.5848C58.3052 4.84668 73.881 0.465226 90.4745 0.583697C140.171 0.938633 180.171 41.5134 179.816 91.2102Z" fill="var(--fill-0, #A0B90E)"/>
</g>
</svg>
