<svg preserveAspectRatio="none" width="100%" height="100%" overflow="visible" style="display: block;" viewBox="0 0 24 24" fill="none" xmlns="http://www.w3.org/2000/svg">
<g id="tabler:apple-filled">
<path id="Vector" d="M15 2C15.2549 2.00028 15.5 2.09788 15.6854 2.27285C15.8707 2.44782 15.9822 2.68695 15.9972 2.94139C16.0121 3.19584 15.9293 3.44638 15.7657 3.64183C15.6021 3.83729 15.3701 3.9629 15.117 3.993L15 4C14.307 4 13.67 4.694 13.309 5.552C13.9259 5.23804 14.6003 5.05295 15.291 5.008L15.556 5C18.538 5 21 8.053 21 11.32C21 14.867 20.394 17.182 18.577 19.898C16.885 22.149 14.485 22.651 12.167 21.132C12.12 21.1019 12.0657 21.0852 12.0099 21.0834C11.9541 21.0816 11.8988 21.095 11.85 21.122C9.515 22.65 7.115 22.149 5.39 19.852C3.607 17.184 3 14.868 3 11.32L3.004 11.098C3.112 7.917 5.53 5 8.444 5C9.384 5 10.296 5.291 11.132 5.792C11.551 3.842 12.95 2 15 2ZM7.966 8.154C6.606 9.012 6 10.214 6 12C6 12.2652 6.10536 12.5196 6.29289 12.7071C6.48043 12.8946 6.73478 13 7 13C7.26522 13 7.51957 12.8946 7.70711 12.7071C7.89464 12.5196 8 12.2652 8 12C8 10.875 8.28 10.322 9.034 9.846C9.25837 9.70437 9.4173 9.47942 9.47581 9.22062C9.53432 8.96182 9.48763 8.69037 9.346 8.466C9.20437 8.24163 8.97942 8.0827 8.72062 8.02419C8.46182 7.96568 8.19037 8.01237 7.966 8.154Z" fill="var(--fill-0, #FFF6E9)"/>
</g>
</svg>
