<svg preserveAspectRatio="none" width="100%" height="100%" overflow="visible" style="display: block;" viewBox="0 0 22 22" fill="none" xmlns="http://www.w3.org/2000/svg">
<g id="iconamoon:discover-fill">
<path id="Vector" fill-rule="evenodd" clip-rule="evenodd" d="M1.83333 11C1.83333 5.93725 5.93725 1.83333 11 1.83333C16.0628 1.83333 20.1667 5.93725 20.1667 11C20.1667 16.0628 16.0628 20.1667 11 20.1667C5.93725 20.1667 1.83333 16.0628 1.83333 11ZM13.75 8.25L10.3648 8.92742C10.0101 8.99849 9.6844 9.17288 9.42864 9.42864C9.17288 9.6844 8.99849 10.0101 8.92742 10.3648L8.25 13.75L11.6353 13.0726C11.9901 13.0017 12.316 12.8274 12.5719 12.5716C12.8278 12.3158 13.0024 11.99 13.0735 11.6353L13.75 8.25Z" fill="var(--fill-0, #473025)"/>
</g>
</svg>
