<svg preserveAspectRatio="none" width="100%" height="100%" overflow="visible" style="display: block;" viewBox="0 0 15 9" fill="none" xmlns="http://www.w3.org/2000/svg">
<path id="Vector" d="M0.330173 8.65584C0.541647 8.8762 0.828428 9 1.12745 9C1.42648 9 1.71326 8.8762 1.92473 8.65584L7.50681 2.83731L13.0889 8.65584C13.3016 8.86996 13.5864 8.98844 13.8821 8.98576C14.1778 8.98308 14.4606 8.85946 14.6697 8.64152C14.8788 8.42358 14.9974 8.12876 15 7.82056C15.0025 7.51235 14.8889 7.21543 14.6834 6.99374L8.30409 0.344159C8.09261 0.123794 7.80583 0 7.50681 0C7.20778 0 6.921 0.123794 6.70953 0.344159L0.330173 6.99374C0.118763 7.21417 0 7.5131 0 7.82479C0 8.13648 0.118763 8.43541 0.330173 8.65584Z" fill="var(--fill-0, #C4946F)"/>
</svg>
