<svg width="24" height="24" viewBox="0 0 24 24" fill="none" xmlns="http://www.w3.org/2000/svg">
<path d="M6 11H10M8 9V13M15 12H15.01M18 10H18.01M17.32 5H6.68C5.28 5 4.07 5.97 3.78 7.34L2.28 14.34C1.97 15.79 2.45 17.29 3.54 18.29C4.63 19.29 6.18 19.63 7.61 19.2L8.43 18.96C9.23 18.72 10.07 18.6 10.92 18.6H13.08C13.93 18.6 14.77 18.72 15.57 18.96L16.39 19.2C17.82 19.63 19.37 19.29 20.46 18.29C21.55 17.29 22.03 15.79 21.72 14.34L20.22 7.34C19.93 5.97 18.72 5 17.32 5Z" stroke="#473025" stroke-width="2" stroke-linecap="round" stroke-linejoin="round"/>
</svg>
