<svg preserveAspectRatio="none" width="100%" height="100%" overflow="visible" style="display: block;" viewBox="0 0 24 24" fill="none" xmlns="http://www.w3.org/2000/svg">
<g id="tabler:bell-filled">
<path id="Vector" d="M14.235 19C15.1 19 15.557 20.024 14.98 20.668C14.6048 21.0871 14.1455 21.4223 13.6321 21.6518C13.1186 21.8813 12.5624 22 12 22C11.4376 22 10.8814 21.8813 10.3679 21.6518C9.85446 21.4223 9.39515 21.0871 9.02 20.668C8.468 20.052 8.862 19.089 9.654 19.007L9.764 19.001L14.235 19ZM12 2C13.358 2 14.506 2.903 14.875 4.141L14.921 4.312L14.929 4.355C16.0315 4.97671 16.9711 5.85086 17.6705 6.9058C18.37 7.96073 18.8095 9.16641 18.953 10.424L18.981 10.711L19 11V13.931L19.021 14.067C19.1579 14.8038 19.5657 15.4627 20.164 15.914L20.331 16.031L20.493 16.13C21.353 16.617 21.053 17.896 20.116 17.994L20 18H4C2.972 18 2.613 16.636 3.507 16.13C3.88803 15.9144 4.21725 15.618 4.47154 15.2616C4.72583 14.9052 4.89904 14.4974 4.979 14.067L5 13.924L5.001 10.954C5.06197 9.64788 5.44216 8.37661 6.10828 7.25147C6.77441 6.12632 7.70617 5.18161 8.822 4.5L9.07 4.354L9.08 4.311C9.22106 3.71283 9.54243 3.17241 10.0006 2.76285C10.4589 2.35328 11.0318 2.09432 11.642 2.021L11.824 2.004L12 2Z" fill="var(--fill-0, #473025)"/>
</g>
</svg>
