<svg preserveAspectRatio="none" width="100%" height="100%" overflow="visible" style="display: block;" viewBox="0 0 20 21" fill="none" xmlns="http://www.w3.org/2000/svg">
<path id="Vector" d="M8.76576 21C8.29307 21 7.8862 20.8425 7.54517 20.5275C7.20413 20.2125 6.99825 19.8275 6.92752 19.3725L6.69118 17.64C6.46359 17.5525 6.2493 17.4475 6.04832 17.325C5.84734 17.2025 5.65021 17.0712 5.45693 16.9312L3.82878 17.6137C3.39111 17.8062 2.95343 17.8237 2.51576 17.6662C2.07808 17.5087 1.73669 17.2287 1.4916 16.8262L0.257353 14.6737C0.0122547 14.2712 -0.0577731 13.8425 0.047269 13.3875C0.152311 12.9325 0.388655 12.5562 0.756302 12.2587L2.14811 11.2087C2.1306 11.0862 2.12185 10.9679 2.12185 10.8538V10.1451C2.12185 10.0317 2.1306 9.91375 2.14811 9.79125L0.756302 8.74125C0.388655 8.44375 0.152311 8.0675 0.047269 7.6125C-0.0577731 7.1575 0.0122547 6.72875 0.257353 6.32625L1.4916 4.17375C1.73669 3.77125 2.07808 3.49125 2.51576 3.33375C2.95343 3.17625 3.39111 3.19375 3.82878 3.38625L5.45693 4.06875C5.64951 3.92875 5.85084 3.7975 6.06092 3.675C6.27101 3.5525 6.48109 3.4475 6.69118 3.36L6.92752 1.6275C6.99755 1.1725 7.20343 0.7875 7.54517 0.4725C7.8869 0.1575 8.29377 0 8.76576 0H11.2342C11.7069 0 12.1141 0.1575 12.4559 0.4725C12.7976 0.7875 13.0032 1.1725 13.0725 1.6275L13.3088 3.36C13.5364 3.4475 13.751 3.5525 13.9527 3.675C14.1544 3.7975 14.3512 3.92875 14.5431 4.06875L16.1712 3.38625C16.6089 3.19375 17.0466 3.17625 17.4842 3.33375C17.9219 3.49125 18.2633 3.77125 18.5084 4.17375L19.7426 6.32625C19.9877 6.72875 20.0578 7.1575 19.9527 7.6125C19.8477 8.0675 19.6113 8.44375 19.2437 8.74125L17.8519 9.79125C17.8694 9.91375 17.8782 10.032 17.8782 10.1461V10.8538C17.8782 10.9679 17.8606 11.0862 17.8256 11.2087L19.2174 12.2587C19.5851 12.5562 19.8214 12.9325 19.9265 13.3875C20.0315 13.8425 19.9615 14.2712 19.7164 14.6737L18.4559 16.8262C18.2108 17.2287 17.8694 17.5087 17.4317 17.6662C16.994 17.8237 16.5564 17.8062 16.1187 17.6137L14.5431 16.9312C14.3505 17.0712 14.1492 17.2025 13.9391 17.325C13.729 17.4475 13.5189 17.5525 13.3088 17.64L13.0725 19.3725C13.0025 19.8275 12.7969 20.2125 12.4559 20.5275C12.1148 20.8425 11.7076 21 11.2342 21H8.76576ZM10.0525 14.175C11.0679 14.175 11.9345 13.8162 12.6523 13.0987C13.3701 12.3812 13.729 11.515 13.729 10.5C13.729 9.485 13.3701 8.61875 12.6523 7.90125C11.9345 7.18375 11.0679 6.825 10.0525 6.825C9.01961 6.825 8.14846 7.18375 7.43908 7.90125C6.72969 8.61875 6.37535 9.485 6.37605 10.5C6.37675 11.515 6.73144 12.3812 7.44013 13.0987C8.14881 13.8162 9.01961 14.175 10.0525 14.175Z" fill="var(--fill-0, #473025)"/>
</svg>
