<svg preserveAspectRatio="none" width="100%" height="100%" overflow="visible" style="display: block;" viewBox="0 0 24 24" fill="none" xmlns="http://www.w3.org/2000/svg">
<g id="iconamoon:shopping-bag-fill" clip-path="url(#clip0_532_217)">
<path id="Vector" fill-rule="evenodd" clip-rule="evenodd" d="M7.00006 8C7.00006 7.20435 7.31613 6.44129 7.87874 5.87868C8.44135 5.31607 9.20441 5 10.0001 5C10.7957 5 11.5588 5.31607 12.1214 5.87868C12.684 6.44129 13.0001 7.20435 13.0001 8H7.00006ZM5.00006 8C5.00006 6.67392 5.52684 5.40215 6.46452 4.46447C7.40221 3.52678 8.67398 3 10.0001 3C11.3261 3 12.5979 3.52678 13.5356 4.46447C14.4733 5.40215 15.0001 6.67392 15.0001 8H18.0001C18.139 7.99999 18.2764 8.02893 18.4035 8.08496C18.5306 8.14099 18.6446 8.22289 18.7383 8.32544C18.832 8.42799 18.9034 8.54894 18.9477 8.68058C18.9921 8.81221 19.0086 8.95165 18.9961 9.09L18.1611 18.272C18.0932 19.0174 17.7492 19.7105 17.1965 20.2152C16.6439 20.7199 15.9225 20.9998 15.1741 21H4.82606C4.07761 20.9998 3.35625 20.7199 2.8036 20.2152C2.25094 19.7105 1.90692 19.0174 1.83906 18.272L1.00406 9.09C0.991556 8.95165 1.00802 8.81221 1.05239 8.68058C1.09676 8.54894 1.16807 8.42799 1.26178 8.32544C1.35548 8.22289 1.46953 8.14099 1.59664 8.08496C1.72375 8.02893 1.86114 7.99999 2.00006 8H5.00006Z" fill="var(--fill-0, #473025)"/>
<g id="material-symbols:settings-rounded">
</g>
</g>
<defs>
<clipPath id="clip0_532_217">
<rect width="24" height="24" fill="white"/>
</clipPath>
</defs>
</svg>
