<svg preserveAspectRatio="none" width="100%" height="100%" overflow="visible" style="display: block;" viewBox="0 0 12 14" fill="none" xmlns="http://www.w3.org/2000/svg">
<path id="Vector" d="M6.88894 0.33827C6.65319 0.121665 6.33362 0 6.00042 0C5.66722 0 5.34765 0.121665 5.1119 0.33827L0.368384 4.69966C0.132512 4.91665 -3.51477e-09 5.21094 0 5.51781C3.51477e-09 5.82467 0.132512 6.11897 0.368384 6.33595C0.604256 6.55294 0.924167 6.67484 1.25774 6.67484C1.59131 6.67484 1.91123 6.55294 2.1471 6.33595L4.74308 3.9486V12.8433C4.74308 13.1501 4.87555 13.4443 5.11135 13.6612C5.34714 13.8781 5.66695 14 6.00042 14C6.33389 14 6.6537 13.8781 6.88949 13.6612C7.12529 13.4443 7.25776 13.1501 7.25776 12.8433V3.9486L9.8529 6.33595C9.9697 6.44339 10.1083 6.52862 10.2609 6.58677C10.4135 6.64491 10.5771 6.67484 10.7423 6.67484C10.9074 6.67484 11.071 6.64491 11.2236 6.58677C11.3762 6.52862 11.5148 6.44339 11.6316 6.33595C11.7484 6.22851 11.8411 6.10096 11.9043 5.96058C11.9675 5.82021 12 5.66975 12 5.51781C12 5.36586 11.9675 5.21541 11.9043 5.07503C11.8411 4.93465 11.7484 4.8071 11.6316 4.69966L6.88894 0.33827Z" fill="var(--fill-0, white)"/>
</svg>
