<svg preserveAspectRatio="none" width="100%" height="100%" overflow="visible" style="display: block;" viewBox="0 0 19 19" fill="none" xmlns="http://www.w3.org/2000/svg">
<g id="jam:write-f" clip-path="url(#clip0_1121_328)">
<path id="Vector" d="M17.2019 1.16818L17.6677 1.63397C18.3095 2.2766 18.2124 3.41581 17.449 4.17844L7.84348 13.784L4.73138 14.9224C4.34059 15.0661 3.96006 14.8798 3.88269 14.5079C3.85663 14.373 3.86894 14.2335 3.91822 14.1053L5.07875 10.9663L14.6574 1.38686C15.4209 0.624229 16.5601 0.525545 17.2019 1.16818ZM7.42427 2.12344C7.52795 2.12344 7.63061 2.14386 7.72639 2.18353C7.82217 2.22321 7.90921 2.28136 7.98252 2.35467C8.05583 2.42798 8.11398 2.51501 8.15365 2.61079C8.19333 2.70658 8.21375 2.80924 8.21375 2.91291C8.21375 3.01659 8.19333 3.11925 8.15365 3.21503C8.11398 3.31081 8.05583 3.39785 7.98252 3.47116C7.90921 3.54446 7.82217 3.60262 7.72639 3.64229C7.63061 3.68197 7.52795 3.70239 7.42427 3.70239H4.26638C3.84762 3.70239 3.446 3.86874 3.14989 4.16485C2.85378 4.46096 2.68743 4.86257 2.68743 5.28133V14.755C2.68743 15.1738 2.85378 15.5754 3.14989 15.8715C3.446 16.1676 3.84762 16.334 4.26638 16.334H13.7401C14.1588 16.334 14.5604 16.1676 14.8565 15.8715C15.1527 15.5754 15.319 15.1738 15.319 14.755V11.5971C15.319 11.3877 15.4022 11.1869 15.5502 11.0389C15.6983 10.8908 15.8991 10.8077 16.1085 10.8077C16.3179 10.8077 16.5187 10.8908 16.6667 11.0389C16.8148 11.1869 16.898 11.3877 16.898 11.5971V14.755C16.898 15.5925 16.5653 16.3958 15.973 16.988C15.3808 17.5802 14.5776 17.9129 13.7401 17.9129H4.26638C3.42885 17.9129 2.62563 17.5802 2.03341 16.988C1.44119 16.3958 1.10848 15.5925 1.10848 14.755V5.28133C1.10848 4.44381 1.44119 3.64059 2.03341 3.04837C2.62563 2.45615 3.42885 2.12344 4.26638 2.12344H7.42427Z" fill="var(--fill-0, white)"/>
</g>
<defs>
<clipPath id="clip0_1121_328">
<rect width="18.9474" height="18.9474" fill="white"/>
</clipPath>
</defs>
</svg>
