<svg preserveAspectRatio="none" width="100%" height="100%" overflow="visible" style="display: block;" viewBox="0 0 21 21" fill="none" xmlns="http://www.w3.org/2000/svg">
<g id="jam:write-f">
<path id="Vector" d="M19.0654 1.295L19.5816 1.81125C20.293 2.5235 20.1854 3.78612 19.3393 4.63137L8.69313 15.2775L5.24388 16.5392C4.81075 16.6985 4.389 16.492 4.30325 16.0799C4.27437 15.9304 4.28801 15.7758 4.34263 15.6336L5.62888 12.1546L16.2453 1.53737C17.0914 0.692125 18.354 0.58275 19.0654 1.295ZM8.2285 2.35375C8.34341 2.35375 8.45719 2.37638 8.56335 2.42036C8.66951 2.46433 8.76597 2.52878 8.84722 2.61003C8.92847 2.69128 8.99292 2.78774 9.0369 2.8939C9.08087 3.00006 9.1035 3.11384 9.1035 3.22875C9.1035 3.34366 9.08087 3.45744 9.0369 3.5636C8.99292 3.66976 8.92847 3.76622 8.84722 3.84747C8.76597 3.92872 8.66951 3.99317 8.56335 4.03714C8.45719 4.08112 8.34341 4.10375 8.2285 4.10375H4.7285C4.26437 4.10375 3.81925 4.28812 3.49106 4.61631C3.16287 4.9445 2.9785 5.38962 2.9785 5.85375V16.3537C2.9785 16.8179 3.16287 17.263 3.49106 17.5912C3.81925 17.9194 4.26437 18.1037 4.7285 18.1037H15.2285C15.6926 18.1037 16.1378 17.9194 16.4659 17.5912C16.7941 17.263 16.9785 16.8179 16.9785 16.3537V12.8537C16.9785 12.6217 17.0707 12.3991 17.2348 12.235C17.3989 12.0709 17.6214 11.9787 17.8535 11.9787C18.0856 11.9787 18.3081 12.0709 18.4722 12.235C18.6363 12.3991 18.7285 12.6217 18.7285 12.8537V16.3537C18.7285 17.282 18.3598 18.1722 17.7034 18.8286C17.047 19.485 16.1568 19.8537 15.2285 19.8537H4.7285C3.80024 19.8537 2.91 19.485 2.25363 18.8286C1.59725 18.1722 1.2285 17.282 1.2285 16.3537V5.85375C1.2285 4.92549 1.59725 4.03525 2.25363 3.37888C2.91 2.7225 3.80024 2.35375 4.7285 2.35375H8.2285Z" fill="var(--fill-0, white)"/>
</g>
</svg>
