<svg preserveAspectRatio="none" width="100%" height="100%" overflow="visible" style="display: block;" viewBox="0 0 15 15" fill="none" xmlns="http://www.w3.org/2000/svg">
<g id="tdesign:edit-filled">
<path id="Vector" d="M11.6126 1.83998C11.3782 1.60564 11.0603 1.474 10.7289 1.474C10.3974 1.474 10.0796 1.60564 9.84514 1.83998L8.81702 2.86873L12.1314 6.18311L13.1595 5.15561C13.2756 5.03953 13.3678 4.90171 13.4306 4.75002C13.4935 4.59833 13.5258 4.43574 13.5258 4.27154C13.5258 4.10735 13.4935 3.94476 13.4306 3.79307C13.3678 3.64138 13.2756 3.50356 13.1595 3.38748L11.6126 1.83998ZM11.2476 7.06686L7.93327 3.75248L2.41139 9.27436L1.73889 13.2619L5.72639 12.5887L11.2476 7.06686Z" fill="var(--fill-0, white)"/>
</g>
</svg>
