<svg preserveAspectRatio="none" width="100%" height="100%" overflow="visible" style="display: block;" viewBox="0 0 24 24" fill="none" xmlns="http://www.w3.org/2000/svg">
<g id="jam:write-f">
<path id="Vector" d="M21.789 1.48L22.379 2.07C23.192 2.884 23.069 4.327 22.102 5.293L9.935 17.46L5.993 18.902C5.498 19.084 5.016 18.848 4.918 18.377C4.88499 18.2061 4.90058 18.0294 4.963 17.867L6.433 13.891L18.566 1.757C19.533 0.791 20.976 0.666 21.789 1.48ZM9.404 2.69C9.53532 2.69 9.66536 2.71587 9.78668 2.76612C9.90801 2.81638 10.0182 2.89003 10.1111 2.98289C10.204 3.07575 10.2776 3.18599 10.3279 3.30732C10.3781 3.42864 10.404 3.55868 10.404 3.69C10.404 3.82132 10.3781 3.95136 10.3279 4.07268C10.2776 4.19401 10.204 4.30425 10.1111 4.39711C10.0182 4.48997 9.90801 4.56362 9.78668 4.61388C9.66536 4.66413 9.53532 4.69 9.404 4.69H5.404C4.87357 4.69 4.36486 4.90071 3.98979 5.27579C3.61471 5.65086 3.404 6.15957 3.404 6.69V18.69C3.404 19.2204 3.61471 19.7291 3.98979 20.1042C4.36486 20.4793 4.87357 20.69 5.404 20.69H17.404C17.9344 20.69 18.4431 20.4793 18.8182 20.1042C19.1933 19.7291 19.404 19.2204 19.404 18.69V14.69C19.404 14.4248 19.5094 14.1704 19.6969 13.9829C19.8844 13.7954 20.1388 13.69 20.404 13.69C20.6692 13.69 20.9236 13.7954 21.1111 13.9829C21.2986 14.1704 21.404 14.4248 21.404 14.69V18.69C21.404 19.7509 20.9826 20.7683 20.2324 21.5184C19.4823 22.2686 18.4649 22.69 17.404 22.69H5.404C4.34313 22.69 3.32572 22.2686 2.57557 21.5184C1.82543 20.7683 1.404 19.7509 1.404 18.69V6.69C1.404 5.62913 1.82543 4.61172 2.57557 3.86157C3.32572 3.11143 4.34313 2.69 5.404 2.69H9.404Z" fill="var(--fill-0, white)"/>
</g>
</svg>
