<svg preserveAspectRatio="none" width="100%" height="100%" overflow="visible" style="display: block;" viewBox="0 0 39 39" fill="none" xmlns="http://www.w3.org/2000/svg">
<g id="material-symbols:check-circle-outline-rounded">
<path id="Vector" d="M17.225 22.425L13.7312 18.9312C13.4333 18.6333 13.0542 18.4844 12.5938 18.4844C12.1333 18.4844 11.7542 18.6333 11.4563 18.9312C11.1583 19.2292 11.0094 19.6083 11.0094 20.0687C11.0094 20.5292 11.1583 20.9083 11.4563 21.2062L16.0875 25.8375C16.4125 26.1625 16.7917 26.325 17.225 26.325C17.6583 26.325 18.0375 26.1625 18.3625 25.8375L27.5438 16.6562C27.8417 16.3583 27.9906 15.9792 27.9906 15.5187C27.9906 15.0583 27.8417 14.6792 27.5438 14.3812C27.2458 14.0833 26.8667 13.9344 26.4062 13.9344C25.9458 13.9344 25.5667 14.0833 25.2687 14.3812L17.225 22.425ZM19.5 35.75C17.2521 35.75 15.1396 35.3232 13.1625 34.4695C11.1854 33.6158 9.46563 32.4583 8.00313 30.9969C6.54063 29.5355 5.38308 27.8157 4.5305 25.8375C3.67792 23.8593 3.25108 21.7468 3.25 19.5C3.24892 17.2532 3.67575 15.1407 4.5305 13.1625C5.38525 11.1843 6.54279 9.46454 8.00313 8.00312C9.46346 6.54171 11.1833 5.38417 13.1625 4.5305C15.1418 3.67683 17.2542 3.25 19.5 3.25C21.7457 3.25 23.8582 3.67683 25.8375 4.5305C27.8167 5.38417 29.5365 6.54171 30.9969 8.00312C32.4572 9.46454 33.6153 11.1843 34.4711 13.1625C35.327 15.1407 35.7533 17.2532 35.75 19.5C35.7468 21.7468 35.3199 23.8593 34.4695 25.8375C33.6191 27.8157 32.4615 29.5355 30.9969 30.9969C29.5322 32.4583 27.8124 33.6164 25.8375 34.4711C23.8626 35.3259 21.7501 35.7522 19.5 35.75ZM19.5 32.5C23.1292 32.5 26.2031 31.2406 28.7219 28.7219C31.2406 26.2031 32.5 23.1292 32.5 19.5C32.5 15.8708 31.2406 12.7969 28.7219 10.2781C26.2031 7.75937 23.1292 6.5 19.5 6.5C15.8708 6.5 12.7969 7.75937 10.2781 10.2781C7.75937 12.7969 6.5 15.8708 6.5 19.5C6.5 23.1292 7.75937 26.2031 10.2781 28.7219C12.7969 31.2406 15.8708 32.5 19.5 32.5Z" fill="var(--fill-0, #386E18)"/>
</g>
</svg>
