<svg preserveAspectRatio="none" width="100%" height="100%" overflow="visible" style="display: block;" viewBox="0 0 33 30" fill="none" xmlns="http://www.w3.org/2000/svg">
<g id="Group">
<g id="Vector">
</g>
<path id="Vector_2" fill-rule="evenodd" clip-rule="evenodd" d="M23.5241 0C24.6686 0 25.6151 0.651 26.3081 1.335C27.0296 2.0445 27.6911 2.9985 28.2791 4.05C29.4596 6.159 30.4871 8.9145 31.1666 11.637C31.8416 14.3385 32.2151 17.16 31.9766 19.3785C31.7366 21.606 30.5891 24 28.0241 24C25.8101 24 24.0461 22.86 22.6031 21.7035L22.0766 21.27L21.3386 20.6475L20.6726 20.0955C19.1441 18.858 17.7866 18 16.0241 18C14.2616 18 12.9041 18.858 11.3756 20.0955L10.7096 20.6475L9.97161 21.27L9.44661 21.7035C8.00061 22.86 6.23661 24 4.02411 24C1.45761 24 0.310112 21.606 0.0716116 19.3785C-0.165388 17.1585 0.206612 14.3385 0.881611 11.637C1.56111 8.9145 2.58861 6.159 3.76911 4.0485C4.35711 2.9985 5.01861 2.0445 5.74011 1.3335C6.43311 0.651 7.37961 0 8.52411 0C9.29661 0 10.0511 0.1845 10.7936 0.405L11.6816 0.6765C11.8296 0.7225 11.9771 0.766 12.1241 0.807C13.4216 1.179 14.7491 1.5 16.0241 1.5C17.2991 1.5 18.6266 1.179 19.9241 0.807L21.2516 0.4065C21.9986 0.186 22.7591 0 23.5241 0ZM23.5241 3C22.9496 3 22.3496 3.174 21.7676 3.3645L21.0806 3.591L20.7491 3.693C19.4216 4.071 17.7491 4.5 16.0241 4.5C14.2991 4.5 12.6266 4.071 11.2991 3.693L10.9691 3.591L10.2806 3.3645C9.69861 3.1725 9.09861 3 8.52411 3C7.89711 3.117 7.33461 3.8775 6.91011 4.5825L6.67311 4.995L6.38811 5.514C5.36511 7.341 4.42311 9.834 3.79311 12.3645C3.20061 14.7285 2.91261 16.9935 3.02211 18.6795L3.06111 19.119L3.09111 19.383L3.13611 19.695C3.23961 20.2965 3.46311 21 4.02411 21C5.24211 21 6.25911 20.394 7.52361 19.389L8.12811 18.897L9.26811 17.943L9.78411 17.523C11.3801 16.2585 13.3766 15 16.0241 15C18.6716 15 20.6681 16.26 22.2641 17.523L22.7816 17.943L23.9216 18.897L24.5246 19.389C25.7891 20.394 26.8046 21 28.0241 21C28.5341 21 28.7651 20.4195 28.8806 19.8615L28.9376 19.5345L28.9931 19.059C29.1776 17.34 28.8926 14.9115 28.2566 12.3645C27.6776 10.0455 26.8376 7.7565 25.9136 5.9835L25.3751 4.9935L25.1381 4.584C24.7136 3.8775 24.1511 3.117 23.5241 3ZM10.7741 6C11.7687 6 12.7225 6.39509 13.4258 7.09835C14.129 7.80161 14.5241 8.75544 14.5241 9.75C14.5241 10.7446 14.129 11.6984 13.4258 12.4017C12.7225 13.1049 11.7687 13.5 10.7741 13.5C9.77955 13.5 8.82572 13.1049 8.12246 12.4017C7.4192 11.6984 7.02411 10.7446 7.02411 9.75C7.02411 8.75544 7.4192 7.80161 8.12246 7.09835C8.82572 6.39509 9.77955 6 10.7741 6ZM21.2741 6C21.6415 6.00005 21.9961 6.13493 22.2707 6.37907C22.5452 6.62321 22.7206 6.95962 22.7636 7.3245L22.7741 7.5V8.25H23.5241C23.9064 8.25042 24.2742 8.39682 24.5522 8.65927C24.8302 8.92173 24.9975 9.28043 25.0199 9.66209C25.0423 10.0438 24.9181 10.4196 24.6727 10.7127C24.4273 11.0059 24.0793 11.1943 23.6996 11.2395L23.5241 11.25H22.7741V12C22.7737 12.3823 22.6273 12.75 22.3648 13.0281C22.1024 13.3061 21.7437 13.4734 21.362 13.4958C20.9804 13.5182 20.6045 13.394 20.3114 13.1486C20.0182 12.9032 19.8298 12.5551 19.7846 12.1755L19.7741 12V11.25H19.0241C18.6418 11.2496 18.2741 11.1032 17.9961 10.8407C17.7181 10.5783 17.5508 10.2196 17.5284 9.83791C17.5059 9.45625 17.6301 9.08043 17.8755 8.78725C18.1209 8.49407 18.469 8.30566 18.8486 8.2605L19.0241 8.25H19.7741V7.5C19.7741 7.10218 19.9321 6.72064 20.2135 6.43934C20.4948 6.15804 20.8763 6 21.2741 6ZM10.7741 9C10.5752 9 10.3844 9.07902 10.2438 9.21967C10.1031 9.36032 10.0241 9.55109 10.0241 9.75C10.0241 9.94891 10.1031 10.1397 10.2438 10.2803C10.3844 10.421 10.5752 10.5 10.7741 10.5C10.973 10.5 11.1638 10.421 11.3044 10.2803C11.4451 10.1397 11.5241 9.94891 11.5241 9.75C11.5241 9.55109 11.4451 9.36032 11.3044 9.21967C11.1638 9.07902 10.973 9 10.7741 9Z" fill="var(--fill-0, #00A63E)"/>
</g>
</svg>
