<svg preserveAspectRatio="none" width="100%" height="100%" overflow="visible" style="display: block;" viewBox="0 0 36 36" fill="none" xmlns="http://www.w3.org/2000/svg">
<g id="mdi:help-outline">
<path id="Vector" d="M32.565 13.065C34.44 11.19 33.585 9 32.565 7.935L28.065 3.435C26.175 1.56 24 2.415 22.935 3.435L20.385 6H16.5C13.65 6 12 7.5 11.16 9.225L4.5 15.885V21.885L3.435 22.935C1.56 24.825 2.415 27 3.435 28.065L7.935 32.565C8.745 33.375 9.615 33.675 10.44 33.675C11.505 33.675 12.48 33.15 13.065 32.565L17.115 28.5H22.5C25.05 28.5 26.34 26.91 26.805 25.35C28.5 24.9 29.43 23.61 29.805 22.35C32.13 21.75 33 19.545 33 18V13.5H32.115L32.565 13.065ZM30 18C30 18.675 29.715 19.5 28.5 19.5H27V21C27 21.675 26.715 22.5 25.5 22.5H24V24C24 24.675 23.715 25.5 22.5 25.5H15.885L10.965 30.42C10.5 30.855 10.23 30.6 10.065 30.435L5.58 25.965C5.145 25.5 5.4 25.23 5.565 25.065L7.5 23.115V17.115L10.5 14.115V16.5C10.5 18.315 11.7 21 15 21C18.3 21 19.5 18.315 19.5 16.5H30V18ZM30.435 10.935L27.885 13.5H16.5V16.5C16.5 17.175 16.215 18 15 18C13.785 18 13.5 17.175 13.5 16.5V12C13.5 11.31 13.755 9 16.5 9H21.615L25.035 5.58C25.5 5.145 25.77 5.4 25.935 5.565L30.42 10.035C30.855 10.5 30.6 10.77 30.435 10.935Z" fill="var(--fill-0, #7A2626)"/>
</g>
</svg>
