<svg preserveAspectRatio="none" width="100%" height="100%" overflow="visible" style="display: block;" viewBox="0 0 34 34" fill="none" xmlns="http://www.w3.org/2000/svg">
<g id="eva:people-outline">
<path id="Vector" d="M12.75 15.5833C13.8708 15.5833 14.9664 15.251 15.8982 14.6283C16.8301 14.0057 17.5564 13.1207 17.9853 12.0852C18.4142 11.0498 18.5264 9.91038 18.3078 8.81115C18.0891 7.71193 17.5494 6.70223 16.7569 5.90973C15.9644 5.11723 14.9547 4.57753 13.8555 4.35888C12.7563 4.14023 11.6169 4.25245 10.5815 4.68135C9.54601 5.11025 8.661 5.83656 8.03834 6.76844C7.41568 7.70031 7.08333 8.79591 7.08333 9.91667C7.08333 11.4196 7.68036 12.8609 8.74306 13.9236C9.80577 14.9863 11.2471 15.5833 12.75 15.5833ZM12.75 7.08333C13.3104 7.08333 13.8582 7.24951 14.3241 7.56084C14.7901 7.87217 15.1532 8.31467 15.3677 8.8324C15.5821 9.35012 15.6382 9.91981 15.5289 10.4694C15.4196 11.019 15.1497 11.5239 14.7535 11.9201C14.3572 12.3164 13.8524 12.5862 13.3028 12.6956C12.7531 12.8049 12.1835 12.7488 11.6657 12.5343C11.148 12.3199 10.7055 11.9567 10.3942 11.4908C10.0828 11.0248 9.91667 10.477 9.91667 9.91667C9.91667 9.16522 10.2152 8.44455 10.7465 7.9132C11.2779 7.38184 11.9986 7.08333 12.75 7.08333ZM24.0833 18.4167C24.9239 18.4167 25.7456 18.1674 26.4445 17.7004C27.1434 17.2334 27.6882 16.5697 28.0098 15.7931C28.3315 15.0165 28.4157 14.162 28.2517 13.3375C28.0877 12.5131 27.6829 11.7558 27.0885 11.1615C26.4942 10.5671 25.7369 10.1623 24.9125 9.99833C24.0881 9.83434 23.2335 9.91851 22.4569 10.2402C21.6803 10.5619 21.0166 11.1066 20.5496 11.8055C20.0826 12.5044 19.8333 13.3261 19.8333 14.1667C19.8333 15.2938 20.2811 16.3748 21.0781 17.1719C21.8752 17.9689 22.9562 18.4167 24.0833 18.4167ZM24.0833 12.75C24.3635 12.75 24.6374 12.8331 24.8704 12.9888C25.1034 13.1444 25.2849 13.3657 25.3922 13.6245C25.4994 13.8834 25.5274 14.1682 25.4728 14.443C25.4181 14.7179 25.2832 14.9703 25.0851 15.1684C24.8869 15.3665 24.6345 15.5015 24.3597 15.5561C24.0849 15.6108 23.8001 15.5827 23.5412 15.4755C23.2823 15.3683 23.0611 15.1867 22.9054 14.9537C22.7498 14.7208 22.6667 14.4469 22.6667 14.1667C22.6667 13.7909 22.8159 13.4306 23.0816 13.1649C23.3473 12.8993 23.7076 12.75 24.0833 12.75ZM24.0833 19.8333C22.5134 19.8351 20.9886 20.3583 19.7483 21.3208C18.3607 19.9387 16.5949 18.9983 14.6736 18.6184C12.7523 18.2385 10.7615 18.4361 8.95224 19.1861C7.14302 19.9362 5.59642 21.2051 4.50747 22.833C3.41851 24.4609 2.83598 26.3748 2.83333 28.3333C2.83333 28.7091 2.98259 29.0694 3.24827 29.3351C3.51394 29.6007 3.87428 29.75 4.25 29.75C4.62572 29.75 4.98606 29.6007 5.25173 29.3351C5.51741 29.0694 5.66667 28.7091 5.66667 28.3333C5.66667 26.4547 6.41294 24.653 7.74133 23.3247C9.06971 21.9963 10.8714 21.25 12.75 21.25C14.6286 21.25 16.4303 21.9963 17.7587 23.3247C19.0871 24.653 19.8333 26.4547 19.8333 28.3333C19.8333 28.7091 19.9826 29.0694 20.2483 29.3351C20.5139 29.6007 20.8743 29.75 21.25 29.75C21.6257 29.75 21.9861 29.6007 22.2517 29.3351C22.5174 29.0694 22.6667 28.7091 22.6667 28.3333C22.67 26.6736 22.2508 25.0404 21.4483 23.5875C22.0744 23.0928 22.8271 22.7843 23.6203 22.6974C24.4134 22.6104 25.2151 22.7485 25.9334 23.0959C26.6518 23.4432 27.2579 23.9858 27.6823 24.6615C28.1067 25.3372 28.3323 26.1187 28.3333 26.9167C28.3333 27.2924 28.4826 27.6527 28.7483 27.9184C29.0139 28.1841 29.3743 28.3333 29.75 28.3333C30.1257 28.3333 30.4861 28.1841 30.7517 27.9184C31.0174 27.6527 31.1667 27.2924 31.1667 26.9167C31.1667 25.038 30.4204 23.2364 29.092 21.908C27.7636 20.5796 25.962 19.8333 24.0833 19.8333Z" fill="var(--fill-0, #FF004E)"/>
</g>
</svg>
